<svg width="530" height="600" viewBox="0 0 530 600" fill="none" xmlns="http://www.w3.org/2000/svg">
<rect width="530" height="600" fill="#E5E5E5"/>
<rect x="-1812" y="-845" width="2500" height="1592" rx="45" fill="white"/>
<path d="M305.778 106.621C305.778 106.621 437.166 127.213 427.202 314.748C427.166 315.443 442.394 325.57 443.587 326.652C454.205 336.272 463.114 348.592 467.009 363.003C480.881 414.322 431.285 467.199 391.179 481.234C376.198 486.476 360.364 489.021 344.498 489.483C241.359 492.492 104.808 426.828 97.7949 298.59C97.5437 293.989 97.4817 289.383 97.5999 284.788C98.2216 260.439 104.088 236.725 112.93 214.706C112.927 214.707 170.328 72.0891 305.778 106.621Z" fill="#EBE4E4"/>
<path opacity="0.3" d="M364.803 325.889C364.803 325.889 385.645 306.025 401.78 324.701Z" fill="#C9BABA"/>
<path d="M170.522 422.66C98.3253 458.929 36.136 374.104 58.2178 324.985C72.3035 293.654 110.881 290.275 132.393 318.028C145.088 334.407 155.139 355.499 160.61 375.781" fill="#EBE4E4"/>
<path opacity="0.3" d="M113.887 346.833C122.773 355.594 129.744 368.746 138.565 375.957C137.248 363.551 134.96 350.326 129.024 339.266C122.997 328.033 111.714 318.938 99.9331 320.008C85.3331 321.334 72.8696 338.044 70.9054 352.959C72.0799 344.034 90.7742 337.543 97.8207 338.208C108.321 358.102 111.481 397.755 111.481 397.755C121.342 375.014 118.109 357.404 113.887 346.833Z" fill="#C9BABA"/>
<path fill-rule="evenodd" clip-rule="evenodd" d="M386.855 358.003C387.939 357.963 388.993 358.366 389.775 359.119C393.952 363.141 401.228 368.343 409.258 370.829C417.177 373.28 425.358 372.996 432.397 366.963C434.074 365.525 436.599 365.72 438.037 367.397C439.475 369.074 439.28 371.599 437.603 373.037C427.842 381.404 416.523 381.453 406.892 378.471C399.141 376.071 392.183 371.649 387.262 367.582C350.735 405.246 304.812 394.067 286.036 383.485C284.111 382.4 283.431 379.96 284.515 378.036C285.6 376.111 288.04 375.431 289.964 376.515C307.387 386.336 350.558 396.596 384.024 359.328C384.749 358.52 385.771 358.042 386.855 358.003Z" fill="#592125"/>
</svg>
