<svg width="530" height="600" viewBox="0 0 530 600" fill="none" xmlns="http://www.w3.org/2000/svg">
<rect width="530" height="600" fill="#E5E5E5"/>
<rect x="-1271" y="-158" width="2500" height="1592" rx="45" fill="white"/>
<path d="M305.778 106.621C305.778 106.621 437.166 127.213 427.202 314.748C427.166 315.443 442.394 325.57 443.587 326.652C454.205 336.272 463.114 348.591 467.009 363.003C480.881 414.321 431.285 467.199 391.179 481.234C376.198 486.476 360.364 489.021 344.498 489.483C241.359 492.492 104.808 426.828 97.7949 298.59C97.5437 293.989 97.4817 289.383 97.5999 284.788C98.2216 260.439 104.088 236.725 112.93 214.706C112.927 214.707 170.328 72.0891 305.778 106.621Z" fill="#EBE4E4"/>
<path opacity="0.3" d="M364.803 325.889C364.803 325.889 385.645 306.025 401.78 324.701Z" fill="#C9BABA"/>
<path d="M170.522 422.66C98.3253 458.929 36.136 374.104 58.2178 324.985C72.3035 293.654 110.881 290.275 132.393 318.028C145.088 334.407 155.139 355.499 160.61 375.781" fill="#EBE4E4"/>
<path opacity="0.3" d="M113.887 346.833C122.773 355.594 129.744 368.745 138.565 375.957C137.248 363.551 134.96 350.326 129.024 339.266C122.997 328.033 111.714 318.938 99.9331 320.008C85.3331 321.334 72.8696 338.044 70.9054 352.959C72.0799 344.034 90.7742 337.543 97.8207 338.208C108.321 358.102 111.481 397.755 111.481 397.755C121.342 375.014 118.109 357.404 113.887 346.833Z" fill="#C9BABA"/>
<path d="M393.348 366.944C396.363 368.675 417.445 342.201 431.482 350.255C436.221 352.974 439.836 357.611 442.551 362.622C448.517 373.645 450.558 387.037 448.155 399.391C444.754 416.859 432.967 431.16 419.102 440.639C381.794 466.139 352.197 461.318 312.378 446.557C281.034 434.94 238.329 411.026 247.177 367.88C262.75 291.93 393.308 366.922 393.348 366.944Z" fill="#873C41"/>
<path d="M285.336 362.088C295.475 368.382 307.82 369.031 318.892 366.521C321.01 366.039 322.712 367.817 323.239 369.86C328.645 390.864 359.298 401.827 374.67 388.359C375.863 387.313 377.979 387.066 379.229 388.251C387.525 396.122 400.818 398.257 410.58 392.933C424.364 385.413 424.297 364.286 420.542 349.573C408.393 353.284 395.639 368.259 393.347 366.939C393.317 366.92 313.17 320.899 270.974 337.501C271.869 347.701 276.553 356.636 285.336 362.088Z" fill="white"/>
<path d="M400.293 443.788C378.37 423.671 351.414 412.435 324.083 404.462C300.706 397.641 274.384 393.221 250.722 399.989C261.687 423.523 289.902 438.22 312.377 446.553C347.21 459.464 374.221 464.768 405.409 448.829C403.71 447.143 402.053 445.404 400.293 443.788Z" fill="#EE7E8B"/>
<mask id="mask0" style="mask-type:alpha" maskUnits="userSpaceOnUse" x="245" y="333" width="205" height="126">
<path d="M393.348 366.944C396.363 368.675 417.445 342.201 431.482 350.255C436.221 352.974 439.836 357.611 442.551 362.622C448.517 373.645 450.558 387.037 448.155 399.391C444.754 416.859 432.967 431.16 419.102 440.639C381.794 466.139 352.197 461.318 312.378 446.557C281.034 434.94 238.329 411.026 247.177 367.88C262.75 291.93 393.308 366.922 393.348 366.944Z" fill="#873C41"/>
</mask>
<g mask="url(#mask0)">
<path fill-rule="evenodd" clip-rule="evenodd" d="M272.844 332.044C273.373 331.405 274.318 331.316 274.956 331.844C277.24 333.735 281.61 336.294 286.521 338.928C290.942 341.298 295.69 343.67 299.526 345.586C299.917 345.782 300.3 345.973 300.671 346.158C316.116 353.881 339.916 362.068 352.34 366.342C353.101 366.604 353.818 366.851 354.489 367.082C368.953 372.069 386.737 377.492 405.956 377.5C408.721 377.336 410.713 377.094 412.843 376.494C414.999 375.886 417.358 374.894 420.829 373.158C421.57 372.788 422.471 373.088 422.842 373.829C423.212 374.57 422.912 375.471 422.171 375.842C418.642 377.606 416.084 378.697 413.657 379.381C411.215 380.07 408.967 380.328 406.088 380.497C406.059 380.499 406.029 380.5 406 380.5C386.236 380.5 368.036 374.927 353.511 369.918C352.833 369.684 352.105 369.434 351.333 369.168C338.941 364.906 314.964 356.659 299.329 348.842C298.958 348.656 298.576 348.465 298.183 348.269C294.352 346.355 289.566 343.964 285.104 341.572C280.224 338.956 275.593 336.265 273.044 334.156C272.405 333.627 272.316 332.682 272.844 332.044Z" fill="#C4C4C4"/>
<rect x="399.664" y="372" width="12" height="12" rx="2" transform="rotate(3.16987 399.664 372)" fill="#A09E9E"/>
<rect x="349.106" y="361" width="12" height="12" rx="2" transform="rotate(15 349.106 361)" fill="#A09E9E"/>
<rect x="297.327" y="340" width="12" height="12" rx="2" transform="rotate(26.3515 297.327 340)" fill="#A09E9E"/>
</g>
</svg>
