<svg width="530" height="600" viewBox="0 0 530 600" fill="none" xmlns="http://www.w3.org/2000/svg">
<rect width="530" height="600" fill="#E5E5E5"/>
<rect x="-691" y="-158" width="2500" height="1592" rx="45" fill="white"/>
<path d="M308.778 106.621C308.778 106.621 440.166 127.213 430.202 314.748C430.166 315.443 445.394 325.57 446.587 326.652C457.205 336.272 466.114 348.591 470.009 363.003C483.881 414.321 434.285 467.199 394.179 481.234C379.198 486.476 363.364 489.021 347.498 489.483C244.359 492.492 107.808 426.828 100.795 298.59C100.544 293.989 100.482 289.383 100.6 284.788C101.222 260.439 107.088 236.725 115.93 214.706C115.927 214.707 173.328 72.0891 308.778 106.621Z" fill="#EBE4E4"/>
<path opacity="0.3" d="M367.803 325.889C367.803 325.889 388.645 306.025 404.78 324.701Z" fill="#C9BABA"/>
<path d="M173.522 422.66C101.325 458.929 39.136 374.104 61.2178 324.985C75.3035 293.654 113.881 290.275 135.393 318.028C148.088 334.407 158.139 355.499 163.61 375.781" fill="#EBE4E4"/>
<path opacity="0.3" d="M116.887 346.833C125.773 355.594 132.744 368.745 141.565 375.957C140.248 363.551 137.96 350.326 132.024 339.266C125.997 328.033 114.714 318.938 102.933 320.008C88.3331 321.334 75.8696 338.044 73.9054 352.959C75.0799 344.034 93.7742 337.543 100.821 338.208C111.321 358.102 114.481 397.755 114.481 397.755C124.342 375.014 121.109 357.404 116.887 346.833Z" fill="#C9BABA"/>
<path d="M393.348 366.944C396.363 368.675 417.445 342.201 431.482 350.255C436.221 352.974 439.836 357.611 442.551 362.622C448.517 373.645 450.558 387.037 448.155 399.391C444.754 416.859 432.967 431.16 419.102 440.639C381.794 466.139 352.197 461.318 312.378 446.557C281.035 434.94 238.33 411.026 247.177 367.88C262.75 291.93 393.309 366.922 393.348 366.944Z" fill="#873C41"/>
<path d="M285.336 362.088C295.475 368.382 307.82 369.031 318.892 366.521C321.01 366.039 322.712 367.817 323.239 369.86C328.645 390.864 359.298 401.827 374.67 388.359C375.863 387.313 377.979 387.066 379.229 388.251C387.525 396.122 400.818 398.257 410.58 392.933C424.364 385.413 424.297 364.286 420.542 349.573C408.393 353.284 395.639 368.259 393.347 366.939C393.317 366.92 313.17 320.899 270.974 337.501C271.869 347.701 276.553 356.636 285.336 362.088Z" fill="white"/>
<path d="M400.293 443.788C378.37 423.671 351.415 412.435 324.084 404.462C300.706 397.641 274.384 393.221 250.722 399.989C261.687 423.523 289.902 438.22 312.378 446.553C347.21 459.464 374.221 464.768 405.409 448.829C403.71 447.143 402.053 445.404 400.293 443.788Z" fill="#EE7E8B"/>
</svg>
