<svg width="530" height="600" viewBox="0 0 530 600" fill="none" xmlns="http://www.w3.org/2000/svg">
<rect width="530" height="600" fill="#E5E5E5"/>
<rect x="-1812" y="-146" width="2500" height="1592" rx="45" fill="white"/>
<path d="M308.778 118.621C308.778 118.621 440.166 139.213 430.202 326.748C430.166 327.443 445.394 337.57 446.587 338.652C457.205 348.272 466.114 360.591 470.009 375.003C483.881 426.321 434.285 479.199 394.179 493.234C379.198 498.476 363.364 501.021 347.498 501.483C244.359 504.492 107.808 438.828 100.795 310.59C100.544 305.989 100.482 301.383 100.6 296.788C101.222 272.439 107.088 248.725 115.93 226.706C115.927 226.707 173.328 84.0891 308.778 118.621Z" fill="#EBE4E4"/>
<path opacity="0.3" d="M367.803 337.889C367.803 337.889 388.645 318.025 404.78 336.701Z" fill="#C9BABA"/>
<path d="M173.522 434.66C101.325 470.929 39.136 386.104 61.2178 336.985C75.3035 305.654 113.881 302.275 135.393 330.028C148.088 346.407 158.139 367.499 163.61 387.781" fill="#EBE4E4"/>
<path opacity="0.3" d="M116.887 358.833C125.773 367.594 132.744 380.745 141.565 387.957C140.248 375.551 137.96 362.326 132.024 351.266C125.997 340.033 114.714 330.938 102.933 332.008C88.3331 333.334 75.8696 350.044 73.9054 364.959C75.0799 356.034 93.7742 349.543 100.821 350.208C111.321 370.102 114.481 409.755 114.481 409.755C124.342 387.014 121.109 369.404 116.887 358.833Z" fill="#C9BABA"/>
<path d="M393.348 366.944C396.363 368.675 417.445 342.201 431.482 350.255C436.221 352.974 439.836 357.611 442.551 362.622C448.517 373.645 450.558 387.037 448.155 399.391C444.754 416.859 432.967 431.16 419.102 440.639C381.794 466.139 352.197 461.318 312.378 446.557C281.034 434.94 238.329 411.026 247.177 367.88C262.75 291.93 393.308 366.922 393.348 366.944Z" fill="#873C41"/>
<path d="M318.892 366.521C307.82 369.031 295.475 368.382 285.336 362.088C276.553 356.636 271.869 347.701 270.974 337.501C297.269 327.155 338.301 341.128 365.5 353.133L352.5 392C339.653 389.891 326.527 382.634 323.239 369.86C322.712 367.817 321.01 366.039 318.892 366.521Z" fill="white"/>
<path d="M420.542 349.573C424.297 364.286 414.784 384.481 401 392C387.064 400.746 369.663 398.972 363.5 393.803L374.67 357.336C386.03 362.737 393.338 366.933 393.347 366.939C395.639 368.259 408.393 353.284 420.542 349.573Z" fill="white"/>
<path d="M400.293 443.788C378.37 423.671 351.414 412.435 324.083 404.462C300.706 397.641 274.384 393.221 250.722 399.989C261.687 423.523 289.902 438.22 312.377 446.553C347.21 459.464 374.221 464.768 405.409 448.829C403.71 447.143 402.053 445.404 400.293 443.788Z" fill="#EE7E8B"/>
</svg>
