<svg width="530" height="600" viewBox="0 0 530 600" fill="none" xmlns="http://www.w3.org/2000/svg">
<rect width="530" height="600" fill="#E5E5E5"/>
<rect x="-691" y="-845" width="2500" height="1592" rx="45" fill="white"/>
<path d="M305.778 106.621C305.778 106.621 437.166 127.213 427.202 314.748C427.166 315.443 442.394 325.57 443.587 326.652C454.205 336.272 463.114 348.592 467.009 363.003C480.881 414.322 431.285 467.199 391.179 481.234C376.198 486.476 360.364 489.021 344.498 489.483C241.359 492.492 104.808 426.828 97.7949 298.59C97.5437 293.989 97.4817 289.383 97.5999 284.788C98.2216 260.439 104.088 236.725 112.93 214.706C112.927 214.707 170.328 72.0891 305.778 106.621Z" fill="#EBE4E4"/>
<path opacity="0.3" d="M364.803 325.889C364.803 325.889 385.645 306.025 401.78 324.701Z" fill="#C9BABA"/>
<path d="M170.522 422.66C98.3253 458.929 36.136 374.104 58.2178 324.985C72.3035 293.654 110.881 290.275 132.393 318.028C145.088 334.407 155.139 355.499 160.61 375.781" fill="#EBE4E4"/>
<path opacity="0.3" d="M113.887 346.833C122.773 355.594 129.744 368.746 138.565 375.957C137.248 363.551 134.96 350.326 129.024 339.266C122.997 328.033 111.714 318.938 99.9331 320.008C85.3331 321.334 72.8696 338.044 70.9054 352.959C72.0799 344.034 90.7742 337.543 97.8207 338.208C108.321 358.102 111.481 397.755 111.481 397.755C121.342 375.014 118.109 357.404 113.887 346.833Z" fill="#C9BABA"/>
<path d="M351.722 357.794C387.427 360.077 409.5 357.794 416.621 357.794C446.607 353.303 459.423 406.229 421.781 434C410.543 442.291 405 441 381 441C356.976 441 331.007 449.95 316.5 445.863C275.378 434.278 268.157 404.508 271.847 388.124C276.839 365.96 287 353.657 351.722 357.794Z" fill="white"/>
<mask id="mask0" style="mask-type:alpha" maskUnits="userSpaceOnUse" x="271" y="357" width="174" height="90">
<path d="M351.722 357.794C387.427 360.077 409.5 357.794 416.621 357.794C446.607 353.303 459.423 406.229 421.781 434C410.543 442.291 405 441 381 441C356.976 441 331.007 449.95 316.5 445.863C275.378 434.278 268.157 404.508 271.847 388.124C276.839 365.96 287 353.657 351.722 357.794Z" fill="white"/>
</mask>
<g mask="url(#mask0)">
<path fill-rule="evenodd" clip-rule="evenodd" d="M285.823 450.002L303.275 342.63L309.197 343.592L291.746 450.964L285.823 450.002ZM363.226 464.259L367.502 354.675L373.498 354.909L369.221 464.493L363.226 464.259ZM430.037 434.468L416.409 348.124L422.336 347.189L435.963 433.532L430.037 434.468Z" fill="#D1D3D4"/>
</g>
</svg>
