<svg width="530" height="600" viewBox="0 0 530 600" fill="none" xmlns="http://www.w3.org/2000/svg">
<rect width="530" height="600" fill="#E5E5E5"/>
<rect x="-1271" y="-845" width="2500" height="1592" rx="45" fill="white"/>
<path d="M308.778 106.621C308.778 106.621 440.166 127.213 430.202 314.748C430.166 315.443 445.394 325.57 446.587 326.652C457.205 336.272 466.114 348.592 470.009 363.003C483.881 414.322 434.285 467.199 394.179 481.234C379.198 486.476 363.364 489.021 347.498 489.483C244.359 492.492 107.808 426.828 100.795 298.59C100.544 293.989 100.482 289.383 100.6 284.788C101.222 260.439 107.088 236.725 115.93 214.706C115.927 214.707 173.328 72.0891 308.778 106.621Z" fill="#EBE4E4"/>
<path opacity="0.3" d="M367.803 325.889C367.803 325.889 388.645 306.025 404.78 324.701Z" fill="#C9BABA"/>
<path d="M173.522 422.66C101.325 458.929 39.136 374.104 61.2178 324.985C75.3035 293.654 113.881 290.275 135.393 318.028C148.088 334.407 158.139 355.499 163.61 375.781" fill="#EBE4E4"/>
<path opacity="0.3" d="M116.887 346.833C125.773 355.594 132.744 368.746 141.565 375.957C140.248 363.551 137.96 350.326 132.024 339.266C125.997 328.033 114.714 318.938 102.933 320.008C88.3331 321.334 75.8696 338.044 73.9054 352.959C75.0799 344.034 93.7742 337.543 100.821 338.208C111.321 358.102 114.481 397.755 114.481 397.755C124.342 375.014 121.109 357.404 116.887 346.833Z" fill="#C9BABA"/>
<path fill-rule="evenodd" clip-rule="evenodd" d="M317 384C317 381.791 318.791 380 321 380H413C415.209 380 417 381.791 417 384C417 386.209 415.209 388 413 388H321C318.791 388 317 386.209 317 384Z" fill="#592125"/>
</svg>
