<svg width="530" height="600" viewBox="0 0 530 600" fill="none" xmlns="http://www.w3.org/2000/svg">
<rect width="530" height="600" fill="#E5E5E5"/>
<rect x="-137" y="-845" width="2500" height="1592" rx="45" fill="white"/>
<path d="M305.778 106.621C305.778 106.621 437.166 127.213 427.202 314.748C427.166 315.443 442.394 325.57 443.587 326.652C454.205 336.272 463.114 348.592 467.009 363.003C480.881 414.322 431.285 467.199 391.179 481.234C376.198 486.476 360.364 489.021 344.498 489.483C241.359 492.492 104.808 426.828 97.7949 298.59C97.5437 293.989 97.4817 289.383 97.5999 284.788C98.2216 260.439 104.088 236.725 112.93 214.706C112.927 214.707 170.328 72.0891 305.778 106.621Z" fill="#EBE4E4"/>
<path opacity="0.3" d="M364.803 325.889C364.803 325.889 385.645 306.025 401.78 324.701Z" fill="#C9BABA"/>
<path d="M170.522 422.66C98.3253 458.929 36.136 374.104 58.2178 324.985C72.3035 293.654 110.881 290.275 132.393 318.028C145.088 334.407 155.139 355.499 160.61 375.781" fill="#EBE4E4"/>
<path opacity="0.3" d="M113.887 346.833C122.773 355.594 129.744 368.746 138.565 375.957C137.248 363.551 134.96 350.326 129.024 339.266C122.997 328.033 111.714 318.938 99.9331 320.008C85.3331 321.334 72.8696 338.044 70.9054 352.959C72.0799 344.034 90.7742 337.543 97.8207 338.208C108.321 358.102 111.481 397.755 111.481 397.755C121.342 375.014 118.109 357.404 113.887 346.833Z" fill="#C9BABA"/>
<path d="M385.305 380.359C394.659 380.618 403.628 377.943 411.353 369.915C415.395 365.718 419.494 363.408 425.293 366.998C439.178 375.596 442.447 397.075 438.715 411.477C434.617 427.28 422.273 440.021 408.048 448.33C369.768 470.69 340.407 465.658 301.237 451.365C270.404 440.117 228.72 417.444 239.286 378.422C252.371 330.107 308.763 353.304 340.581 366.338C354.092 371.877 370.2 379.94 385.305 380.359Z" fill="white"/>
<mask id="mask0" style="mask-type:alpha" maskUnits="userSpaceOnUse" x="237" y="349" width="204" height="115">
<path d="M385.305 380.359C394.659 380.618 403.628 377.943 411.353 369.915C415.395 365.718 419.494 363.408 425.293 366.998C439.178 375.596 442.447 397.075 438.715 411.477C434.617 427.28 422.273 440.021 408.048 448.33C369.768 470.69 340.407 465.658 301.237 451.365C270.404 440.117 228.72 417.444 239.286 378.422C252.371 330.107 308.763 353.304 340.581 366.338C354.092 371.877 370.2 379.94 385.305 380.359Z" fill="white"/>
</mask>
<g mask="url(#mask0)">
<path fill-rule="evenodd" clip-rule="evenodd" d="M257.597 434.026L297.669 332.894L303.247 335.105L263.175 436.236L257.597 434.026ZM339.937 466.702L367.616 360.585L373.421 362.099L345.743 468.216L339.937 466.702ZM422.317 441.08L407.044 363.28L412.932 362.125L428.204 439.924L422.317 441.08Z" fill="#D1D3D4"/>
</g>
</svg>
