<svg xmlns="http://www.w3.org/2000/svg" width="305.389" height="180.003" viewBox="0 0 305.389 180.003">
  <g id="bottom_corner" transform="translate(1828.566 -1819.997) rotate(-180)">
    <path id="Path_408" data-name="Path 408" d="M1524.612-1999.523a49.2,49.2,0,0,0-1.285,6.777,48.039,48.039,0,0,0,.435,11.088c1.762,10.2,6.8,21.574,15.17,34.341,2.819,4.311,6.238,9.078,12.7,17.782,11.709,15.771,13.6,18.611,19.834,30.051.912,1.658,8.538,16.932,9.491,19a6.066,6.066,0,0,0,.767,1.43c.1-.083-1.679-8.684-2.86-13.8a191.111,191.111,0,0,0-7.44-24.662c-1.72-4.663-1.907-5.14-6.114-15.75-5.823-14.715-6.611-16.829-8.911-23.854-5.015-15.336-7.233-27.875-6.86-38.8l.145-4.083H1524.8Z" transform="translate(0 0)" fill="#cf8a28"/>
    <path id="Path_409" data-name="Path 409" d="M1656.569-1999.234a67.744,67.744,0,0,0-.166,10.719c.662,10.222,3,20.775,7.345,33.233,1.883,5.421,3,8.4,7.2,19.017,10.51,26.673,12.475,32.984,17.234,55.457l1.386,6.518,1.759,3.414c8.235,15.913,14.5,25.183,22.324,32.984a58.434,58.434,0,0,0,26.814,15.726,59.125,59.125,0,0,0,16.51,2.131,55.68,55.68,0,0,0,8.483-.228c10.676-1.3,19.9-5.153,29.317-12.209,8.048-6.021,16.448-15.271,23.276-25.618,2.193-3.311,8.71-14.03,8.607-14.154-.041-.021-.993-.269-2.11-.5-5.338-1.159-10.283-3.456-16.78-7.76a80.686,80.686,0,0,1-14.151-11.464c-8.462-8.65-12.414-16.471-13.8-27.232-.786-6.249-.145-18.562,1.366-25.99a41.545,41.545,0,0,1,5.317-13.781c3.062-4.863,8.793-10.2,14.731-13.761a126.688,126.688,0,0,1,24.124-10.3c8.069-2.194,14.875-1.862,21.558,1.056a34.463,34.463,0,0,1,11.048,7.615,36.1,36.1,0,0,1,8.751,13.7l.725,2.152,2.648.538c3.228.642,3.91.848,5.731,1.8,4.283,2.235,6.062,6.353,5.5,12.768a37.888,37.888,0,0,1-1.7,8.38c-1.841,4.677-6.455,8.4-12.145,9.85a19.473,19.473,0,0,0-2.027.58c-.062.042-.31,1.883-.6,4.1-.269,2.194-.745,5.422-1.034,7.16a29.45,29.45,0,0,0-.435,3.29,11.782,11.782,0,0,0,2.3-.745c2.959-1.159,5.938-2.235,11.607-4.159,2.627-.89,6.269-2.131,8.11-2.772,19.738-6.767,30.166-12.582,39.29-21.893a54.885,54.885,0,0,0,8.338-10.491l1.055-1.738V-2000H1656.693Zm83.4,14.258a1.836,1.836,0,0,1-.145,2.586,1.759,1.759,0,0,1-3.041-.952A1.836,1.836,0,0,1,1739.969-1984.977Zm18.455,7.739c1.676.6,1.862.911,1.862,3.187,0,3.1-.827,4.739-2.938,5.794-1.635.828-3.124.662-3.683-.414a5.512,5.512,0,0,1,.311-3.476c.31-.89.31-1.055.062-1.242a2.02,2.02,0,0,1-.7-1.9,3.794,3.794,0,0,1,1.862-2.152A4.951,4.951,0,0,1,1758.424-1977.238Zm-33.414,1.945a3.79,3.79,0,0,1,.683,3.042c-.187,1.863-1.9,3.911-3.269,3.911a2.015,2.015,0,0,1-1.738-1.345c-.1-.413-.269-.518-.765-.518a1.992,1.992,0,0,1-2.048-2.607,2.317,2.317,0,0,1,1.7-1.324,1.414,1.414,0,0,0,.7-.435,3.421,3.421,0,0,1,2.938-1.221C1724.307-1975.789,1724.6-1975.707,1725.01-1975.293Zm16.635,5.5c1.365.724.89,3.518-.6,3.518a.371.371,0,0,0-.414.414,4.846,4.846,0,0,1-2.317,3.435,4.56,4.56,0,0,1-3.683-.186c-1.159-.766-1.241-1.8-.29-3.663.579-1.2,3.29-3.663,4.324-3.932A6.53,6.53,0,0,1,1741.645-1969.788Zm20.586,11.381a2.32,2.32,0,0,1,1.159,1.945,2.361,2.361,0,0,1-.476,1.1,3.272,3.272,0,0,0-.621,1.656c-.331,2.959-2.421,5.214-4.283,4.635-.869-.269-1.345-.89-1.7-2.173-.517-1.966.662-4.718,2.648-6.167C1760.452-1958.49,1761.321-1958.76,1762.231-1958.407Zm-46.179,1.262c.58.58.621.7.517,1.718a6.845,6.845,0,0,1-2.876,4.8,1.823,1.823,0,0,1-2.669-.89,12.189,12.189,0,0,1,.559-4.78,5.661,5.661,0,0,1,3.145-1.469A1.579,1.579,0,0,1,1716.052-1957.145Zm13.1,1.345a14.391,14.391,0,0,0,1.634.6,2.054,2.054,0,0,1,1.593,1.759,19.636,19.636,0,0,1-.455,3.787,5.9,5.9,0,0,1-2.917,3.1,4.331,4.331,0,0,1-5.607-1.117,5.205,5.205,0,0,1,1.345-8.153,3.312,3.312,0,0,1,2.338-.435A8.793,8.793,0,0,1,1729.148-1955.8Zm19.3,3.063a3.6,3.6,0,0,1,.7,1.573,5.75,5.75,0,0,1-3.393,6.042c-2.627,1.324-4.51.248-4.241-2.442a7.281,7.281,0,0,1,3.455-5.3,2.241,2.241,0,0,1,1.965-.476A2.829,2.829,0,0,1,1748.451-1952.738Zm-45.91,2.917c.89.455,1.138,1.242.848,2.793-.621,3.456-2.565,5.132-4.883,4.242a2.007,2.007,0,0,1-1.407-2.566,5.789,5.789,0,0,0,.125-1.262,3.559,3.559,0,0,1,.186-.952c.145-.5.538-.807,2.007-1.594C1701.4-1950.213,1701.693-1950.275,1702.541-1949.82Zm57.787,8.567a7.033,7.033,0,0,0,1.551,1.159,18.336,18.336,0,0,1,1.676,1.076,4.177,4.177,0,0,1,.186,6.229,5.2,5.2,0,0,1-3.972,1.656,4.817,4.817,0,0,1-2.751-.373,4.713,4.713,0,0,1-2.959-4.428,4.436,4.436,0,0,1,1.8-3.621,8.4,8.4,0,0,0,1.366-1.49A1.855,1.855,0,0,1,1760.328-1941.253Zm-43.221,2.979a2.311,2.311,0,0,1,.972.848c.269.5.248.766-.041,2.193-.641,3.146-2.38,5.649-4.282,6.229-2.173.641-5.069-1.593-4.366-3.414a10.531,10.531,0,0,1,1.49-1.9c.7-.786,1.614-1.821,1.986-2.318a3.214,3.214,0,0,1,1.241-.993,4.156,4.156,0,0,0,.972-.394,4.677,4.677,0,0,1,.827-.372,2.788,2.788,0,0,0,.476-.124A7.343,7.343,0,0,1,1717.107-1938.274Zm15.7,5.525c.621,0,1.614,1.117,1.614,1.8,0,1.8-1.366,3.663-3.517,4.78-1.635.828-2.338.849-3.124.062-.993-1.014-.745-2.483.848-4.822,1.2-1.779,1.655-2.069,2.876-1.924C1732-1932.79,1732.6-1932.748,1732.81-1932.748Zm-32.421.745c1.1,1.179,1.241,1.718.848,3.063a6.686,6.686,0,0,1-3.455,3.662c-1.366.683-2.152.745-2.834.269-.766-.538-.911-1.2-.559-2.69a6.354,6.354,0,0,1,1.9-3.622c1.2-1.138,1.738-1.427,2.607-1.427A1.64,1.64,0,0,1,1700.389-1932Zm46.345,2.193c.517.621.559.766.476,2.338-.062,1.469-.145,1.78-.642,2.442a6.553,6.553,0,0,1-1.655,1.386,2.419,2.419,0,0,1-2.007.5c-1.2-.166-1.572-.373-1.965-1.117a4.209,4.209,0,0,1,.848-4.47,6.516,6.516,0,0,1,3.641-1.717A1.346,1.346,0,0,1,1746.734-1929.81Zm-15.89,10.408c.662.662.724.807.579,1.511a13.308,13.308,0,0,0-.186,1.7,2.141,2.141,0,0,1-1.055,2.028,1.812,1.812,0,0,0-.662,1.138,3.513,3.513,0,0,1-2.9,2.711c-2.007.476-2.814.434-3.559-.207a1.431,1.431,0,0,1-.642-1.3c0-.848.889-2.483,2.152-3.994.414-.5,1.034-1.3,1.407-1.8.848-1.138,2.752-2.483,3.559-2.5A1.955,1.955,0,0,1,1730.845-1919.4Zm-17.69,2.939a2.875,2.875,0,0,1,1.262,2.752,6.947,6.947,0,0,1-1.076,3.29c-1.2,2.462-1.573,2.938-3.021,3.766a4.127,4.127,0,0,1-5.669-1.241c-1.366-2.5.476-6.5,3.931-8.484a3.094,3.094,0,0,1,2.565-.5A6.773,6.773,0,0,1,1713.155-1916.463Zm37.034,1.51c.621.642.621.662.517,2.3-.186,2.628-.931,3.766-3.145,4.884a9.5,9.5,0,0,1-1.965.683c-2.731.6-4.593-1.076-3.29-3,.228-.352.641-1.055.91-1.594a8.156,8.156,0,0,1,4.407-3.6C1748.865-1915.718,1749.486-1915.636,1750.189-1914.953Zm-17.669,11.443a1.869,1.869,0,0,1,.848,2.214,14.183,14.183,0,0,0-.165,1.862,8.705,8.705,0,0,1-1.3,4.3,13.259,13.259,0,0,1-3.724,3.663c-2.11.869-3.889-.083-4.821-2.587-.662-1.759-.641-2.069.373-3.952a17.662,17.662,0,0,0,1.179-2.627,2,2,0,0,1,1.035-1.387,4.359,4.359,0,0,0,.931-.724,4.125,4.125,0,0,1,2.255-.848,3.751,3.751,0,0,0,1.055-.166A3.638,3.638,0,0,1,1732.521-1903.509Zm-19.262,4.718a4.567,4.567,0,0,1,2.545,3.352,9.319,9.319,0,0,1-.931,2.338,10.792,10.792,0,0,0-.931,2.173,9.094,9.094,0,0,1-1.676,3.724c-1.986,2.669-4.9,4.056-6.952,3.269a4.954,4.954,0,0,1-2.648-3.435c-.352-1.717,1.221-4.469,3.766-6.559a8.374,8.374,0,0,0,1.758-1.842,7.067,7.067,0,0,1,2.69-2.814A2.483,2.483,0,0,1,1713.258-1898.792Zm36.373,4.511a5.9,5.9,0,0,1,2.71,2.359,5.982,5.982,0,0,1-2.152,7.511,4.257,4.257,0,0,0-1.283,1.3c-1.842,3.621-5.9,4.739-8.214,2.256a11.658,11.658,0,0,1-1.862-4.946,8.466,8.466,0,0,1,5.9-8.794A8.586,8.586,0,0,1,1749.631-1894.281Z" transform="translate(-105.513 0)" fill="#cf8a28"/>
    <path id="Path_410" data-name="Path 410" d="M2306.079-1917.351a51.5,51.5,0,0,0-8.7,2.425c-23.315,7.979-34.134,17.906-37.906,34.776-2.01,8.953-2.445,21.118-1.057,28.766a42.739,42.739,0,0,0,8.767,19.295,126.526,126.526,0,0,0,9.678,9.844c8.518,7.378,16.787,11.938,25.015,13.782,1.326.29,2.445.539,2.487.539a22.588,22.588,0,0,0,1.534-2.342,114.476,114.476,0,0,1,16.227-21.491,61.337,61.337,0,0,1,15.585-11.461l1.368-.746.436-2.549c.414-2.425,1.326-8.828,1.6-11.461l.145-1.243-2.155-.042c-7.191-.145-12.207-4.228-14.176-11.564a18.343,18.343,0,0,1-.394-5.078,17.063,17.063,0,0,1,.56-5.72c1.617-6.217,4.953-9.823,10.466-11.295a15.778,15.778,0,0,1,4.559-.477,14.046,14.046,0,0,0,2.964-.166,38.686,38.686,0,0,0-2.28-5.761,35.425,35.425,0,0,0-15.958-15.5,26.458,26.458,0,0,0-12.539-2.86A26.987,26.987,0,0,0,2306.079-1917.351Z" transform="translate(-582.545 -65.24)" fill="#cf8a28"/>
  </g>
</svg>
