<svg xmlns="http://www.w3.org/2000/svg" width="339.398" height="601.436" viewBox="0 0 339.398 601.436">
  <g id="top_corner" transform="translate(-1435.334 1.436)">
    <path id="Path_462" data-name="Path 462" d="M1435.334,0s13.654,197.411,78.023,307.472,113.362,134.87,179.452,132.772,81.924-69.88,81.924-69.88V0Z" fill="#f4e2d6"/>
    <path id="Path_463" data-name="Path 463" d="M1920,160.848s-110.472,5.913-141.782,37.45,33.384,44.344,14.886,72.93-39.578,20.511-45.977,48.922,31.945,46.885,45.977,54.14,26.033,22.579,0,46.77-25.636,14.424-71.12,32.82-69.673,27.923-58.716,59.789,71.93,19.211,67.586,37.845,79.246,22.651,126.533,23.464S1920,554.769,1920,554.769Z" transform="translate(-145.267 -72.439)" fill="#c2d3e7"/>
    <path id="Path_561" data-name="Path 561" d="M1569.1,0s66.47,19.983,76.317,85.765-27.459,112.067-14.2,155.521,78.588,85.765,110.781,69.756,63.73,7.5,82.9,39.8,7.046,60.831-6.21,89.419c-13.056,27.16-38.074,44.279-31.043,65.59,13.894,42.117,73.176,67.974,73.176,67.974" transform="translate(-87.792)" fill="none" stroke="#fff" stroke-width="3"/>
    <g id="dots" transform="translate(1598.3 329.246)">
      <path id="Path_513" data-name="Path 513" d="M7230.588-2106.633a4.543,4.543,0,0,0-1.588,2.975c0,1.419,2.94,2.636,4.293,1.791a3.8,3.8,0,0,0,1.082-3.414A2.6,2.6,0,0,0,7230.588-2106.633Z" transform="translate(-7114.281 2107.008)"/>
      <path id="Path_520" data-name="Path 520" d="M7275.825-2083.632a3.2,3.2,0,0,0-1.825,2.67c0,2.163,3.245,3.549,4.732,2.062.812-.812.845-1.724.1-3.279-.405-.913-1.724-1.927-2.23-1.758A6.047,6.047,0,0,0,7275.825-2083.632Z" transform="translate(-7144.07 2091.747)"/>
      <path id="Path_543" data-name="Path 543" d="M7336.14-2081.053c-.913.811-1.015,1.081-.812,2.028.271,1.25,1.927,2.772,3.009,2.772,1.42,0,2.467-1.724,2.3-3.786-.068-.541-2.3-1.961-3.077-1.961A4.243,4.243,0,0,0,7336.14-2081.053Z" transform="translate(-7184.611 2090.453)"/>
      <path id="Path_471" data-name="Path 471" d="M7180.837-2076.206c-1.048,1.115-.913,2.163.405,3.481,1.961,1.96,4.259,1.183,4.259-1.487,0-1.453-.2-1.859-1.25-2.4A2.923,2.923,0,0,0,7180.837-2076.206Z" transform="translate(-7081.937 2087.126)"/>
      <path id="Path_472" data-name="Path 472" d="M7114.75-2057.121c-1.589,2.028-.3,4.191,2.535,4.191,1.689,0,2.162-.575,2.162-2.5a2.377,2.377,0,0,0-2.669-2.569A2.126,2.126,0,0,0,7114.75-2057.121Z" transform="translate(-7038.192 2074.565)"/>
      <path id="Path_544" data-name="Path 544" d="M7385.041-2036.636c-2.062.271-2.975,3.245-1.318,4.327,2.367,1.555,4.767.676,4.7-1.724a2.461,2.461,0,0,0-.946-2.062,2.476,2.476,0,0,0-1.116-.71C7386.224-2036.805,7385.616-2036.7,7385.041-2036.636Z" transform="translate(-7216.139 2060.536)"/>
      <path id="Path_521" data-name="Path 521" d="M7262.131-2033.355a3.607,3.607,0,0,0-1.825,3.38c.271,1.048,2.163,1.994,3.38,1.69a3.277,3.277,0,0,0,2.063-2.636c.2-.744.034-1.115-.777-1.96C7263.821-2034.031,7263.449-2034.1,7262.131-2033.355Z" transform="translate(-7134.973 2058.573)"/>
      <path id="Path_473" data-name="Path 473" d="M7216.687-2017.664c-1.858.777-1.655,3.583.338,4.6,1.15.608,1.894.439,3.11-.71a2.565,2.565,0,0,0,.338-3.482C7219.933-2018.07,7218.175-2018.239,7216.687-2017.664Z" transform="translate(-7105.28 2048.088)"/>
      <path id="Path_474" data-name="Path 474" d="M7065.183-2016.38c-.98.609-1.183.98-1.183,2.569a2.116,2.116,0,0,0,.879,2.1,1.972,1.972,0,0,0,3.009-.068c1.114-.947,1.554-3.549.743-4.225A3.917,3.917,0,0,0,7065.183-2016.38Z" transform="translate(-7005.053 2047.175)"/>
      <path id="Path_532" data-name="Path 532" d="M7317.727-2016.331c-1.79.946-2.062,2.366-.743,4.09a2.148,2.148,0,0,0,2.028,1.115c2.129,0,2.975-1.589,2.129-4.022C7320.533-2016.838,7319.384-2017.243,7317.727-2016.331Z" transform="translate(-7171.978 2047.295)"/>
      <path id="Path_475" data-name="Path 475" d="M7160.892-2009.291c-3.042,1.521-1.521,5.273,1.893,4.631,2.333-.439,2.873-2.5,1.149-4.259C7162.784-2010.069,7162.446-2010.1,7160.892-2009.291Z" transform="translate(-7068.109 2042.689)"/>
      <path id="Path_476" data-name="Path 476" d="M7020.581-1997.4a3.371,3.371,0,0,0-.946,1.521,2.522,2.522,0,0,0,1.859,3.481c1.184.372,1.42.372,2.163-.2,1.284-.946,1.589-1.589,1.217-2.636C7024.266-1996.858,7021.8-1998.108,7020.581-1997.4Z" transform="translate(-6975.56 2034.582)"/>
      <path id="Path_477" data-name="Path 477" d="M7113.674-1981.432a2.208,2.208,0,0,0-.98,3.211c.947,1.96,2.94,2.2,4.7.608a2.893,2.893,0,0,0,.169-3.279C7117.054-1981.567,7114.79-1981.905,7113.674-1981.432Z" transform="translate(-7037.083 2024.024)"/>
      <path id="Path_533" data-name="Path 533" d="M7299.163-1965.537a3.115,3.115,0,0,0-1.251,1.487,2.4,2.4,0,0,0,1.353,3.482,2.488,2.488,0,0,0,3.516-.947,1.773,1.773,0,0,0,.033-1.994,4.068,4.068,0,0,0-1.487-1.724C7300.144-1965.942,7300.211-1965.942,7299.163-1965.537Z" transform="translate(-7159.702 2013.537)"/>
      <path id="Path_545" data-name="Path 545" d="M7373.318-1964.485a3.739,3.739,0,0,0-1.318,2.738c0,.98,1.825,2.569,2.94,2.569a2.886,2.886,0,0,0,2.468-2.23C7377.408-1963.876,7374.94-1965.735,7373.318-1964.485Z" transform="translate(-7208.945 2012.924)"/>
      <path id="Path_514" data-name="Path 514" d="M7240.69-1963.463c-1.082.744-1.015,2.805.135,4.157,1.318,1.555,3.008,1.284,4.022-.642.709-1.386.643-1.825-.474-3.008A2.624,2.624,0,0,0,7240.69-1963.463Z" transform="translate(-7121.509 2012.342)"/>
      <path id="Path_465" data-name="Path 465" d="M6975.148-1958.791a3.569,3.569,0,0,0-1.148,2.5,2.5,2.5,0,0,0,2.4,2.468,2.647,2.647,0,0,0,3.076-1.622C6980.422-1957.27,6976.94-1960.008,6975.148-1958.791Z" transform="translate(-6945.474 2009.089)"/>
      <path id="Path_478" data-name="Path 478" d="M7173.859-1958.388c-1.318.71-1.859,1.42-1.859,2.5,0,1.69,2.535,3.11,3.921,2.2,1.928-1.251,2.266-3.11.812-4.563C7175.92-1959.064,7175.211-1959.1,7173.859-1958.388Z" transform="translate(-7076.547 2008.957)"/>
      <path id="Path_479" data-name="Path 479" d="M7083.393-1934.769c-1.453,1.318-1.792,3.481-.643,4.293a3.264,3.264,0,0,0,3.617-.068,3.311,3.311,0,0,0,.878-1.825,1.978,1.978,0,0,0-.54-2.062C7085.488-1935.783,7084.609-1935.85,7083.393-1934.769Z" transform="translate(-7017.009 1993.484)"/>
      <path id="Path_480" data-name="Path 480" d="M7026.335-1933.261c-1.59.777-1.826,2.5-.508,4.09,1.386,1.623,3.414,1.352,4.226-.608a2.458,2.458,0,0,0-1.115-3.346C7027.584-1934,7027.787-1934,7026.335-1933.261Z" transform="translate(-6979.217 1992.348)"/>
      <path id="Path_481" data-name="Path 481" d="M7209.767-1914.918c-.845,1.42-.845,2.332.034,3.448.946,1.217,2.434,1.183,3.718-.1,1.994-1.994,1.014-4.428-1.791-4.428A1.8,1.8,0,0,0,7209.767-1914.918Z" transform="translate(-7101.131 1980.563)"/>
      <path id="Path_482" data-name="Path 482" d="M7140.4-1910.322a2.39,2.39,0,0,0-.812,2.1c-.034,1.318.1,1.555,1.115,2.265,1.386.947,1.589.947,3.008.1,1.318-.812,1.454-2.062.306-3.752A2.348,2.348,0,0,0,7140.4-1910.322Z" transform="translate(-7055.089 1977.183)"/>
      <path id="Path_546" data-name="Path 546" d="M7385.438-1910.6c-1.589.642-1.927,3.617-.54,4.7a2.087,2.087,0,0,0,3.313-.338c1.588-1.893,1.452-3.684-.339-4.36A2.585,2.585,0,0,0,7385.438-1910.6Z" transform="translate(-7216.908 1977.187)"/>
      <path id="Path_534" data-name="Path 534" d="M7316.43-1904.189c-.642.98-.743,3.38-.169,4.09.643.777,2.84.642,3.921-.271.812-.71.879-.913.643-2.2a2.523,2.523,0,0,0-2.772-2.434A1.7,1.7,0,0,0,7316.43-1904.189Z" transform="translate(-7171.796 1973.281)"/>
      <path id="Path_466" data-name="Path 466" d="M6982.133-1899.748c-.98.642-1.521,3.346-.879,4.36.812,1.251,3.752,1.116,4.462-.237a3.127,3.127,0,0,0-.507-3.549A2.652,2.652,0,0,0,6982.133-1899.748Z" transform="translate(-6950.091 1969.99)"/>
      <path id="Path_522" data-name="Path 522" d="M7260.908-1889.224c-.811.71-.879.913-.643,2.2a2.524,2.524,0,0,0,2.772,2.434,1.723,1.723,0,0,0,1.656-.845c.676-1.014.743-3.312.135-4.056C7264.187-1890.272,7261.99-1890.136,7260.908-1889.224Z" transform="translate(-7134.899 1963.352)"/>
      <path id="Path_464" data-name="Path 464" d="M6931.767-1884.918c-.846,1.42-.846,2.332.033,3.448,1.252,1.589,3.854.811,4.632-1.386.642-1.859-.508-3.144-2.772-3.144A1.775,1.775,0,0,0,6931.767-1884.918Z" transform="translate(-6917.098 1960.703)"/>
      <path id="Path_483" data-name="Path 483" d="M7064.314-1874.306c-1.014.135-1.723,1.048-1.994,2.5a1.783,1.783,0,0,0,.643,2.1c1.623,1.656,3.955.744,4.462-1.758C7067.8-1873.359,7066.444-1874.644,7064.314-1874.306Z" transform="translate(-7003.88 1952.997)"/>
      <path id="Path_484" data-name="Path 484" d="M7199.71-1865.263a3.139,3.139,0,0,0-.169,3.617,3.4,3.4,0,0,0,3.549.777,3.642,3.642,0,0,0,1.183-1.352c.677-1.284.169-2.468-1.352-3.211C7201.434-1866.108,7200.521-1866.074,7199.71-1865.263Z" transform="translate(-7094.455 1947.402)"/>
      <path id="Path_485" data-name="Path 485" d="M7143.23-1856.74c-1.284,1.284-1.386,1.825-.642,3.245a1.924,1.924,0,0,0,2.737,1.014c2.907-1.115,3.313-3.617.811-4.9C7144.752-1858.093,7144.515-1858.025,7143.23-1856.74Z" transform="translate(-7056.77 1942.057)"/>
      <path id="Path_547" data-name="Path 547" d="M7368.322-1854.182a3.755,3.755,0,0,0-1.082,1.859c-.2.947-.067,1.251.878,2.13a3.485,3.485,0,0,0,2.029,1.014c.946,0,2.7-1.318,2.7-2.062a4.993,4.993,0,0,0-2.062-3.177C7369.538-1855.095,7369.336-1855.061,7368.322-1854.182Z" transform="translate(-7205.74 1940.107)"/>
      <path id="Path_467" data-name="Path 467" d="M7005.98-1841.477a2.564,2.564,0,0,0-1.318.98,2.788,2.788,0,0,0,.946,3.583c.777.608,1.015.608,2.3.237a2.5,2.5,0,0,0,2.063-2.806C7009.969-1840.868,7008.008-1841.882,7005.98-1841.477Z" transform="translate(-6965.556 1931.289)"/>
      <path id="Path_535" data-name="Path 535" d="M7314.042-1835.636c-2.062.271-2.975,3.245-1.319,4.327,2.367,1.555,4.767.676,4.7-1.724a2.458,2.458,0,0,0-.946-2.062,2.474,2.474,0,0,0-1.116-.71C7315.224-1835.8,7314.616-1835.7,7314.042-1835.636Z" transform="translate(-7169.138 1927.476)"/>
      <path id="Path_515" data-name="Path 515" d="M7243.9-1828.942c-1.217,1.42-1.149,2.738.169,3.82,1.251,1.048,2.265,1.115,3.481.169a2.371,2.371,0,0,0,.338-3.346C7246.536-1830.294,7245.218-1830.531,7243.9-1828.942Z" transform="translate(-7123.569 1923.622)"/>
      <path id="Path_486" data-name="Path 486" d="M7099.05-1825.522A1.967,1.967,0,0,0,7097.8-1824c-.575,2.028.474,3.144,2.94,3.144,2.3,0,3.245-2.265,1.724-4.191C7101.72-1826,7100.706-1826.131,7099.05-1825.522Z" transform="translate(-7027.325 1920.912)"/>
      <path id="Path_468" data-name="Path 468" d="M6941.588-1823.589a4.544,4.544,0,0,0-1.589,3.009,2.4,2.4,0,0,0,2.569,2.028c1.859,0,2.434-.473,2.7-2.231.169-1.318.1-1.656-.575-2.366A2.509,2.509,0,0,0,6941.588-1823.589Z" transform="translate(-6922.965 1919.62)"/>
      <path id="Path_487" data-name="Path 487" d="M7191.149-1809.714a2.977,2.977,0,0,0-1.149,2.332c0,1.42.541,1.927,2.3,2.163,1.656.237,2.6-.608,2.975-2.468.2-1.149.135-1.352-.845-2.231C7193.042-1811.134,7192.535-1811.1,7191.149-1809.714Z" transform="translate(-7088.463 1910.917)"/>
      <path id="Path_523" data-name="Path 523" d="M7282.614-1790.259c-2,.744-2.637,4.056-1.015,5.138a3.782,3.782,0,0,0,3.584-.406C7287.075-1787.42,7285.048-1791.138,7282.614-1790.259Z" transform="translate(-7148.493 1897.411)"/>
      <path id="Path_488" data-name="Path 488" d="M7067.943-1782.355a2.727,2.727,0,0,0-.812,4.09c.439.609,3.313.541,4.226-.1,1.048-.71,1.015-2.468-.1-3.651C7070.344-1783,7069.329-1783.1,7067.943-1782.355Z" transform="translate(-7006.731 1892.415)"/>
      <path id="Path_549" data-name="Path 549" d="M7353.709-1780.254a2.752,2.752,0,0,0-1.048,4.631,2.735,2.735,0,0,0,3.785-.034c.913-.743.913-.845.541-2.129C7356.413-1779.747,7355.061-1780.761,7353.709-1780.254Z" transform="translate(-7195.554 1890.786)"/>
      <path id="Path_469" data-name="Path 469" d="M6899.757-1779.375a4.987,4.987,0,0,0-1.757,3.008c0,1.014,1.284,1.859,2.839,1.859,1.758,0,2.265-.473,2.468-2.468.169-1.318.067-1.555-.743-2.2C6901.447-1780.051,6900.771-1780.084,6899.757-1779.375Z" transform="translate(-6895.163 1890.448)"/>
      <path id="Path_470" data-name="Path 470" d="M7014.32-1778.339a2.8,2.8,0,0,0-1.521,2.738,2.974,2.974,0,0,0,2.806,2.636c1.115,0,2.671-1.183,2.671-2.062a3.739,3.739,0,0,0-1.928-3.008C7015.063-1778.678,7015.165-1778.678,7014.32-1778.339Z" transform="translate(-6971.158 1889.582)"/>
      <path id="Path_489" data-name="Path 489" d="M7143.811-1775.978c-1.42,1.284-1.487,2.941-.2,4.056a2.709,2.709,0,0,0,4.259-.609c.507-.913-.135-2.805-1.25-3.684C7145.467-1777.094,7145.027-1777.06,7143.811-1775.978Z" transform="translate(-7057.146 1888.437)"/>
      <path id="Path_516" data-name="Path 516" d="M7229.345-1773.515c-.743.372-.845.642-.845,2.163a3.625,3.625,0,0,0,.643,2.434c1.217,1.352,3.516.642,4.191-1.217a2.814,2.814,0,0,0-.913-3.076A2.369,2.369,0,0,0,7229.345-1773.515Z" transform="translate(-7113.95 1886.514)"/>
      <path id="Path_490" data-name="Path 490" d="M6960.163-1762.427a3.545,3.545,0,0,0-2.163,2.67c0,1.115,1.521,2.265,3.008,2.265,1.149,0,1.42-.169,2.063-1.183a2.572,2.572,0,0,0-.339-3.549C6961.954-1763,6961.583-1763.035,6960.163-1762.427Z" transform="translate(-6934.882 1879.178)"/>
      <path id="Path_536" data-name="Path 536" d="M7298.916-1739.289a3.6,3.6,0,0,0-1.318,1.183c-.541.811-.541.98-.033,2.028a3.593,3.593,0,0,0,3.48,2.062c1.049-.27,1.994-2.163,1.69-3.38A3.142,3.142,0,0,0,7298.916-1739.289Z" transform="translate(-7159.42 1863.68)"/>
      <path id="Path_550" data-name="Path 550" d="M7396.521-1732.574a2.584,2.584,0,0,0-1.521,2.5c0,1.555.744,2.163,2.671,2.163,1.96,0,2.4-.406,2.4-2.265C7400.07-1732.507,7398.414-1733.622,7396.521-1732.574Z" transform="translate(-7224.171 1859.398)"/>
      <path id="Path_491" data-name="Path 491" d="M7060.555-1724.383a5.341,5.341,0,0,0-.371,3.955c.574,1.487,3.65,1.115,4.529-.541a3.43,3.43,0,0,0-1.015-3.684A2.892,2.892,0,0,0,7060.555-1724.383Z" transform="translate(-7002.386 1854.114)"/>
      <path id="Path_492" data-name="Path 492" d="M6994.929-1723.358c-1.623.676-1.521,3.786.169,4.7a3.552,3.552,0,0,0,3.785-1.183c.541-1.217.474-2.332-.2-2.941A4.573,4.573,0,0,0,6994.929-1723.358Z" transform="translate(-6958.56 1853.157)"/>
      <path id="Path_493" data-name="Path 493" d="M7223.153-1723.2c-2.1,2.1-.608,5.678,1.96,4.732,2.23-.879,3.178-3.211,1.758-4.5A2.931,2.931,0,0,0,7223.153-1723.2Z" transform="translate(-7109.752 1853.301)"/>
      <path id="Path_494" data-name="Path 494" d="M7163.048-1719.057c-1.047,1.014-.912,2.163.474,3.583,1.555,1.69,3.752,1.082,4.293-1.149a2.216,2.216,0,0,0-1.184-2.805A2.782,2.782,0,0,0,7163.048-1719.057Z" transform="translate(-7070.165 1850.749)"/>
      <path id="Path_495" data-name="Path 495" d="M6900.566-1712.511c-1.758.947-1.994,2.468-.575,3.955,1.318,1.487,2.535,1.656,3.583.574a2.678,2.678,0,0,0,.879-2.2,1.828,1.828,0,0,0-1.149-2.028C6902.02-1713.018,6901.546-1713.052,6900.566-1712.511Z" transform="translate(-6895.87 1846.095)"/>
      <path id="Path_551" data-name="Path 551" d="M7342.687-1711.222c-1.318.879-1.994,2.332-1.453,3.211a4.508,4.508,0,0,0,3.447,1.555,3.613,3.613,0,0,0,1.961-3.38c-.271-1.048-1.386-2.163-2.2-2.163A4.335,4.335,0,0,0,7342.687-1711.222Z" transform="translate(-7188.454 1845.517)"/>
      <path id="Path_496" data-name="Path 496" d="M7111.33-1692.459a2.5,2.5,0,0,0-1.15,3.008,2.669,2.669,0,0,0,4.191,1.656c1.589-1.115.508-5.239-1.385-5.205A4.489,4.489,0,0,0,7111.33-1692.459Z" transform="translate(-7035.549 1832.939)"/>
      <path id="Path_524" data-name="Path 524" d="M7273.69-1682.54a2.491,2.491,0,0,0-1.69,2.67c0,1.149.17,1.589.879,2.129,1.386,1.082,2.7.947,3.516-.406a3.646,3.646,0,0,0,.271-3.718A3.3,3.3,0,0,0,7273.69-1682.54Z" transform="translate(-7142.746 1826.096)"/>
      <path id="Path_497" data-name="Path 497" d="M6953.989-1681.029a2.526,2.526,0,0,0-.507,3.245c.676,1.521,2.839,1.555,4.461.034,1.15-1.048,1.116-2.028-.1-3.245C6956.524-1682.28,6955.206-1682.28,6953.989-1681.029Z" transform="translate(-6931.648 1825.633)"/>
      <path id="Path_498" data-name="Path 498" d="M7023.743-1678.41c-.574.372-.743.845-.743,1.927,0,1.622.2,1.994,1.251,2.569a2.069,2.069,0,0,0,2.94-.676c1.048-1.25,1.184-2.974.271-3.786A3.506,3.506,0,0,0,7023.743-1678.41Z" transform="translate(-6977.911 1823.622)"/>
      <path id="Path_552" data-name="Path 552" d="M7392.812-1674.078c-1.217,1.555-.845,3.144.947,4.056,2.095,1.082,3.718.135,3.718-2.129,0-1.758-.574-2.4-2.4-2.636C7393.657-1674.991,7393.454-1674.923,7392.812-1674.078Z" transform="translate(-7222.253 1820.947)"/>
      <path id="Path_499" data-name="Path 499" d="M7209.9-1658.852c-1.217,1.419-1.148,2.738.17,3.819,2.162,1.825,4.9.372,4.225-2.265C7213.651-1659.9,7211.421-1660.677,7209.9-1658.852Z" transform="translate(-7101.062 1810.993)"/>
      <path id="Path_500" data-name="Path 500" d="M6890.719-1645.5a2.5,2.5,0,0,0-.946,3.008,4.384,4.384,0,0,0,.912,1.521,3.6,3.6,0,0,0,3.009.169c1.082-.676,1.284-3.549.371-4.732C6893.626-1646.044,6891.429-1646.044,6890.719-1645.5Z" transform="translate(-6889.604 1801.768)"/>
      <path id="Path_501" data-name="Path 501" d="M7067.71-1638.121a3.126,3.126,0,0,0-.71,1.555,3.375,3.375,0,0,0,1.859,2.839c1.015.237,2.6-.1,2.94-.642a4.739,4.739,0,0,0-.236-3.617c-.439-.879-.71-1.014-1.859-1.014A2.1,2.1,0,0,0,7067.71-1638.121Z" transform="translate(-7007.039 1797.192)"/>
      <path id="Path_537" data-name="Path 537" d="M7326.94-1636.1c-1.014.98-1.048,1.352-.169,2.772,1.284,2.129,3.414,2.4,4.5.541.846-1.487.508-2.974-.777-3.65A2.768,2.768,0,0,0,7326.94-1636.1Z" transform="translate(-7178.589 1795.809)"/>
      <path id="Path_502" data-name="Path 502" d="M7147.808-1635.146c-.913,1.183-.879,1.994.1,3.008a3.558,3.558,0,0,0,3.38,1.048c1.758-.439,1.825-4.259.1-4.732C7149.7-1636.261,7148.518-1636.025,7147.808-1635.146Z" transform="translate(-7060.096 1795.23)"/>
      <path id="Path_503" data-name="Path 503" d="M6988.229-1632.522c-1.589.575-1.859,3.549-.439,4.665,1.217.98,1.927.879,3.144-.338a2.819,2.819,0,0,0,1.048-2.366c0-1.217-.1-1.386-1.184-1.859C6989.48-1632.962,6989.446-1632.962,6988.229-1632.522Z" transform="translate(-6953.99 1793.114)"/>
      <path id="Path_553" data-name="Path 553" d="M7401.845-1612.155a2.682,2.682,0,0,0-.846,1.521c0,.743,1.69,2.7,2.3,2.7.2,0,.406-1.149.474-2.535.1-2.265.034-2.535-.507-2.535A2.577,2.577,0,0,0,7401.845-1612.155Z" transform="translate(-7228.142 1779.98)"/>
      <path id="Path_525" data-name="Path 525" d="M7283.4-1609.472c-1.792,1.115-1.487,3.414.608,4.428.846.406,1.082.406,1.792,0a6.322,6.322,0,0,0,1.521-1.352c.575-.778.609-1.048.271-2.1C7287.019-1610.216,7285.261-1610.621,7283.4-1609.472Z" transform="translate(-7149.516 1778.075)"/>
      <path id="Path_504" data-name="Path 504" d="M6924.721-1604.181a2.418,2.418,0,0,0,.3,3.752c1.758,1.487,3.719,1.014,4.225-1.014a2.367,2.367,0,0,0-1.385-3.042C6926.241-1605.161,6925.565-1605.093,6924.721-1604.181Z" transform="translate(-6912.352 1774.642)"/>
      <path id="Path_517" data-name="Path 517" d="M7226.865-1596.044a2.736,2.736,0,0,0-.169,3.752c.913.98,2.231.947,3.617-.135,1.453-1.115,1.555-2.772.236-3.82A2.552,2.552,0,0,0,7226.865-1596.044Z" transform="translate(-7112.314 1769.345)"/>
      <path id="Path_505" data-name="Path 505" d="M6992.05-1580.227c-1.555.946-1.521,2.366.033,3.921a3.88,3.88,0,0,0,1.859,1.149,2.938,2.938,0,0,0,2.4-2.772c0-1.386-.236-1.724-1.589-2.434C6993.4-1581.038,6993.368-1581.038,6992.05-1580.227Z" transform="translate(-6956.662 1758.699)"/>
      <path id="Path_506" data-name="Path 506" d="M7052.5-1577.2a3.9,3.9,0,0,0-1.048,1.724c-.2.777-.033,1.149.946,2.13s1.319,1.149,2.13.946c2.265-.541,2.84-2.6,1.25-4.5C7054.73-1578.15,7053.648-1578.251,7052.5-1577.2Z" transform="translate(-6996.695 1756.758)"/>
      <path id="Path_507" data-name="Path 507" d="M7123.336-1575.458a2.513,2.513,0,0,0-.406,3.549c.643,1.048.879,1.183,2.2,1.183,1.758,0,2.366-.608,2.333-2.4C7127.358-1575.864,7125.127-1577.115,7123.336-1575.458Z" transform="translate(-7043.701 1755.621)"/>
      <path id="Path_508" data-name="Path 508" d="M7185.094-1563.279c-1.353.812-1.487,2.13-.405,3.515a2.667,2.667,0,0,0,3.819.169,2.1,2.1,0,0,0,.879-1.994,2.929,2.929,0,0,0-.541-1.826C7188.136-1564.158,7186.412-1564.09,7185.094-1563.279Z" transform="translate(-7084.469 1747.498)"/>
      <path id="Path_554" data-name="Path 554" d="M7357.717-1561.4c-1.048.744-1.014,2.5.135,3.82a2.387,2.387,0,0,0,3.177.71,3.471,3.471,0,0,0,1.116-3.245A3.01,3.01,0,0,0,7357.717-1561.4Z" transform="translate(-7198.988 1746.155)"/>
      <path id="Path_526" data-name="Path 526" d="M7266.922-1551.2c-1.015.777-1.115,1.893-.372,3.346.979,1.893,2.434,2.163,3.921.71,1.352-1.352,1.318-2.738-.068-3.887C7269.152-1552.083,7268.139-1552.151,7266.922-1551.2Z" transform="translate(-7138.817 1739.513)"/>
      <path id="Path_509" data-name="Path 509" d="M6944.879-1536.029a2.611,2.611,0,0,0-.507,3.313c.574,1.048.945,1.251,2.568,1.251s2.13-.575,2.13-2.468C6949.07-1536.5,6946.7-1537.719,6944.879-1536.029Z" transform="translate(-6925.614 1729.542)"/>
      <path id="Path_538" data-name="Path 538" d="M7322.555-1519.28c-1.217.372-1.555.845-1.555,2.231a3.107,3.107,0,0,0,1.994,2.67,4.461,4.461,0,0,0,3.144-1.318c.405-.608.3-2.805-.135-3.177A4.852,4.852,0,0,0,7322.555-1519.28Z" transform="translate(-7175.184 1718.033)"/>
      <path id="Path_510" data-name="Path 510" d="M7004.837-1518.2c-1.049,1.115-.913,2.163.4,3.481,2.028,2.028,4.259,1.115,4.259-1.724,0-1.149-.168-1.453-.979-1.96A2.865,2.865,0,0,0,7004.837-1518.2Z" transform="translate(-6965.426 1717.728)"/>
      <path id="Path_511" data-name="Path 511" d="M7105.91-1517.251c-2.839,1.724-2.028,4.732,1.284,4.732,1.183,0,1.386-.135,1.994-1.318.71-1.453.643-2.129-.439-3.346C7107.9-1518.1,7107.3-1518.129,7105.91-1517.251Z" transform="translate(-7031.651 1717.018)"/>
      <path id="Path_512" data-name="Path 512" d="M7196.979-1501.07c-.811.845-.946,1.217-.743,2.1a4.3,4.3,0,0,0,.574,1.555c.846.98,4.327.2,4.834-1.082.372-.946.237-1.454-.676-2.5C7199.786-1502.422,7198.3-1502.422,7196.979-1501.07Z" transform="translate(-7092.536 1706.55)"/>
      <path id="Path_527" data-name="Path 527" d="M7252.43-1490.358a3.756,3.756,0,0,0-.237,3.65c.372.744,2.6,1.284,3.583.913a3.278,3.278,0,0,0,1.386-3.042,4.033,4.033,0,0,0-3.278-2.163A2.3,2.3,0,0,0,7252.43-1490.358Z" transform="translate(-7129.395 1699.217)"/>
      <path id="Path_555" data-name="Path 555" d="M7386.9-1482.06a1.875,1.875,0,0,0-.474,2.636,3.416,3.416,0,0,0,2.907,1.927c1.352,0,2.129-1.014,2.129-2.772a1.8,1.8,0,0,0-1.081-1.96C7388.893-1483.108,7387.878-1483.074,7386.9-1482.06Z" transform="translate(-7218.266 1693.826)"/>
      <path id="Path_518" data-name="Path 518" d="M7033.54-1472.449c-.879.947-.743,3.279.17,3.921a3.049,3.049,0,0,0,3.954-.338c.946-1.217.879-2.028-.271-3.211C7036.211-1473.261,7034.419-1473.43,7033.54-1472.449Z" transform="translate(-6984.497 1687.36)"/>
      <path id="Path_519" data-name="Path 519" d="M7152.843-1471.141c-1.453,1.183-1.284,3.718.271,4.293a4.587,4.587,0,0,0,3.685-.879,2.459,2.459,0,0,0-.372-3.312A2.435,2.435,0,0,0,7152.843-1471.141Z" transform="translate(-7063.205 1686.559)"/>
      <path id="Path_539" data-name="Path 539" d="M7312.454-1471.138c-.947.338-1.454,1.318-1.454,2.805a1.76,1.76,0,0,0,1.116,1.893c1.452.879,2.331.845,3.413-.169,1.048-.98,1.115-1.656.236-3.076A2.982,2.982,0,0,0,7312.454-1471.138Z" transform="translate(-7168.564 1686.149)"/>
      <path id="Path_528" data-name="Path 528" d="M7083.179-1430.579c-1.048.744-1.487,3.211-.812,4.5.777,1.453,4.056.946,4.563-.71a4.149,4.149,0,0,0-.643-3.312A4.183,4.183,0,0,0,7083.179-1430.579Z" transform="translate(-7016.998 1659.314)"/>
      <path id="Path_529" data-name="Path 529" d="M7266.969-1427.1a2.521,2.521,0,0,0-.068,3.684,2.066,2.066,0,0,0,2.028.946c1.69-.034,2.231-.574,2.231-2.3C7271.161-1427.676,7268.828-1428.961,7266.969-1427.1Z" transform="translate(-7138.865 1657.493)"/>
      <path id="Path_556" data-name="Path 556" d="M7337.645-1424.453c-1.656,1.149-.507,5.206,1.488,5.206a3.78,3.78,0,0,0,2.839-2.738,4.008,4.008,0,0,0-.879-1.893A2.3,2.3,0,0,0,7337.645-1424.453Z" transform="translate(-7185.677 1655.52)"/>
      <path id="Path_530" data-name="Path 530" d="M7203.458-1417.451a2.612,2.612,0,0,0-1.149,1.284,3.086,3.086,0,0,0,1.927,3.211,2,2,0,0,0,2.2-.338,2.42,2.42,0,0,0,1.317-3.008C7207.379-1417.958,7205.385-1418.5,7203.458-1417.451Z" transform="translate(-7096.581 1650.884)"/>
      <path id="Path_531" data-name="Path 531" d="M7139.908-1403.32c-.812.608-.912.879-.744,2.028.236,1.825,1.049,2.636,2.637,2.636,1.556,0,2.333-.912,2.333-2.7C7144.134-1403.9,7141.937-1404.943,7139.908-1403.32Z" transform="translate(-7054.765 1641.688)"/>
      <path id="Path_540" data-name="Path 540" d="M7333.727-1366.4c-.98.676-1.015,2.738-.034,3.989,1.487,1.893,4.36.608,4.36-2.028A2.72,2.72,0,0,0,7333.727-1366.4Z" transform="translate(-7183.111 1617.077)"/>
      <path id="Path_541" data-name="Path 541" d="M7200.8-1362.157c-1.42.507-2.333,2.772-1.556,3.887a4.367,4.367,0,0,0,2.637,1.487,2.9,2.9,0,0,0,2.5-2.163,4.832,4.832,0,0,0-2.2-3.245A2.158,2.158,0,0,0,7200.8-1362.157Z" transform="translate(-7094.394 1614.012)"/>
      <path id="Path_542" data-name="Path 542" d="M7263.731-1358.306a2.845,2.845,0,0,0,1.927,4.732c1.961,0,3.278-3.448,1.859-4.867C7266.774-1359.218,7264.61-1359.117,7263.731-1358.306Z" transform="translate(-7136.776 1611.817)"/>
      <path id="Path_558" data-name="Path 558" d="M7392.193-1354.493c-.846.845-1.049,2.839-.338,3.617,1.521,1.656,3.007,1.589,4.123-.2,1.419-2.265.574-3.921-1.927-3.921A3.211,3.211,0,0,0,7392.193-1354.493Z" transform="translate(-7221.803 1609.187)"/>
      <path id="Path_559" data-name="Path 559" d="M7323.5-1320.35c-1.116.879-1.387,1.791-.879,2.771a2.626,2.626,0,0,0,4.428.71,2.434,2.434,0,0,0,.405-3.414C7326.776-1321.262,7324.715-1321.3,7323.5-1320.35Z" transform="translate(-7176.092 1586.706)"/>
    </g>
  </g>
</svg>
