<svg width="530" height="600" viewBox="0 0 530 600" fill="none" xmlns="http://www.w3.org/2000/svg">
<rect width="530" height="600" fill="#E5E5E5"/>
<rect x="-111" y="-130" width="2500" height="1592" rx="45" fill="white"/>
<path d="M308.778 104.621C308.778 104.621 440.166 125.213 430.202 312.748C430.166 313.443 445.394 323.57 446.586 324.652C457.205 334.272 466.114 346.592 470.009 361.003C483.881 412.322 434.285 465.199 394.179 479.234C379.198 484.476 363.364 487.021 347.498 487.483C244.359 490.492 107.808 424.828 100.795 296.59C100.544 291.989 100.482 287.383 100.6 282.788C101.222 258.439 107.088 234.725 115.93 212.706C115.927 212.707 173.328 70.0891 308.778 104.621Z" fill="#EBE4E4"/>
<path opacity="0.3" d="M367.803 323.889C367.803 323.889 388.645 304.025 404.78 322.701L367.803 323.889Z" fill="#C9BABA"/>
<path d="M173.522 420.66C101.325 456.929 39.136 372.104 61.2178 322.985C75.3035 291.654 113.881 288.275 135.393 316.028C148.088 332.407 158.139 353.499 163.61 373.781" fill="#EBE4E4"/>
<path opacity="0.3" d="M116.887 344.833C125.773 353.594 132.744 366.746 141.565 373.957C140.248 361.551 137.96 348.326 132.024 337.266C125.997 326.033 114.714 316.938 102.933 318.008C88.3331 319.334 75.8696 336.044 73.9054 350.959C75.0799 342.034 93.7742 335.543 100.821 336.208C111.321 356.102 114.481 395.755 114.481 395.755C124.342 373.014 121.109 355.404 116.887 344.833Z" fill="#C9BABA"/>
<path fill-rule="evenodd" clip-rule="evenodd" d="M479.063 283.263L430 281.5L429.5 271L479.286 273.265L479.063 283.263Z" fill="#896307"/>
<path fill-rule="evenodd" clip-rule="evenodd" d="M304.05 220.73C276.843 225.015 257.945 252.888 262.802 283.722C267.659 314.556 294.209 335.27 321.417 330.985C348.624 326.699 367.521 298.826 362.665 267.992C357.808 237.158 331.258 216.444 304.05 220.73ZM252.152 272.906C252.671 242.258 273.051 215.489 302.494 210.851C335.843 205.599 366.855 230.937 372.448 266.451C372.45 266.458 372.451 266.465 372.452 266.473C373.481 266.058 374.604 265.659 375.801 265.311C379.44 264.253 384.024 263.604 388.795 264.6C389.404 252.102 393.039 240.625 398.953 231.562C406.306 220.296 417.377 212.538 430.54 211.849C443.683 211.161 455.692 217.69 464.508 228.054C473.327 238.421 479.205 252.86 480.322 268.899C481.439 284.936 477.61 299.916 470.263 311.173C462.911 322.439 451.84 330.197 438.677 330.886C425.534 331.574 413.525 325.045 404.709 314.682C396.115 304.58 390.314 290.611 388.99 275.065C385.561 273.662 381.925 273.943 378.57 274.919C376.479 275.527 374.653 276.369 373.323 277.081C373.556 308.445 352.968 336.138 322.973 340.863C289.624 346.116 258.612 320.777 253.018 285.263C252.905 284.546 252.804 283.831 252.713 283.116L166.271 269.192C150.055 266.949 133.868 267.693 121.914 271.706C109.923 275.732 103.595 290.541 103.405 299.738L93.5 299.5C93.8163 284.209 104.921 266.866 118.762 262.219C132.628 257.564 150.475 256.913 167.644 259.295L167.698 259.302L252.152 272.906ZM407.232 237.078C401.196 246.328 397.797 259.088 398.777 273.165C399.757 287.24 404.905 299.587 412.217 308.182C419.532 316.781 428.76 321.392 438.135 320.902C447.49 320.412 455.955 314.898 461.985 305.657C468.021 296.408 471.42 283.647 470.44 269.57C469.46 255.495 464.312 243.149 456.999 234.553C449.684 225.954 440.457 221.343 431.082 221.833C421.727 222.323 413.262 227.838 407.232 237.078Z" fill="#C5900F"/>
</svg>
