<svg width="530" height="600" viewBox="0 0 530 600" fill="none" xmlns="http://www.w3.org/2000/svg">
<rect width="530" height="600" fill="#E5E5E5"/>
<rect x="-1257" y="-807" width="2500" height="1592" rx="45" fill="white"/>
<path d="M308.778 104.621C308.778 104.621 440.166 125.213 430.202 312.748C430.166 313.443 445.394 323.57 446.586 324.652C457.205 334.272 466.114 346.592 470.009 361.003C483.881 412.322 434.285 465.199 394.179 479.234C379.198 484.476 363.364 487.021 347.498 487.483C244.359 490.492 107.808 424.828 100.795 296.59C100.544 291.989 100.482 287.383 100.6 282.788C101.222 258.439 107.088 234.725 115.93 212.706C115.927 212.707 173.328 70.0891 308.778 104.621Z" fill="#EBE4E4"/>
<path opacity="0.3" d="M367.803 323.889C367.803 323.889 388.645 304.025 404.78 322.701L367.803 323.889Z" fill="#C9BABA"/>
<path d="M173.522 420.66C101.325 456.929 39.136 372.104 61.2178 322.985C75.3035 291.654 113.881 288.275 135.393 316.028C148.088 332.407 158.139 353.499 163.61 373.781" fill="#EBE4E4"/>
<path opacity="0.3" d="M116.887 344.833C125.773 353.594 132.744 366.745 141.565 373.957C140.248 361.551 137.96 348.326 132.024 337.266C125.997 326.033 114.714 316.938 102.933 318.008C88.3331 319.334 75.8696 336.044 73.9054 350.959C75.0799 342.034 93.7742 335.542 100.821 336.208C111.321 356.102 114.481 395.755 114.481 395.755C124.342 373.014 121.109 355.404 116.887 344.833Z" fill="#C9BABA"/>
<path d="M148 160C249.868 148.8 350.992 197.833 377.48 220.5C387.055 209.3 402.852 195.833 413.862 194.5C416.543 200.5 420.883 215.5 422 219C405.915 219 388.491 238.833 379.874 252.5C313 194.5 219.784 194.5 125 194.5C133.617 175 140.979 166.667 148 160Z" fill="#FFC00C"/>
<mask id="mask0" style="mask-type:alpha" maskUnits="userSpaceOnUse" x="125" y="158" width="297" height="95">
<path d="M148.5 160.5C250.368 149.3 350.992 197.833 377.48 220.5C387.055 209.3 402.852 195.833 413.862 194.5C416.543 200.5 420.883 215.5 422 219C405.915 219 388.491 238.833 379.874 252.5C304 190 218.5 197.5 125 194.5C133.617 175 141.479 167.167 148.5 160.5Z" fill="#FFC00C"/>
</mask>
<g mask="url(#mask0)">
<path d="M343.971 240.5L366.352 203.879L360.284 194.439L333.918 232L343.971 240.5Z" fill="#FFD45B"/>
<path d="M388.491 246.5L416.734 191L430.617 194.439L396.15 249L388.491 246.5Z" fill="#FFD45B"/>
<path d="M327.275 225.777L353.066 191L348.136 188.019L323.103 221.803L327.275 225.777Z" fill="#FFD45B"/>
<path d="M275.995 215L306.632 178.5L292.271 171.5L256.368 212.5L275.995 215Z" fill="#FFD45B"/>
</g>
<ellipse cx="378.155" cy="232.5" rx="8.81253" ry="13.5" fill="#FF3C15"/>
<mask id="mask1" style="mask-type:alpha" maskUnits="userSpaceOnUse" x="369" y="219" width="18" height="27">
<ellipse cx="378.155" cy="232.5" rx="8.81253" ry="13.5" fill="#FF3C15"/>
</mask>
<g mask="url(#mask1)">
<path d="M388.142 226.977C383.912 238.268 375.022 242.727 371.105 243.545C372.28 245.386 376.04 248.7 381.68 247.227C387.32 245.755 388.338 233.114 388.142 226.977Z" fill="#CB1414"/>
<ellipse rx="2.95116" ry="4.88808" transform="matrix(0.943016 0.332748 -0.307743 0.951469 375.98 225.86)" fill="#FF7256"/>
</g>
</svg>
