<svg width="530" height="600" viewBox="0 0 530 600" fill="none" xmlns="http://www.w3.org/2000/svg">
<rect width="530" height="600" fill="#E5E5E5"/>
<rect x="-1841" y="-796" width="2500" height="1592" rx="45" fill="white"/>
<path d="M306.778 104.621C306.778 104.621 438.166 125.213 428.202 312.748C428.166 313.443 443.394 323.57 444.586 324.652C455.205 334.272 464.114 346.592 468.009 361.003C481.881 412.322 432.285 465.199 392.179 479.234C377.198 484.476 361.364 487.021 345.498 487.483C242.359 490.492 105.808 424.828 98.7949 296.59C98.5437 291.989 98.4817 287.383 98.5999 282.788C99.2216 258.439 105.088 234.725 113.93 212.706C113.927 212.707 171.328 70.0891 306.778 104.621Z" fill="#EBE4E4"/>
<path opacity="0.3" d="M365.803 323.889C365.803 323.889 386.645 304.025 402.78 322.701L365.803 323.889Z" fill="#C9BABA"/>
<path d="M171.522 420.66C99.3253 456.929 37.136 372.104 59.2178 322.985C73.3035 291.654 111.881 288.275 133.393 316.028C146.088 332.407 156.139 353.499 161.61 373.781" fill="#EBE4E4"/>
<path opacity="0.3" d="M114.887 344.833C123.773 353.594 130.744 366.745 139.565 373.957C138.248 361.551 135.96 348.326 130.024 337.266C123.997 326.033 112.714 316.938 100.933 318.008C86.3331 319.334 73.8696 336.044 71.9054 350.959C73.0799 342.034 91.7742 335.542 98.8207 336.208C109.321 356.102 112.481 395.755 112.481 395.755C122.342 373.014 119.109 355.404 114.887 344.833Z" fill="#C9BABA"/>
<ellipse cx="387" cy="328.5" rx="29" ry="28.5" fill="#FF3C15"/>
<mask id="mask0" style="mask-type:alpha" maskUnits="userSpaceOnUse" x="359" y="300" width="57" height="57">
<ellipse cx="387.499" cy="328.5" rx="28.3959" ry="28.3333" fill="#FF3C15"/>
</mask>
<g mask="url(#mask0)">
<path d="M390 346.5C373.6 347.3 360.5 335.833 356 330C358.333 341.5 368.4 364.5 390 364.5C411.6 364.5 417 341.5 417 330C414.833 335.167 406.4 345.7 390 346.5Z" fill="#DD2400"/>
<ellipse rx="9.2012" ry="10.8983" transform="matrix(0.974591 0.22399 -0.444758 0.895651 380.49 314.564)" fill="#FF7256"/>
</g>
</svg>
