<svg width="530" height="600" viewBox="0 0 530 600" fill="none" xmlns="http://www.w3.org/2000/svg">
<rect width="530" height="600" fill="#E5E5E5"/>
<rect x="-133" y="-807" width="2500" height="1592" rx="45" fill="white"/>
<path d="M308.778 104.621C308.778 104.621 440.166 125.213 430.202 312.748C430.166 313.443 445.394 323.57 446.586 324.652C457.205 334.272 466.114 346.592 470.009 361.003C483.881 412.322 434.285 465.199 394.179 479.234C379.198 484.476 363.364 487.021 347.498 487.483C244.359 490.492 107.808 424.828 100.795 296.59C100.544 291.989 100.482 287.383 100.6 282.788C101.222 258.439 107.088 234.725 115.93 212.706C115.927 212.707 173.328 70.0891 308.778 104.621Z" fill="#EBE4E4"/>
<path opacity="0.3" d="M367.803 323.889C367.803 323.889 388.645 304.025 404.78 322.701L367.803 323.889Z" fill="#C9BABA"/>
<path d="M173.522 420.66C101.325 456.929 39.136 372.104 61.2178 322.985C75.3035 291.654 113.881 288.275 135.393 316.028C148.088 332.407 158.139 353.499 163.61 373.781" fill="#EBE4E4"/>
<path opacity="0.3" d="M116.887 344.833C125.773 353.594 132.744 366.745 141.565 373.957C140.248 361.551 137.96 348.326 132.024 337.266C125.997 326.033 114.714 316.938 102.933 318.008C88.3331 319.334 75.8696 336.044 73.9054 350.959C75.0799 342.034 93.7742 335.542 100.821 336.208C111.321 356.102 114.481 395.755 114.481 395.755C124.342 373.014 121.109 355.404 116.887 344.833Z" fill="#C9BABA"/>
<path d="M192.247 102.862C203.413 85.7737 248.014 117.574 269.498 135.947C240.287 134.117 224.298 173.178 219.094 192.282C209.874 201.32 194.587 202.966 188.377 202.977C185.014 176.726 181.08 119.95 192.247 102.862Z" fill="#A09B9B"/>
<mask id="mask0" style="mask-type:alpha" maskUnits="userSpaceOnUse" x="184" y="97" width="86" height="106">
<path d="M192.247 102.862C203.413 85.7737 248.014 117.574 269.498 135.947C240.287 134.117 224.298 173.178 219.094 192.282C209.874 201.32 194.587 202.966 188.377 202.977C185.014 176.726 181.08 119.95 192.247 102.862Z" fill="#A09B9B"/>
</mask>
<g mask="url(#mask0)">
<path d="M185.817 198.849C193.524 195.964 203.272 192.762 207.183 191.521L182.126 182.608L185.817 198.849Z" fill="#C4C4C4"/>
<path d="M179.496 172.988L178.911 162.229L196.801 168.45L179.496 172.988Z" fill="#C4C4C4"/>
</g>
<path d="M269.498 135.947C241.003 145.7 224.048 177.168 219.132 191.684C196.838 163.845 185.473 115.057 197.073 102.563C206.353 92.5682 249.223 120.655 269.498 135.947Z" fill="#FEB3A4"/>
<mask id="mask1" style="mask-type:alpha" maskUnits="userSpaceOnUse" x="192" y="100" width="78" height="92">
<path d="M269.498 135.947C241.003 145.7 224.048 177.168 219.132 191.684C196.838 163.845 185.473 115.057 197.073 102.563C206.353 92.5682 249.223 120.655 269.498 135.947Z" fill="#FEB3A4"/>
</mask>
<g mask="url(#mask1)">
<path d="M233.434 126.476C212.304 126.113 215.843 170.645 220.254 192.956L275.447 136.921C270.247 133.59 254.565 126.838 233.434 126.476Z" fill="#FFE7E2"/>
</g>
<mask id="mask2" style="mask-type:alpha" maskUnits="userSpaceOnUse" x="336" y="102" width="90" height="80">
<path d="M407 182C389.5 149.5 362 125.5 336.5 113.5L378.5 102L426 114.5L407 182Z" fill="#C4C4C4"/>
</mask>
<g mask="url(#mask2)">
<path d="M387.523 106.854C400.862 107.344 401.85 145.221 400.73 164.563C390.154 146.576 363.427 151.113 351.387 154.885C343.024 152.66 336.129 144.181 333.671 140.501C346.063 129.081 374.183 106.364 387.523 106.854Z" fill="#A09B9B"/>
<mask id="mask3" style="mask-type:alpha" maskUnits="userSpaceOnUse" x="333" y="106" width="69" height="59">
<path d="M387.523 106.854C400.862 107.344 401.85 145.221 400.73 164.563C390.154 146.576 363.427 151.113 351.387 154.885C343.024 152.66 336.129 144.181 333.671 140.501C346.063 129.081 374.183 106.364 387.523 106.854Z" fill="#A09B9B"/>
</mask>
<g mask="url(#mask3)">
<path d="M334.818 137.5C339.368 141.036 344.89 145.67 347.083 147.545L341.849 129.479L334.818 137.5Z" fill="#C4C4C4"/>
<path d="M345.838 124.466L351.23 120.256L355.042 133.103L345.838 124.466Z" fill="#C4C4C4"/>
</g>
<path d="M401 172.5C384.653 159.096 361.242 152.398 351.715 154.692C357.463 131.472 378.474 107.214 389.584 109.61C398.471 111.527 400.988 154.981 401 172.5Z" fill="#FEB3A4"/>
<mask id="mask4" style="mask-type:alpha" maskUnits="userSpaceOnUse" x="351" y="109" width="50" height="65">
<path d="M401 174C384.653 160.596 361.242 152.398 351.715 154.692C357.463 131.472 378.475 107.214 389.584 109.61C398.471 111.527 400.988 156.481 401 174Z" fill="#FEB3A4"/>
</mask>
<g mask="url(#mask4)">
<path d="M392.319 141.259C382.899 126.437 361.402 145.17 351.831 156.388L406.003 174.282C405.367 169.45 401.739 156.081 392.319 141.259Z" fill="#FFE7E2"/>
</g>
</g>
</svg>
