<svg width="530" height="600" viewBox="0 0 530 600" fill="none" xmlns="http://www.w3.org/2000/svg">
<rect width="530" height="600" fill="#E5E5E5"/>
<rect x="-1826" y="-130" width="2500" height="1592" rx="45" fill="white"/>
<path d="M308.778 104.621C308.778 104.621 440.166 125.213 430.202 312.748C430.166 313.443 445.394 323.57 446.586 324.652C457.205 334.272 466.114 346.592 470.009 361.003C483.881 412.322 434.285 465.199 394.179 479.234C379.198 484.476 363.364 487.021 347.498 487.483C244.359 490.492 107.808 424.828 100.795 296.59C100.544 291.989 100.482 287.383 100.6 282.788C101.222 258.439 107.088 234.725 115.93 212.706C115.927 212.707 173.328 70.0891 308.778 104.621Z" fill="#EBE4E4"/>
<path opacity="0.3" d="M367.803 323.889C367.803 323.889 388.645 304.025 404.78 322.701L367.803 323.889Z" fill="#C9BABA"/>
<path d="M173.522 420.66C101.325 456.929 39.136 372.104 61.2178 322.985C75.3035 291.654 113.881 288.275 135.393 316.028C148.088 332.407 158.139 353.499 163.61 373.781" fill="#EBE4E4"/>
<path opacity="0.3" d="M116.887 344.833C125.773 353.594 132.744 366.746 141.565 373.957C140.248 361.551 137.96 348.326 132.024 337.266C125.997 326.033 114.714 316.938 102.933 318.008C88.3331 319.334 75.8696 336.044 73.9054 350.959C75.0799 342.034 93.7742 335.543 100.821 336.208C111.321 356.102 114.481 395.755 114.481 395.755C124.342 373.014 121.109 355.404 116.887 344.833Z" fill="#C9BABA"/>
<path fill-rule="evenodd" clip-rule="evenodd" d="M393.504 329.68C402.561 324.453 424.23 315.414 439.22 320.673C447.862 323.705 454.058 330.57 459.509 336.609C465.426 343.166 470.465 348.75 476.804 347.404C477.131 347.335 477.395 347.784 477.136 347.996C471.377 352.709 451.185 367.983 437.707 368.649C421.413 369.454 413.507 361.636 401.284 349.548C400.08 348.358 398.835 347.126 397.535 345.857C393.678 356.078 379.496 369.575 347.121 385.801C288.087 415.388 249.44 382.915 230.778 360.879C230.539 360.597 231.08 360.053 231.399 360.238C238.56 364.394 246.669 360.718 267.17 351.263C276.559 346.933 284.988 342.491 292.831 338.358C312.148 328.179 327.909 319.874 345.704 319.724C365.719 319.555 386.692 326.019 392.928 329.218C393.124 329.369 393.316 329.523 393.504 329.68Z" fill="#71472D"/>
<path d="M339.639 337.541C350.597 332.685 372.191 336.401 381.618 338.866C348.634 337.825 339.245 350.035 312.785 364.208C291.616 375.546 270.928 369.557 263.23 365.146C290.964 374.025 325.94 343.612 339.639 337.541Z" fill="#5E351B"/>
<path d="M366.589 355.4C358.346 362.977 338.355 378.221 324.337 378.579C334.756 370.737 357.793 355.123 366.589 355.4Z" fill="#5E351B"/>
<path d="M411.324 332.799C415.895 330.609 427.093 327.694 435.312 333.556C444.554 340.148 451.8 345.867 456.47 345.961C457.018 345.911 457.511 345.847 457.938 345.776C457.481 345.912 456.992 345.972 456.47 345.961C451.642 346.404 442.473 345.817 435.091 340.553C426.872 334.691 415.822 332.941 411.324 332.799Z" fill="#5E351B"/>
</svg>
