<svg width="530" height="600" viewBox="0 0 530 600" fill="none" xmlns="http://www.w3.org/2000/svg">
<path fill-rule="evenodd" clip-rule="evenodd" d="M395.504 334.68C404.561 329.453 426.23 320.414 441.22 325.673C449.862 328.705 456.058 335.57 461.509 341.609C467.426 348.166 472.465 353.75 478.804 352.404C479.131 352.335 479.395 352.784 479.136 352.996C473.377 357.709 453.185 372.983 439.707 373.649C423.413 374.454 415.507 366.636 403.284 354.548C402.08 353.358 400.835 352.126 399.535 350.857C395.678 361.078 381.496 374.575 349.121 390.801C290.087 420.388 251.44 387.915 232.778 365.879C232.539 365.597 233.08 365.053 233.399 365.238C240.56 369.394 248.669 365.718 269.17 356.263C278.559 351.933 286.988 347.491 294.831 343.358C314.148 333.179 329.909 324.874 347.704 324.724C367.719 324.555 388.692 331.019 394.928 334.218C395.124 334.369 395.316 334.523 395.504 334.68Z" fill="#71472D"/>
<path d="M341.639 342.541C352.597 337.685 374.191 341.401 383.618 343.866C350.634 342.825 341.245 355.035 314.785 369.208C293.616 380.546 272.928 374.557 265.23 370.146C292.964 379.025 327.94 348.612 341.639 342.541Z" fill="#5E351B"/>
<path d="M368.589 360.4C360.346 367.977 340.355 383.221 326.337 383.579C336.756 375.737 359.793 360.123 368.589 360.4Z" fill="#5E351B"/>
<path d="M413.324 337.799C417.895 335.609 429.093 332.694 437.312 338.556C446.554 345.148 453.8 350.867 458.47 350.961C459.018 350.911 459.511 350.847 459.938 350.776C459.481 350.912 458.992 350.972 458.47 350.961C453.642 351.404 444.473 350.817 437.091 345.553C428.872 339.691 417.822 337.941 413.324 337.799Z" fill="#5E351B"/>
</svg>
