<svg width="530" height="600" viewBox="0 0 530 600" fill="none" xmlns="http://www.w3.org/2000/svg">
<path d="M95 262C101.5 262 192 259.667 222 255L249.5 313C208.7 322.6 155.167 322.667 133.5 321.5C116.3 301.9 93.3333 299.667 84 301C84.4 292.2 88.5 262 95 262Z" fill="#5E0E56"/>
<path d="M434.292 236.075C369.061 171.854 274.787 198.776 234.881 229.285C226 236.075 218.375 244.626 215 258.5C211.073 274.646 212.406 303.827 244.812 323.635C277.219 343.443 317.465 329.89 326.873 323.635C336.282 317.38 353.799 302.797 377.842 303.84C397.077 304.674 412.339 313.918 417.566 318.436C427.323 322.258 445 316.65 445 282.455C445 248.259 438.474 238.855 434.292 236.075Z" fill="#9A3E91"/>
<path fill-rule="evenodd" clip-rule="evenodd" d="M324.791 272.268C328.609 265.417 329.228 257.965 328.616 253.08L323.655 253.702C324.223 258.24 323.482 265.626 319.162 271.859C315.687 276.872 309.777 281.324 299.863 282.909C289.532 284.561 281.378 282.596 275.27 279.389C268.153 275.653 263.76 270.199 261.984 266.67L257.518 268.918C259.496 272.849 263.758 278.201 270.338 282.319L261.546 293.331L265.454 296.451L274.808 284.733C281.045 287.603 288.836 289.239 298.167 288.186L300.53 303.278L305.47 302.504L303.103 287.388C311.884 285.495 317.944 281.405 321.966 276.447L331.387 281.13L333.613 276.652L324.791 272.268Z" fill="#F9ACF1"/>
<path fill-rule="evenodd" clip-rule="evenodd" d="M425.348 278.542C429.97 274.969 432.814 270.07 434.069 266.528L429.357 264.857C428.192 268.142 425.269 272.923 420.579 275.761C416.848 278.018 411.858 279.14 405.34 277.099C398.497 274.956 394.189 271.077 391.525 267.002C388.404 262.23 387.51 257.138 387.588 254.189L382.59 254.057C382.501 257.396 383.326 262.396 385.941 267.361L377.107 271.926L379.403 276.367L388.655 271.586C391.564 275.35 395.71 278.772 401.465 281.033L397.998 291.762L402.756 293.299L406.24 282.517C412.03 283.823 416.991 283.062 421.077 281.156L425.005 286.873L429.126 284.042L425.348 278.542Z" fill="#F9ACF1"/>
</svg>
