<svg width="530" height="600" viewBox="0 0 530 600" fill="none" xmlns="http://www.w3.org/2000/svg">
<path d="M308.796 106.621C308.796 106.621 440.183 127.213 430.22 314.748C430.184 315.443 445.411 325.57 446.604 326.652C457.222 336.272 466.131 348.592 470.027 363.003C483.899 414.322 434.303 467.199 394.196 481.234C379.216 486.476 363.381 489.021 347.515 489.483C244.376 492.492 107.826 426.828 100.812 298.59C100.561 293.989 100.499 289.383 100.617 284.788C101.239 260.439 107.106 236.725 115.948 214.706C115.944 214.707 173.346 72.0891 308.796 106.621Z" fill="#E2BA87"/>
<g style="mix-blend-mode:multiply" opacity="0.5">
<path d="M433.546 316.727C432.123 320.219 430.702 324.682 430.305 327.234C428.611 338.182 432.35 349.486 438.845 357.612C445.012 365.328 453.821 370.332 462.351 372.219C465.231 372.857 468.717 373.183 471.767 373.286C468.562 341.583 442.794 322.561 433.546 316.727Z" fill="#FCC3B8"/>
</g>
<g style="mix-blend-mode:multiply" opacity="0.5">
<path d="M248.341 400.051C272.746 394.791 287.899 369.034 282.185 342.52C276.471 316.006 252.055 298.776 227.649 304.036C203.244 309.295 188.092 335.052 193.806 361.566C199.52 388.08 223.936 405.31 248.341 400.051Z" fill="#FCC3B8"/>
</g>
<path opacity="0.3" d="M367.82 325.889C367.82 325.889 388.662 306.025 404.798 324.701L367.82 325.889Z" fill="#8B5E3C"/>
<path d="M173.518 423.741C102.452 459.306 39.9496 373.249 61.2636 324.141C74.8596 292.817 113.01 289.899 134.613 318.07C147.362 334.696 157.545 356.027 163.186 376.486" fill="#E2BA87"/>
<path opacity="0.3" d="M116.678 346.879C125.581 355.805 132.634 369.124 141.455 376.49C140.012 363.991 137.598 350.656 131.593 339.454C125.496 328.077 114.215 318.786 102.554 319.715C88.102 320.868 75.9382 337.526 74.1578 352.507C75.2223 343.542 93.6736 337.244 100.663 338.001C111.288 358.148 114.86 398.084 114.86 398.084C124.378 375.326 120.979 357.567 116.678 346.879Z" fill="#8B5E3C"/>
</svg>
