<svg width="530" height="600" viewBox="0 0 530 600" fill="none" xmlns="http://www.w3.org/2000/svg">
<path d="M308.501 107.72C308.501 107.72 439.147 128.197 429.24 314.673C429.204 315.365 444.346 325.435 445.532 326.51C456.09 336.076 464.949 348.326 468.822 362.656C482.616 413.685 433.3 466.265 393.42 480.221C378.524 485.433 362.778 487.963 347.002 488.423C244.445 491.415 108.664 426.121 101.69 298.607C101.441 294.032 101.379 289.452 101.497 284.882C102.115 260.67 107.948 237.09 116.741 215.196C116.737 215.197 173.814 73.3833 308.501 107.72Z" fill="#FFE4C0"/>
<g style="mix-blend-mode:multiply" opacity="0.5">
<path d="M432.538 316.66C431.128 320.134 429.72 324.571 429.328 327.109C427.654 337.993 431.378 349.228 437.837 357.301C443.969 364.967 452.724 369.934 461.199 371.803C464.06 372.435 467.524 372.757 470.553 372.856C467.343 341.342 441.73 322.453 432.538 316.66Z" fill="#FFE7E2"/>
</g>
<g style="mix-blend-mode:multiply" opacity="0.5">
<path d="M248.424 399.462C272.671 394.213 287.705 368.601 282.004 342.256C276.302 315.91 252.023 298.807 227.776 304.056C203.528 309.304 188.494 334.916 194.196 361.262C199.898 387.607 224.176 404.71 248.424 399.462Z" fill="#FFE7E2"/>
</g>
<path opacity="0.3" d="M367.193 325.752C367.193 325.752 387.917 306 403.961 324.57Z" fill="#CBA284"/>
<path d="M173.951 424.112C105.061 458.786 42.4195 372.005 62.4089 323.185C75.16 292.044 112.425 289.597 134.049 318.018C146.81 334.792 157.143 356.237 163.019 376.755" fill="#FFE4C0"/>
<path opacity="0.3" d="M117.112 346.669C125.989 355.706 133.132 369.115 141.902 376.591C140.27 364.072 137.672 350.703 131.593 339.425C125.42 327.97 114.206 318.539 102.799 319.325C88.6611 320.3 77.0366 336.812 75.5549 351.776C76.4407 342.821 94.4061 336.748 101.267 337.591C112.028 357.874 116.227 397.863 116.227 397.863C125.153 375.217 121.512 357.412 117.112 346.669Z" fill="#CBA284"/>
</svg>
