<svg width="530" height="600" viewBox="0 0 530 600" fill="none" xmlns="http://www.w3.org/2000/svg">
<path d="M308.989 106.621C308.989 106.621 440.376 127.213 430.413 314.748C430.377 315.443 445.605 325.57 446.797 326.652C457.416 336.272 466.324 348.591 470.22 363.003C484.092 414.321 434.496 467.199 394.39 481.234C379.409 486.476 363.575 489.021 347.709 489.483C244.57 492.492 108.019 426.828 101.006 298.59C100.755 293.989 100.693 289.383 100.811 284.788C101.433 260.438 107.299 236.725 116.141 214.706C116.137 214.707 173.539 72.089 308.989 106.621Z" fill="#C99C62"/>
<g style="mix-blend-mode:multiply" opacity="0.5">
<path d="M433.739 316.727C432.316 320.219 430.895 324.682 430.498 327.234C428.804 338.182 432.543 349.486 439.038 357.612C445.206 365.328 454.014 370.332 462.544 372.219C465.424 372.857 468.911 373.184 471.96 373.286C468.756 341.583 442.987 322.561 433.739 316.727Z" fill="#EEB2A7"/>
</g>
<g style="mix-blend-mode:multiply" opacity="0.5">
<path d="M248.535 400.051C272.94 394.791 288.092 369.034 282.378 342.52C276.664 316.006 252.248 298.776 227.843 304.036C203.438 309.295 188.285 335.052 193.999 361.566C199.713 388.08 224.129 405.31 248.535 400.051Z" fill="#EEB2A7"/>
</g>
<path opacity="0.3" d="M368.014 325.889C368.014 325.889 388.856 306.025 404.991 324.701Z" fill="#8B5E3C"/>
<path d="M173.679 424.869C104.299 459.699 41.3295 372.357 61.499 323.26C74.3649 291.943 111.879 289.508 133.617 318.114C146.446 334.997 156.826 356.577 162.72 377.222" fill="#C99C62"/>
<path opacity="0.3" d="M116.534 346.927C125.461 356.025 132.637 369.52 141.457 377.047C139.827 364.452 137.225 351.001 131.117 339.651C124.916 328.123 113.638 318.626 102.155 319.409C87.9245 320.38 76.2076 336.982 74.7012 352.034C75.6017 343.027 93.6906 336.931 100.595 337.784C111.407 358.196 115.593 398.428 115.593 398.428C124.6 375.653 120.953 357.739 116.534 346.927Z" fill="#8B5E3C"/>
</svg>
