<svg width="530" height="600" viewBox="0 0 530 600" fill="none" xmlns="http://www.w3.org/2000/svg">
<path fill-rule="evenodd" clip-rule="evenodd" d="M401.972 279.862C406.174 281.925 413.161 284.862 419.796 286.222C420.534 288.5 420.934 290.911 420.928 293.193C420.908 301.154 417.271 309.706 407.977 308.729C400.178 307.909 398.193 297.751 398.206 292.75C398.218 287.847 399.613 283.095 401.972 279.862Z" fill="#2A1200"/>
<path fill-rule="evenodd" clip-rule="evenodd" d="M298.2 292.531C297.818 294.403 297.609 296.414 297.604 298.547C297.572 311.002 303.789 317.536 313.134 320.013C326.118 321.981 332.377 312.338 332.407 300.461C332.425 293.559 329.536 286.747 325.028 282.258C319.426 286.544 310.594 290.961 298.2 292.531Z" fill="#2A1200"/>
<path d="M326.846 237.734C313.131 239.751 300.701 249.058 294.454 261.918C292.44 266.065 293.387 271.985 297.69 274.581C301.666 276.983 307.301 276.316 309.455 271.873C310.101 270.542 310.806 269.25 311.595 268.01C311.841 267.623 312.611 266.832 312.772 266.326C312.901 266.166 313.026 266.009 313.159 265.852C313.979 264.882 314.845 263.957 315.754 263.079C316.275 262.577 316.809 262.095 317.355 261.626C317.528 261.478 317.702 261.335 317.88 261.19C318.404 260.918 318.945 260.416 319.407 260.117C320.009 259.728 320.62 259.36 321.246 259.008C322.336 258.395 323.458 257.837 324.605 257.342C324.765 257.273 324.924 257.208 325.087 257.142C325.727 256.943 326.361 256.729 327.01 256.551C328.39 256.176 329.794 255.897 331.213 255.686C335.646 255.036 338.7 249.5 337.38 244.904C335.92 239.846 331.595 237.037 326.846 237.734Z" fill="#71472D"/>
<path d="M424.206 254.439C421.069 246.591 415.095 240.449 407.78 237.251C405.805 236.388 403.2 236.568 401.244 237.536C399.317 238.488 397.383 240.538 396.68 242.731C395.951 245.009 395.778 247.607 396.762 249.793C397.759 252.009 399.3 253.646 401.443 254.586C401.794 254.739 402.124 254.932 402.469 255.104C403.451 255.748 404.375 256.47 405.253 257.265C406.21 258.339 407.066 259.501 407.825 260.75C408.054 261.228 408.307 261.694 408.507 262.192C409.368 264.34 411.157 266.169 413.188 266.985C415.132 267.766 417.801 267.754 419.724 266.696C421.716 265.602 423.537 263.846 424.289 261.5C425.039 259.162 425.116 256.713 424.206 254.439Z" fill="#71472D"/>
</svg>
