<svg width="530" height="600" viewBox="0 0 530 600" fill="none" xmlns="http://www.w3.org/2000/svg">
<path d="M300.349 309.163C309.181 309.003 318.023 312.185 325.845 316.937C330.536 312.143 332.791 303.953 331.028 295.398C328.556 283.391 319.204 275.34 310.141 277.418C301.077 279.496 295.739 290.916 298.215 302.923C298.676 305.176 299.447 307.233 300.349 309.163Z" fill="#2A1200"/>
<path d="M418.11 306.627C419.412 303.75 420.177 300.235 420.103 296.397C419.923 286.858 414.814 279.163 408.692 279.215C402.568 279.264 397.751 287.04 397.931 296.583C398.031 301.829 399.654 306.463 402.081 309.611C407.192 307.629 412.62 306.683 418.11 306.627Z" fill="#2A1200"/>
<path d="M333.495 238.676C319.812 236.451 305.149 241.563 295.306 251.932C292.133 255.275 291.245 261.205 294.561 264.98C297.624 268.473 303.197 269.541 306.594 265.958C307.612 264.883 308.675 263.865 309.802 262.922C310.153 262.628 311.127 262.106 311.433 261.673C311.604 261.56 311.771 261.447 311.946 261.338C313.021 260.661 314.126 260.042 315.257 259.48C315.906 259.159 316.56 258.861 317.223 258.578C317.432 258.491 317.642 258.407 317.855 258.322C318.437 258.221 319.104 257.906 319.635 257.761C320.327 257.572 321.021 257.407 321.723 257.26C322.948 257.005 324.186 256.813 325.428 256.688C325.603 256.671 325.774 256.657 325.949 256.644C326.619 256.647 327.288 256.634 327.961 256.661C329.39 256.721 330.812 256.88 332.229 257.108C336.65 257.828 341.236 253.476 341.367 248.695C341.506 243.433 338.232 239.448 333.495 238.676Z" fill="#71472D"/>
<path d="M422.358 248.39C417.39 241.554 410.088 237.067 402.212 235.765C400.086 235.414 397.605 236.229 395.947 237.647C394.313 239.044 392.942 241.506 392.799 243.805C392.652 246.192 393.123 248.753 394.614 250.63C396.125 252.533 398.021 253.741 400.329 254.126C400.707 254.188 401.074 254.294 401.451 254.376C402.561 254.759 403.634 255.232 404.681 255.787C405.872 256.593 406.987 257.508 408.03 258.533C408.37 258.94 408.73 259.33 409.046 259.762C410.408 261.633 412.592 262.967 414.761 263.259C416.837 263.538 419.421 262.871 421.025 261.373C422.688 259.822 424.021 257.673 424.173 255.215C424.326 252.764 423.799 250.37 422.358 248.39Z" fill="#71472D"/>
</svg>
