<svg width="530" height="600" viewBox="0 0 530 600" fill="none" xmlns="http://www.w3.org/2000/svg">
<path d="M340.876 308.878C325.256 296.897 306.172 299.253 297.776 302.174C297.58 302.242 297.431 301.988 297.568 301.832C319.146 277.349 335.391 295.69 341.189 308.65C341.273 308.84 341.041 309.004 340.876 308.878Z" fill="#2A1200"/>
<path d="M419.013 295.265C418.998 303.225 415.394 311.774 406.172 310.791C398.432 309.967 396.456 299.808 396.466 294.807C396.483 286.06 400.866 277.796 407.261 277.784C414.138 277.771 419.029 287.304 419.013 295.265Z" fill="#2A1200"/>
<path d="M333.495 238.676C319.812 236.451 305.149 241.563 295.306 251.932C292.133 255.275 291.245 261.205 294.561 264.98C297.624 268.473 303.197 269.541 306.594 265.958C307.612 264.883 308.675 263.865 309.802 262.922C310.153 262.628 311.127 262.106 311.433 261.673C311.604 261.56 311.771 261.447 311.946 261.338C313.021 260.661 314.126 260.042 315.257 259.48C315.906 259.159 316.56 258.861 317.223 258.578C317.432 258.491 317.642 258.407 317.855 258.322C318.437 258.221 319.104 257.906 319.635 257.761C320.327 257.572 321.021 257.407 321.723 257.26C322.948 257.005 324.186 256.813 325.428 256.688C325.603 256.671 325.774 256.657 325.949 256.644C326.619 256.647 327.288 256.634 327.961 256.661C329.39 256.721 330.812 256.88 332.229 257.108C336.65 257.828 341.236 253.476 341.367 248.695C341.506 243.433 338.232 239.448 333.495 238.676Z" fill="#71472D"/>
<path d="M421.358 248.39C416.39 241.554 409.088 237.067 401.212 235.765C399.086 235.414 396.605 236.229 394.947 237.647C393.313 239.044 391.942 241.506 391.799 243.805C391.652 246.192 392.123 248.753 393.614 250.63C395.125 252.533 397.021 253.741 399.329 254.126C399.707 254.188 400.074 254.294 400.451 254.376C401.561 254.759 402.634 255.232 403.681 255.787C404.872 256.593 405.987 257.508 407.03 258.533C407.37 258.94 407.73 259.33 408.046 259.762C409.408 261.633 411.592 262.967 413.761 263.259C415.837 263.538 418.421 262.871 420.025 261.373C421.688 259.822 423.021 257.673 423.173 255.215C423.326 252.764 422.799 250.37 421.358 248.39Z" fill="#71472D"/>
</svg>
