<svg width="530" height="600" viewBox="0 0 530 600" fill="none" xmlns="http://www.w3.org/2000/svg">
<path d="M331.178 300.479C331.155 312.355 324.95 321.994 312.066 320.018C302.792 317.535 296.618 310.999 296.642 298.544C296.668 285.495 304.269 277.027 312.15 277.012C322.684 276.992 331.201 288.603 331.178 300.479Z" fill="#2A1200"/>
<path d="M419.013 295.265C418.998 303.225 415.394 311.774 406.171 310.791C398.432 309.967 396.456 299.808 396.466 294.807C396.483 286.06 400.866 277.796 407.261 277.784C414.138 277.771 419.029 287.304 419.013 295.265Z" fill="#2A1200"/>
<path d="M336.947 244.202C324.524 238.05 309.006 238.622 296.548 245.637C292.532 247.898 289.938 253.304 291.997 257.888C293.898 262.127 298.91 264.788 303.21 262.362C304.499 261.635 305.815 260.975 307.17 260.405C307.592 260.227 308.676 260.015 309.096 259.691C309.293 259.633 309.485 259.575 309.684 259.522C310.911 259.191 312.149 258.924 313.396 258.72C314.111 258.604 314.823 258.512 315.54 258.437C315.766 258.414 315.991 258.396 316.219 258.378C316.805 258.452 317.536 258.348 318.085 258.365C318.802 258.388 319.514 258.434 320.229 258.501C321.475 258.617 322.714 258.798 323.938 259.044C324.11 259.079 324.278 259.116 324.449 259.154C325.089 259.355 325.732 259.54 326.366 259.763C327.715 260.241 329.027 260.811 330.314 261.446C334.328 263.435 339.991 260.624 341.524 256.094C343.204 251.105 341.247 246.333 336.947 244.202Z" fill="#71472D"/>
<path d="M420.529 244.526C413.101 240.494 404.58 239.588 396.91 241.803C394.84 242.401 392.951 244.204 392.065 246.198C391.191 248.162 391.014 250.975 391.874 253.111C392.769 255.329 394.297 257.438 396.45 258.49C398.633 259.557 400.865 259.832 403.114 259.186C403.482 259.079 403.859 259.017 404.234 258.929C405.401 258.796 406.573 258.761 407.757 258.812C409.179 259.027 410.579 259.373 411.962 259.849C412.444 260.07 412.936 260.267 413.408 260.521C415.442 261.624 417.988 261.887 420.071 261.217C422.065 260.575 424.111 258.861 424.914 256.818C425.747 254.703 426.026 252.189 425.105 249.905C424.188 247.627 422.681 245.693 420.529 244.526Z" fill="#71472D"/>
</svg>
