<svg width="530" height="600" viewBox="0 0 530 600" fill="none" xmlns="http://www.w3.org/2000/svg">
<rect width="530" height="600" fill="#E5E5E5"/>
<rect x="-1274" y="-149" width="2500" height="2955" rx="45" fill="white"/>
<path d="M304.778 109.621C304.778 109.621 436.166 130.213 426.203 317.748C426.166 318.443 441.394 328.57 442.587 329.652C453.205 339.272 462.114 351.592 466.009 366.003C479.881 417.322 430.286 470.199 390.179 484.234C375.198 489.476 359.364 492.021 343.498 492.483C240.359 495.492 103.808 429.828 96.7951 301.59C96.5439 296.989 96.4819 292.383 96.6001 287.788C97.2218 263.439 103.089 239.725 111.931 217.706C111.927 217.707 169.328 75.0891 304.778 109.621Z" fill="#EBE4E4"/>
<path opacity="0.3" d="M363.803 328.889C363.803 328.889 384.645 309.025 400.78 327.701L363.803 328.889Z" fill="#C9BABA"/>
<path d="M169.754 418.895C85.5516 459.571 26.6874 382.453 56.9186 333.269C76.2026 301.896 119.311 295.622 139.86 320.763C151.987 335.6 160.631 355.198 164.3 374.369" fill="#EBE4E4"/>
<path opacity="0.3" d="M115.268 349.55C123.985 357.3 130.086 369.421 138.912 375.685C138.921 363.848 137.961 351.297 132.747 341.109C127.455 330.762 116.151 322.875 103.111 324.806C86.9512 327.2 71.3329 344.233 67.4343 358.735C69.7663 350.057 91.019 342.379 98.6656 342.48C107.847 360.82 106.671 398.733 106.671 398.733C120.142 376.096 118.66 359.398 115.268 349.55Z" fill="#C9BABA"/>
<mask id="mask0" style="mask-type:alpha" maskUnits="userSpaceOnUse" x="399" y="183" width="67" height="113">
<path d="M426.108 295.5C425.587 246.368 414.655 210.147 399.531 183.5C417.71 183.5 456.069 192.6 464.069 229C472.069 265.4 442.095 288.5 426.108 295.5Z" fill="#C4C4C4"/>
</mask>
<g mask="url(#mask0)">
<circle cx="407.5" cy="242.583" r="44.5" fill="#2B1200"/>
</g>
<path fill-rule="evenodd" clip-rule="evenodd" d="M411.997 223.535C399.498 223.535 388.164 218.413 379.873 210.099C371.489 218.413 360.026 223.535 347.387 223.535C331.465 223.535 317.411 215.406 309.025 203.009C299.676 215.484 284.914 223.535 268.304 223.535C260.987 223.535 254.028 221.973 247.733 219.158C241.901 234.288 229.307 245.966 213.735 250.343C215.271 255.293 216.099 260.562 216.099 266.029C216.099 280.804 210.047 294.142 200.328 303.617C199.48 342.245 181.578 362.281 170.5 368.083C167.833 370.25 156.5 369.583 156.5 369.583C153.101 353.935 140.924 324.767 116.782 310.337C114.939 310.542 113.067 310.647 111.171 310.647C82.9102 310.647 60 287.341 60 258.592C60 243.731 66.1222 230.324 75.9411 220.839C67.9513 211.656 63.1013 199.581 63.1013 186.353C63.1013 158.839 84.086 136.311 110.663 134.426C111.148 106.109 133.637 83.3065 161.309 83.3065C168.735 83.3065 175.788 84.9487 182.143 87.8989C190.057 69.558 208.068 56.748 229.021 56.748C240.553 56.748 251.194 60.6284 259.75 67.1757C268.834 53.2026 284.322 44 301.901 44C323.121 44 341.294 57.4088 348.833 76.4312C355.307 73.344 362.523 71.6208 370.13 71.6208C398.106 71.6208 420.784 94.9264 420.784 123.675C420.784 125.741 420.667 127.779 420.44 129.781C441.814 133.855 458 153.116 458 176.261C458 202.37 437.404 223.535 411.997 223.535Z" fill="#2B1200"/>
</svg>
