<svg width="530" height="600" viewBox="0 0 530 600" fill="none" xmlns="http://www.w3.org/2000/svg">
<rect width="530" height="600" fill="#E5E5E5"/>
<rect x="-705" y="-1477" width="2500" height="2955" rx="45" fill="white"/>
<path d="M304.778 110.621C304.778 110.621 436.166 131.213 426.202 318.748C426.166 319.443 441.394 329.57 442.586 330.652C453.205 340.272 462.114 352.591 466.009 367.003C479.881 418.321 430.285 471.199 390.179 485.234C375.198 490.476 359.364 493.021 343.498 493.483C240.359 496.492 103.808 430.828 96.7949 302.59C96.5437 297.989 96.4817 293.383 96.5999 288.788C97.2216 264.439 103.088 240.725 111.93 218.706C111.927 218.707 169.328 76.0891 304.778 110.621Z" fill="#EBE4E4"/>
<path opacity="0.3" d="M363.803 329.889C363.803 329.889 384.645 310.025 400.78 328.701L363.803 329.889Z" fill="#C9BABA"/>
<path d="M169.754 419.896C85.5515 460.571 26.6873 383.453 56.9185 334.269C76.2025 302.896 119.311 296.622 139.86 321.763C151.987 336.6 160.631 356.198 164.3 375.37" fill="#EBE4E4"/>
<path opacity="0.3" d="M115.268 350.549C123.984 358.3 130.086 370.421 138.912 376.685C138.921 364.848 137.96 352.297 132.747 342.109C127.454 331.762 116.15 323.875 103.111 325.806C86.9511 328.2 71.3328 345.233 67.4342 359.735C69.7662 351.057 91.0188 343.379 98.6655 343.48C107.847 361.82 106.671 399.733 106.671 399.733C120.142 377.095 118.659 360.398 115.268 350.549Z" fill="#C9BABA"/>
<path d="M96.2357 288.788C96.1176 293.383 96.1796 297.989 96.4308 302.59C134.52 309.062 152.56 349.893 156.819 369.5C156.819 369.5 168.152 370.167 170.819 368C184.819 360.667 209.719 330.6 197.319 269C191.319 241 195.319 218.706 244.319 184C293.319 149.294 371.319 171 387.319 184C400.119 194.4 406.254 198.333 407.721 199C373.556 121.458 304.414 110.621 304.414 110.621C168.964 76.089 111.562 218.707 111.566 218.706C102.724 240.725 96.8575 264.438 96.2357 288.788Z" fill="#AA5A10"/>
<path d="M342.553 169C327.22 150.333 288.953 124.2 258.553 169C220.553 225 248.553 249 236.553 297C224.553 345 198.553 361 204.553 393C210.553 425 256.553 479 236.553 513C236.553 513 203.825 508.503 165.052 499.886C150.803 496.72 150.837 482.517 149.159 476.83L147.552 474.5C143.907 473.633 145.733 495.359 142.052 494.423C104.916 484.983 67.0257 472.075 49.5526 456C53.2193 448 57.1526 425.4 43.5526 399C26.5526 366 34.5526 338 49.5526 319C64.5526 300 61.5525 276 55.5525 247C49.5525 218 55.5525 175 84.5525 158C113.552 141 127.553 113 150.552 99C173.552 85 258.553 52.9998 313.552 99C318.886 95.3333 338.953 90.1999 364.553 99C396.553 110 424.631 160.712 428.552 194.5C435.052 250.5 451.052 270 455.052 289.5C457.728 302.543 460.052 315 448.552 337C438.552 327.5 431.552 323.5 425.553 319C426.553 307.667 427.553 278.8 423.553 254C418.553 223 397.052 145.5 356.052 158C351.719 159.5 349.753 162.6 342.553 169Z" fill="#D56C0C"/>
<path d="M442.052 474C444.852 467.2 443.219 453.833 442.052 448C430.052 461.2 414.386 472.167 408.052 476C417.253 477.6 434.552 475.333 442.052 474Z" fill="#D56C0C"/>
<path d="M216.552 172C239.752 132 288.886 125.333 310.552 127C193.552 115 182.552 195 182.552 226C182.552 250.8 185.552 265 177.552 279C148.552 313.5 159.219 345.667 164.552 358C159.552 332 169.552 313 191.552 288C213.552 263 187.552 222 216.552 172Z" fill="#AA5A10" fill-opacity="0.5"/>
<path d="M182.552 444C168.152 429.6 164.552 416 164.552 411C210.952 435 201.886 472.333 191.552 488C194.552 479.333 196.952 458.4 182.552 444Z" fill="#AA5A10" fill-opacity="0.5"/>
<path d="M112.552 279C121.352 259 119.552 235.333 117.552 226C117.552 256 98.5524 288 77.5524 326C60.7524 356.4 84.5524 392 98.5524 406C101.552 390 88.5525 378 87.5525 349C86.5525 320 101.552 304 112.552 279Z" fill="#AA5A10" fill-opacity="0.5"/>
<path d="M443.552 333C448.753 316.6 445.052 293.5 442.552 284C442.552 300.4 439.552 320.167 438.052 328L443.552 333Z" fill="#AA5A10" fill-opacity="0.5"/>
</svg>
