<svg width="530" height="600" viewBox="0 0 530 600" fill="none" xmlns="http://www.w3.org/2000/svg">
<rect width="530" height="600" fill="#E5E5E5"/>
<rect x="-1283" y="-1477" width="2500" height="2955" rx="45" fill="white"/>
<path d="M304.778 110.621C304.778 110.621 436.166 131.213 426.202 318.748C426.166 319.443 441.394 329.57 442.586 330.652C453.205 340.272 462.114 352.591 466.009 367.003C479.881 418.321 430.285 471.199 390.179 485.234C375.198 490.476 359.364 493.021 343.498 493.483C240.359 496.492 103.808 430.828 96.7949 302.59C96.5437 297.989 96.4817 293.383 96.5999 288.788C97.2216 264.439 103.088 240.725 111.93 218.706C111.927 218.707 169.328 76.0891 304.778 110.621Z" fill="#EBE4E4"/>
<path opacity="0.3" d="M363.803 329.889C363.803 329.889 384.645 310.025 400.78 328.701L363.803 329.889Z" fill="#C9BABA"/>
<path d="M169.754 404.895C85.5515 445.571 26.6873 368.454 56.9185 319.269C76.2025 287.896 119.311 281.622 139.86 306.763C151.987 321.6 160.631 341.198 164.3 360.37" fill="#EBE4E4"/>
<path opacity="0.3" d="M115.268 335.549C123.984 343.3 130.086 355.421 138.912 361.685C138.921 349.848 137.961 337.297 132.747 327.109C127.454 316.762 116.151 308.875 103.111 310.806C86.9511 313.2 71.3328 330.233 67.4342 344.735C69.7662 336.057 91.0189 328.379 98.6655 328.48C107.847 346.82 106.671 384.733 106.671 384.733C120.142 362.095 118.659 345.398 115.268 335.549Z" fill="#C9BABA"/>
<path d="M423 224.5C398 120.5 307.5 101.5 270.5 103C106.1 105 69.6667 238.167 72 310.5C73 308.5 75 307 75 307C88 300 95.5 302 98 302C141.5 304 156.833 355.5 154 377.5C161.9 384.907 172.727 377.684 177.329 374.614L177.5 374.5C181.1 372.1 177.5 361 177.5 354.5C168.5 312.5 170.5 252.5 173 252.5C175 252.5 202.5 250.167 213.5 248.5C212.7 238.1 209.833 208.167 213.5 203C210.3 208.2 223.667 239.833 225 246C274.5 251 375.5 233 378.5 231.5C380.9 230.3 377.5 203.667 375.5 190.5C383.1 197.7 389.333 222.167 390.5 231.5C400.1 230.7 416.167 226.5 423 224.5Z" fill="#71472D"/>
<path d="M283 119C306.333 120.667 360.4 135.2 390 180C378.333 155.667 340.6 109.4 283 119Z" fill="#613D25"/>
<path d="M331 167C338 176 352.2 200.6 353 227C358 216.333 360.6 189.4 331 167Z" fill="#613D25"/>
<path d="M132 251C136.8 197.4 172 158 189 145C125 165.8 111 234.333 112 266C112.8 226 135.667 192 147 180C136.6 198.4 132.667 235 132 251Z" fill="#613D25"/>
</svg>
