<svg width="530" height="600" viewBox="0 0 530 600" fill="none" xmlns="http://www.w3.org/2000/svg">
<rect width="530" height="600" fill="#E5E5E5"/>
<rect x="-140" y="-796" width="2500" height="2955" rx="45" fill="white"/>
<path d="M304.778 110.621C304.778 110.621 436.166 131.213 426.202 318.748C426.166 319.443 441.394 329.57 442.586 330.652C453.205 340.272 462.114 352.591 466.009 367.003C479.881 418.321 430.285 471.199 390.179 485.234C375.198 490.476 359.364 493.021 343.498 493.483C240.359 496.492 103.808 430.828 96.7949 302.59C96.5437 297.989 96.4817 293.383 96.5999 288.788C97.2216 264.438 103.088 240.725 111.93 218.706C111.927 218.707 169.328 76.089 304.778 110.621Z" fill="#EBE4E4"/>
<path opacity="0.3" d="M363.803 329.889C363.803 329.889 384.645 310.025 400.78 328.701L363.803 329.889Z" fill="#C9BABA"/>
<path d="M169.754 419.895C85.5515 460.571 26.6873 383.454 56.9185 334.269C76.2025 302.896 119.311 296.622 139.86 321.763C151.987 336.6 160.631 356.198 164.3 375.37" fill="#EBE4E4"/>
<path opacity="0.3" d="M115.268 350.549C123.984 358.3 130.086 370.421 138.912 376.685C138.921 364.848 137.96 352.297 132.747 342.109C127.454 331.762 116.15 323.875 103.111 325.806C86.9511 328.2 71.3328 345.233 67.4342 359.735C69.7662 351.057 91.0188 343.379 98.6655 343.48C107.847 361.82 106.671 399.733 106.671 399.733C120.142 377.095 118.659 360.398 115.268 350.549Z" fill="#C9BABA"/>
<path d="M94.1569 287.598C94.0261 292.196 94.0775 296.804 94.3203 301.407C132.827 307.79 150.972 348.598 155.231 368.204C155.231 368.204 166.691 368.844 169.393 366.669C183.571 359.298 208.827 329.154 196.437 267.552C190.438 239.552 194.538 217.237 244.179 182.392C293.821 147.547 372.655 169.074 388.805 182.042C401.725 192.416 403.097 194 407 196.5C372.636 119 305.138 108.827 305.138 108.827C168.232 74.6089 109.829 217.443 109.833 217.442C100.837 239.494 94.8453 263.234 94.1569 287.598Z" fill="#D0BA9E"/>
</svg>
