<svg width="530" height="600" viewBox="0 0 530 600" fill="none" xmlns="http://www.w3.org/2000/svg">
<rect width="530" height="600" fill="#E5E5E5"/>
<rect x="-705" y="-148" width="2500" height="2955" rx="45" fill="white"/>
<path d="M304.778 110.621C304.778 110.621 436.166 131.213 426.202 318.748C426.166 319.443 441.394 329.57 442.586 330.652C453.205 340.272 462.114 352.592 466.009 367.003C479.881 418.322 430.285 471.199 390.179 485.234C375.198 490.476 359.364 493.021 343.498 493.483C240.359 496.492 103.808 430.828 96.7949 302.59C96.5437 297.989 96.4817 293.383 96.5999 288.788C97.2216 264.439 103.088 240.725 111.93 218.706C111.927 218.707 169.328 76.0891 304.778 110.621Z" fill="#EBE4E4"/>
<path opacity="0.3" d="M363.803 329.889C363.803 329.889 384.645 310.025 400.78 328.701L363.803 329.889Z" fill="#C9BABA"/>
<path d="M169.754 419.896C85.5515 460.571 26.6873 383.454 56.9185 334.269C76.2025 302.896 119.311 296.622 139.86 321.763C151.987 336.6 160.631 356.198 164.3 375.37" fill="#EBE4E4"/>
<path opacity="0.3" d="M115.268 350.55C123.984 358.3 130.086 370.421 138.912 376.685C138.921 364.848 137.96 352.297 132.747 342.109C127.454 331.762 116.15 323.875 103.111 325.806C86.9511 328.2 71.3328 345.233 67.4342 359.735C69.7662 351.057 91.0188 343.379 98.6655 343.48C107.847 361.82 106.671 399.733 106.671 399.733C120.142 377.096 118.659 360.398 115.268 350.55Z" fill="#C9BABA"/>
<path d="M95.917 288.624C95.7988 293.22 95.8608 297.826 96.112 302.427C134.202 308.899 152.241 349.73 156.5 369.337C156.5 369.337 167.833 370.003 170.5 367.837C184.5 360.503 209.4 330.437 197 268.837C191 240.837 195 218.543 244 183.837C293 149.13 371 170.837 387 183.837C399.8 194.237 405.935 198.17 407.403 198.837C373.237 121.294 304.095 110.457 304.095 110.457C168.645 75.9256 109.923 214.457 108.5 218C99.658 240.018 96.5387 264.275 95.917 288.624Z" fill="#CDCCFF"/>
<path d="M440 102.837C409.6 114.037 389 160.837 383 180.837C354.5 166.837 336 165.837 306 164.837C309.333 154.17 267.5 121.837 225 126.837C170.879 133.204 138.5 171.837 136 176.837L106 142.837C195.6 -10.7635 366 52.1699 440 102.837Z" fill="#7D7AFF"/>
<path d="M440 102.837C409.6 114.037 389 160.837 383 180.837C354.5 166.837 336 165.837 306 164.837C309.333 154.17 267.5 121.837 225 126.837C170.879 133.204 138.5 171.837 136 176.837L106 142.837C131 114.67 202.6 64.0365 289 86.8365L440 102.837Z" fill="#605DE4"/>
<path d="M440 102.837C409.6 114.037 389 160.837 383 180.837C354.5 166.837 336 165.837 306 164.837C310 132.037 288.333 97.0032 281 84.3366C324.5 62.3366 419.919 89.0872 440 102.837Z" fill="#5754D2"/>
</svg>
