<svg width="549" height="600" viewBox="0 0 549 600" fill="none" xmlns="http://www.w3.org/2000/svg">
<rect width="549" height="600" fill="#E5E5E5"/>
<rect x="-1836" y="-1483" width="2500" height="2955" rx="45" fill="white"/>
<path d="M323.778 111.621C323.778 111.621 455.166 132.213 445.202 319.748C445.166 320.443 460.394 330.57 461.586 331.652C472.205 341.272 481.114 353.591 485.009 368.003C498.881 419.321 449.285 472.199 409.179 486.234C394.198 491.476 378.364 494.021 362.498 494.483C259.359 497.492 122.808 431.828 115.795 303.59C115.544 298.989 115.482 294.383 115.6 289.788C116.222 265.439 122.088 241.725 130.93 219.706C130.927 219.707 188.328 77.0891 323.778 111.621Z" fill="#EBE4E4"/>
<path opacity="0.3" d="M382.803 330.889C382.803 330.889 403.645 311.025 419.78 329.701L382.803 330.889Z" fill="#C9BABA"/>
<path d="M188.754 405.896C104.552 446.571 45.6873 369.453 75.9185 320.269C95.2025 288.896 138.311 282.622 158.86 307.763C170.987 322.6 179.631 342.198 183.3 361.37" fill="#EBE4E4"/>
<path opacity="0.3" d="M134.268 336.549C142.984 344.3 149.086 356.421 157.912 362.685C157.921 350.848 156.961 338.297 151.747 328.109C146.454 317.762 135.151 309.875 122.111 311.806C105.951 314.2 90.3328 331.233 86.4342 345.735C88.7662 337.057 110.019 329.379 117.666 329.48C126.847 347.82 125.671 385.733 125.671 385.733C139.142 363.095 137.659 346.398 134.268 336.549Z" fill="#C9BABA"/>
<path d="M344.098 94.6361C372.287 122.786 383.778 157.085 386 170.716C364.713 189.759 337.256 232.503 302 257.257C273.754 277.088 241.5 287.641 215.461 292.619C195.555 315.734 200.633 341.087 186.013 342C177.124 321.395 160.711 287.784 115 303C76.496 315.817 74.6198 359.31 87 381.5C93.9837 393.863 122.289 421.586 168 415.5L197.5 441C194.643 446.389 189.251 454.113 171.728 461.721C149.825 471.231 47.9264 462.672 38.4032 400.857C14.5952 380.252 -22.7357 322.685 18.4045 257.257C31.0072 237.214 48.7456 222.855 69.7472 213.614C69.4914 205.422 69.4819 195.923 69.8298 184.981C71.7344 125.068 127.921 76.5672 171.728 66.1062C215.535 55.6452 308.862 59.4492 344.098 94.6361Z" fill="#3A1A00"/>
<path d="M432.5 215.5C416.9 191.9 396.333 176 385 170.5C380.6 140.9 353.833 106.167 341 92.5C462 47 492.833 193.833 488.5 249.5C510.9 293.5 495.5 356.167 487.5 381C483.5 347.4 456.167 325 443.5 319.5C449.1 289.1 438.5 237.5 432.5 215.5Z" fill="#3A1A00"/>
</svg>
