<svg width="530" height="600" viewBox="0 0 530 600" fill="none" xmlns="http://www.w3.org/2000/svg">
<rect width="530" height="600" fill="#E5E5E5"/>
<rect x="-140" y="-1456" width="2500" height="2955" rx="45" fill="white"/>
<path d="M305.778 109.621C305.778 109.621 437.166 130.213 427.202 317.748C427.166 318.443 442.394 328.57 443.586 329.652C454.205 339.272 463.114 351.591 467.009 366.003C480.881 417.321 431.285 470.199 391.179 484.234C376.198 489.476 360.364 492.021 344.498 492.483C241.359 495.492 104.808 429.828 97.7949 301.59C97.5437 296.989 97.4817 292.383 97.5999 287.788C98.2216 263.439 104.088 239.725 112.93 217.706C112.927 217.707 170.328 75.0891 305.778 109.621Z" fill="#EBE4E4"/>
<path opacity="0.3" d="M364.803 328.889C364.803 328.889 385.645 309.025 401.78 327.701L364.803 328.889Z" fill="#C9BABA"/>
<path d="M170.754 418.895C86.5515 459.571 27.6873 382.454 57.9185 333.269C77.2025 301.896 120.311 295.622 140.86 320.763C152.987 335.6 161.631 355.198 165.3 374.369" fill="#EBE4E4"/>
<path opacity="0.3" d="M116.268 349.549C124.984 357.3 131.086 369.421 139.912 375.685C139.921 363.848 138.961 351.297 133.747 341.109C128.454 330.762 117.15 322.875 104.111 324.806C87.9511 327.2 72.3328 344.233 68.4342 358.735C70.7662 350.057 92.0188 342.379 99.6655 342.48C108.847 360.82 107.671 398.733 107.671 398.733C121.142 376.095 119.659 359.398 116.268 349.549Z" fill="#C9BABA"/>
<path d="M274 104C362.8 106.4 406.5 169.5 415 202.5C360 193.833 223.454 168.041 205 218C164 329 190 461 205 515C149.8 519 81.3334 499.333 54 489C48.4999 482.5 52.2764 507.963 44 385C30 177 146 134.5 184 117.5C214.4 103.9 257 101.333 274 104Z" fill="#220F00"/>
<path d="M438.5 486.5C435.7 481.3 435.667 463 436 454.5C411.2 476.9 385.333 487.167 375.5 489.5C394.7 491.9 425.5 488.5 438.5 486.5Z" fill="#220F00"/>
<mask id="mask0" style="mask-type:alpha" maskUnits="userSpaceOnUse" x="42" y="103" width="397" height="413">
<path d="M274 104C362.8 106.4 399 161 406 188C351 179.333 223.454 168.041 205 218C164 329 190 461 205 515C149.8 519 81.3334 499.333 54 489C48.4999 482.5 52.2764 507.963 44 385C30 177 146 134.5 184 117.5C214.4 103.9 257 101.333 274 104Z" fill="#2A1200"/>
<path d="M438.5 486.5C435.7 481.3 435.667 463 436 454.5C411.2 476.9 385.333 487.167 375.5 489.5C394.7 491.9 425.5 488.5 438.5 486.5Z" fill="#2A1200"/>
</mask>
<g mask="url(#mask0)">
<path d="M303.032 146.226C303.032 146.226 290.737 142.545 276.522 153.794C276.522 153.794 283.427 140.984 290.799 137.141C290.799 137.141 262.744 135.465 240.853 162.469C240.853 162.469 251.428 136.03 267.974 127.653C267.974 127.653 246.91 131.174 237.638 139.675C237.638 139.675 239.117 124.062 250.041 117.408C250.041 117.408 231.702 107.917 215.351 111.773C215.351 111.773 246.716 102.012 257.216 102.957C276.889 99.3698 303.578 109.265 303.578 109.265C297.069 109.616 289.959 115.24 289.959 115.24C307.157 114.74 325.767 122.584 325.767 122.584C317.105 122.39 310.756 128.492 310.756 128.492C330.008 132.507 343.622 145.087 343.622 145.087C338.919 141.329 323.782 142.921 323.782 142.921C333.332 147.909 342.547 159.943 342.547 159.943L325.052 153.805C325.052 153.805 316.357 182.432 312.659 187.778C312.659 187.778 317.303 163.262 313.777 155.806C313.777 155.806 295.853 175.82 280.106 189.536C280.108 189.524 292.277 155.209 303.032 146.226Z" fill="#1B0C01"/>
</g>
<path d="M286.759 270.913C360.907 272.087 413.148 261.125 430 255.498C427.593 217.327 402.148 143.349 315 141C227.852 138.651 181.636 215.37 170 255.498C195.037 269.004 250.448 270.179 275.324 270.913L282.546 238.615L286.759 270.913Z" fill="#220F00"/>
<path d="M193 172C173 230.333 141.6 376 176 492C148.333 427.667 113 273.6 193 172Z" fill="#150901"/>
<path d="M108 302C108 244.4 148 180.667 168 156C63.2001 204 71.6667 332.667 89 391C73.8001 302.2 99.3334 244.667 114 227C106 251.8 106.667 287.333 108 302Z" fill="#150901"/>
<path d="M347 164C364.333 172.667 399.4 201.2 401 246C404.333 221.333 398.2 170.4 347 164Z" fill="#150901"/>
<path d="M284 172C278 182.333 266.2 208.8 267 232C261.667 220.667 257.6 192.8 284 172Z" fill="#150901"/>
</svg>
