<svg width="530" height="600" viewBox="0 0 530 600" fill="none" xmlns="http://www.w3.org/2000/svg">
<path d="M442.056 160.889C441.184 143.655 434.856 117.701 414.723 123.708C411.192 124.76 408.091 127.073 405.712 130.075C404.789 126.628 403.446 123.192 401.764 119.8C397.102 110.391 384.385 106.655 376.066 112.482C374.147 113.828 372.561 115.474 371.221 117.27C351.313 101.944 329.952 88.7403 306.676 81.0366C272.723 69.7961 235.778 70.7619 201.646 81.3449C197.986 82.4785 194.354 83.7254 190.753 85.072C156.742 97.7952 122.347 119.269 99.9342 150.139C77.9433 180.423 66.5576 217.957 62.7846 255.982C61.6953 266.945 61.1319 277.977 61.1486 289.005C61.1486 290.07 61.1486 283.804 61.4824 296.5C71.1482 274.5 109.148 279 109.148 279L131.148 304C136.461 310.761 142.218 352.47 149 347.5L152 346C156.67 342.577 154.125 315.603 153.987 309.486C153.094 269.262 169.634 227.271 196.466 202.777C223.741 177.879 263.328 168.294 299.534 166.04C329.927 164.149 359.522 171.794 385.791 188.589C394.218 193.976 402.235 200.174 409.602 207.161C410.132 207.665 417.377 215.74 417.69 215.577C435.487 206.418 442.381 184.377 442.16 164.249C442.148 163.175 442.114 162.05 442.056 160.889Z" fill="#E9B729"/>
<path d="M306.676 81.0414C329.952 88.7451 351.313 101.949 371.221 117.275C372.252 115.887 373.487 114.645 374.856 113.52C372.135 116.617 369.994 120.635 368.191 124.461C360.156 117.669 350.04 113.933 339.889 117.043C330.177 120.022 323.32 128.243 319.196 137.883C296.033 123.958 271.241 118.649 242.79 124.008C208.724 130.424 178.954 154.084 159.183 184.441C132.564 225.317 132.262 302.694 152.308 345.565C151.824 346.023 152.308 345.565 149.015 348.15C142.233 353.119 133.5 317.5 114 307.5C105.333 302.667 83.4003 298.4 65 318C61.1486 300.5 61.1486 292.5 61.1486 283.5C61.1321 272.616 61.6807 267.095 62.7424 256.412L62.7846 255.986C66.5576 217.962 77.9433 180.428 99.9342 150.143C122.347 119.274 156.742 97.8 190.753 85.0769C194.355 83.7303 197.986 82.4833 201.646 81.3498C235.778 70.7668 272.723 69.801 306.676 81.0414Z" fill="#DFAF27"/>
</svg>
