<svg width="530" height="600" viewBox="0 0 530 600" fill="none" xmlns="http://www.w3.org/2000/svg">
<path d="M145 333.5C246 300.5 319.5 208 352 163C366 196.6 403.833 221 421 229C413 191 392 153 350 124.5C316.4 101.7 265.833 99.6667 246 102C19.9997 123.5 28.0089 378 50.3422 483C78.2896 503 149.316 541.6 209.842 536C202.242 516.8 207.833 474.833 211 458C198.6 453.2 163.167 423.667 152 415C135.5 422 129 422 108.5 418C34.4999 384 66.4999 330.5 66.4999 330.5C66.4999 330.5 76.4999 310.5 104 310C126 309.6 138.167 321.833 145 333.5Z" fill="#220F01"/>
<path d="M434.5 521C427.7 511.4 431.667 467.833 434.5 453C406.5 476.5 390 488 332.5 489.5C351 500 397.3 521 434.5 521Z" fill="#220F01"/>
<path fill-rule="evenodd" clip-rule="evenodd" d="M258.693 111.97C240.748 131.446 209.648 162.032 174.273 190.941C139.769 219.138 100.178 246.594 64.2416 260.024C62.9365 261.368 60.2657 264.862 57.1967 272.353C53.53 281.303 49.8273 294.662 47.1374 313.527C41.76 351.241 40.18 387.272 50.5 474C51.3157 480.855 46 484.846 38 483C31.5 481.5 27.3157 475.855 26.5 469C16.0201 380.928 16.6068 350.542 22.3877 309.998C25.2771 289.734 29.4014 274.253 34.0628 262.875C38.5347 251.96 44.1363 243.245 51.04 238.617L52.3161 237.762L53.7613 237.241C86.0973 225.585 123.84 199.87 158.453 171.583C188.411 147.101 215.231 121.354 233.03 102.769C234.724 101 247 97.5 261.748 101C262.521 104.799 261.52 108.902 258.693 111.97ZM206.369 112.309C181.799 137.046 125.715 191.21 70.2041 215C67.771 216.043 82.7041 213.251 68 216C71.568 201.399 80.8141 184.06 86.8809 178C118.194 160.003 141.583 137.681 164.868 117C173.503 113.182 194.546 105.738 209.637 106.5C209.113 108.626 208.024 110.642 206.369 112.309ZM92.2644 289.765C205.266 229.517 285.476 142.531 308.5 106.5C300.9 100.1 286.978 100.346 280.967 101.769C260.489 133.815 189.389 210.178 78.1605 268.948L77.4539 269.321L76.8007 269.781C73.132 272.366 70.9993 276.204 69.7307 278.926C68.2697 282.062 66.9878 285.898 65.8437 290.349C63.5472 299.282 61.4967 311.925 59.9974 329.1C56.9937 363.511 55.5828 405.183 60 486.5C60.3745 493.393 68.5 499 72.5 500.5L72.6457 500.5C74.5541 500.506 84.0459 500.533 85 495.5C82.9577 457.902 82.553 428.232 82.4785 402C82.2372 401.592 81.4893 400.944 80.4044 400.005C74.8415 395.187 60.418 382.696 59.9974 355.5C62.4933 334.303 68.0967 327.617 70.2041 325.102C70.6319 324.592 70.9157 324.253 71 324C81 314 86.8809 313.5 86.8809 313.5C87.8912 306.303 88.9846 300.743 90.0565 296.573C90.9108 293.25 91.6855 291.072 92.2644 289.765ZM125.31 471.41C125.451 478.722 125.496 484.739 125.535 489.992C125.616 500.861 125.673 508.46 126.5 517.5C127.129 524.375 119.5 524.5 115.5 524.5C110.5 523.5 103.129 519.875 102.5 513L102.436 512.303L102.303 510.855C101.177 498.589 100.735 493.781 100.315 471.89C99.9341 452.062 100.319 431.076 102.581 415C105.958 417 115.568 420.5 127 420.5C125.34 434.024 124.951 452.708 125.31 471.41ZM107.16 295.948C218.24 237.257 299.442 142.17 320 110C326.167 110.811 339.8 114.14 345 120.967C321.891 157.13 239.021 252.991 124.5 313.5C123.683 313.931 121.759 313.237 119.407 312.387C117.439 311.677 115.171 310.858 113 310.5C109.008 309.841 102 310 102 310C98.7749 303.896 101.057 299.173 107.16 295.948ZM353.332 170.453C324.086 210.67 248 293.5 151 333C145.532 335.889 145.226 335.29 142.904 330.747L142.901 330.742C142.632 330.215 142.335 329.634 142 329C140.822 326.771 139.178 325.192 137.863 323.93C135.578 321.736 134.286 320.495 138.16 318.448C248.934 259.919 319.226 178.226 339.967 145.769C341.74 142.994 344.426 141.156 347.382 140.395C352.88 136.956 360.183 138.294 364.08 143.608C370.156 151.894 381.12 165.301 393.899 178.071C398.879 183.048 403.981 187.771 409.045 192C413.51 202.12 422.438 223.973 422.438 230.429C406.262 223.265 390.039 213.03 376.5 199.5C370.83 193.833 365.378 186.457 360.512 179.871L360.511 179.87C357.936 176.386 355.525 173.123 353.332 170.453ZM162.64 470.25C162.395 456.642 162.451 443.516 162.974 432.304C163.13 428.952 163.268 426.845 163.5 424L152 415C148.8 416.6 141.667 418.667 138.5 419.5C138.265 422.033 138.209 424.261 138.149 426.655C138.113 428.061 138.076 429.524 138.001 431.139C137.444 443.088 137.394 456.799 137.644 470.7C138.13 497.641 139.011 508.932 140.367 526.297L140.5 528C141.037 534.883 153.5 538 153.5 538C153.5 538 164.5 537.5 165 534C163.598 516.022 163.13 497.455 162.64 470.25ZM178.644 470.7C178.812 479.994 178.859 487.761 178.901 494.668C178.984 508.429 179.047 518.779 180 531C180.537 537.883 187.617 541.037 194.5 540.5C201.383 539.963 206.037 538.883 205.5 532C200.985 510.34 201.289 502.953 202.101 483.208C202.227 480.138 202.365 476.768 202.5 473C202.448 470.139 202.736 466.372 203.015 462.703C203.259 459.506 203.497 456.383 203.5 454C200 452 185.41 441.5 178.5 436C178.188 445.73 178.398 457.242 178.598 468.188V468.189C178.614 469.03 178.629 469.867 178.644 470.7ZM425.539 460.5C430.772 456.211 435.16 451.854 435 453C434.84 454.146 434.651 455.443 434.445 456.863C433.217 465.317 431.355 478.128 431.019 489.228C430.609 502.782 433.015 514.186 435 520C435.854 522.5 428 522 421.5 522C414.5 522 408.012 519.5 407.5 518C403.885 507.414 405.624 501.902 406.031 488.472C406.184 483.393 406.472 478.32 406.835 473.5C406.835 473.5 417 467.5 425.539 460.5ZM400 477C400 476.5 395 479.5 386.5 482C377.5 485 372.5 485.5 372.5 485.5C372.5 491.168 372.312 488.58 371.829 498.037C371.68 500.943 371.672 499.166 371.829 502.5C371.829 502.5 371.829 507 371.829 508.5C375.089 514.585 378 514.097 385 515.597C392 516.194 398 517 397.5 513C397 509 396.371 507.631 396.796 499.313C397.188 491.653 400 481.672 400 477Z" fill="#451E00"/>
<mask id="mask0" style="mask-type:alpha" maskUnits="userSpaceOnUse" x="18" y="99" width="418" height="442">
<path fill-rule="evenodd" clip-rule="evenodd" d="M258.693 111.97C240.748 131.446 209.648 162.032 174.273 190.941C139.769 219.138 100.178 246.594 64.2416 260.024C62.9365 261.368 60.2657 264.862 57.1967 272.353C53.53 281.303 49.8273 294.662 47.1374 313.527C41.76 351.241 40.18 387.272 50.5 474C51.3157 480.855 46 484.846 38 483C31.5 481.5 27.3157 475.855 26.5 469C16.0201 380.928 16.6068 350.542 22.3877 309.998C25.2771 289.734 29.4014 274.253 34.0628 262.875C38.5347 251.96 44.1363 243.245 51.04 238.617L52.3161 237.762L53.7613 237.241C86.0973 225.585 123.84 199.87 158.453 171.583C188.411 147.101 215.231 121.354 233.03 102.769C234.724 101 247 97.5 261.748 101C262.521 104.799 261.52 108.902 258.693 111.97ZM206.369 112.309C181.799 137.046 125.241 191.21 69.7307 215C67.2976 216.043 70.4105 214.494 68 214C71.568 199.399 80.8141 183.56 86.8809 177.5C118.194 159.503 141.583 137.681 164.868 117C173.503 113.182 194.546 105.738 209.637 106.5C209.113 108.626 208.024 110.642 206.369 112.309ZM92.2644 289.765C205.266 229.517 285.476 142.531 308.5 106.5C300.9 100.1 286.978 100.346 280.967 101.769C260.489 133.815 189.389 210.178 78.1605 268.948L77.4539 269.321L76.8007 269.781C73.132 272.366 70.9993 276.204 69.7307 278.926C68.2697 282.062 66.9878 285.898 65.8437 290.349C63.5472 299.282 61.4967 311.925 59.9974 329.1C56.9937 363.511 55.5828 405.183 60 486.5C60.3745 493.393 68.5 499 72.5 500.5L72.6457 500.5C74.5541 500.506 84.0459 500.533 85 495.5C82.9577 457.902 82.553 428.232 82.4785 402C82.2372 401.592 81.4893 400.944 80.4044 400.005C74.8415 395.187 60.418 382.696 59.9974 355.5C62.4933 334.303 68.0967 327.617 70.2041 325.102C70.6319 324.592 70.9157 324.253 71 324C81 314 86.8809 313.5 86.8809 313.5C87.8912 306.303 88.9846 300.743 90.0565 296.573C90.9108 293.25 91.6855 291.072 92.2644 289.765ZM125.31 471.41C125.451 478.722 125.496 484.739 125.535 489.992C125.616 500.861 125.673 508.46 126.5 517.5C127.129 524.375 119.5 524.5 115.5 524.5C110.5 523.5 103.129 519.875 102.5 513L102.436 512.303L102.303 510.855C101.177 498.589 100.735 493.781 100.315 471.89C99.9341 452.062 100.319 431.076 102.581 415C105.958 417 115.568 420.5 127 420.5C125.34 434.024 124.951 452.708 125.31 471.41ZM107.16 295.948C218.24 237.257 299.442 142.17 320 110C326.167 110.811 339.8 114.14 345 120.967C321.891 157.13 239.021 252.991 124.5 313.5C123.683 313.931 121.759 313.237 119.407 312.387C117.439 311.677 115.171 310.858 113 310.5C109.008 309.841 102 310 102 310C98.7749 303.896 101.057 299.173 107.16 295.948ZM353.332 170.453C324.086 210.67 248 293.5 151 333C145.532 335.889 145.226 335.29 142.904 330.747L142.901 330.742C142.632 330.215 142.335 329.634 142 329C140.822 326.771 139.178 325.192 137.863 323.93C135.578 321.736 134.286 320.495 138.16 318.448C248.934 259.919 319.226 178.226 339.967 145.769C341.74 142.994 344.426 141.156 347.382 140.395C352.88 136.956 360.183 138.294 364.08 143.608C370.156 151.894 381.12 165.301 393.899 178.071C398.879 183.048 403.981 187.771 409.045 192C413.51 202.12 422.438 223.973 422.438 230.429C406.262 223.265 390.039 213.03 376.5 199.5C370.83 193.833 365.378 186.457 360.512 179.871L360.511 179.87C357.936 176.386 355.525 173.123 353.332 170.453ZM162.64 470.25C162.395 456.642 162.451 443.516 162.974 432.304C163.13 428.952 163.268 426.845 163.5 424L152 415C148.8 416.6 141.667 418.667 138.5 419.5C138.265 422.033 138.209 424.261 138.149 426.655C138.113 428.061 138.076 429.524 138.001 431.139C137.444 443.088 137.394 456.799 137.644 470.7C138.13 497.641 139.011 508.932 140.367 526.297L140.5 528C141.037 534.883 153.5 538 153.5 538C153.5 538 164.5 537.5 165 534C163.598 516.022 163.13 497.455 162.64 470.25ZM178.644 470.7C178.812 479.994 178.859 487.761 178.901 494.668C178.984 508.429 179.047 518.779 180 531C180.537 537.883 187.617 541.037 194.5 540.5C201.383 539.963 206.037 538.883 205.5 532C200.985 510.34 201.289 502.953 202.101 483.208C202.227 480.138 202.365 476.768 202.5 473C202.448 470.139 202.736 466.372 203.015 462.703C203.259 459.506 203.497 456.383 203.5 454C200 452 185.41 441.5 178.5 436C178.188 445.73 178.398 457.242 178.598 468.188V468.189C178.614 469.03 178.629 469.867 178.644 470.7ZM425.539 460.5C430.772 456.211 435.16 451.854 435 453C434.84 454.146 434.651 455.443 434.445 456.863C433.217 465.317 431.355 478.128 431.019 489.228C430.609 502.782 433.015 514.186 435 520C435.854 522.5 428 522 421.5 522C414.5 522 408.012 519.5 407.5 518C403.885 507.414 405.624 501.902 406.031 488.472C406.184 483.393 406.472 478.32 406.835 473.5C406.835 473.5 417 467.5 425.539 460.5ZM400 477C400 476.5 395 479.5 386.5 482C377.5 485 372.5 485.5 372.5 485.5C372.5 491.168 372.312 488.58 371.829 498.037C371.68 500.943 371.672 499.166 371.829 502.5C371.829 502.5 371.829 507 371.829 508.5C375.089 514.585 378 514.097 385 515.597C392 516.194 398 517 397.5 513C397 509 396.371 507.631 396.796 499.313C397.188 491.653 400 481.672 400 477Z" fill="#C4C4C4"/>
</mask>
<g mask="url(#mask0)">
<path fill-rule="evenodd" clip-rule="evenodd" d="M324.032 166.746C324.46 160.095 325.919 153.755 327.222 150.273L333.778 152.727C332.748 155.479 331.407 161.132 331.018 167.194C330.683 172.408 331.094 177.339 332.553 180.915C333.738 180.824 334.937 180.746 336.122 180.669L336.136 180.668C338.15 180.536 340.128 180.407 342.046 180.225C345.948 179.855 349.236 179.295 351.633 178.278L354.367 184.722C350.916 186.186 346.712 186.814 342.706 187.194C340.683 187.385 338.616 187.52 336.634 187.65L336.593 187.653C334.577 187.784 332.652 187.911 330.837 188.086C321.092 189.028 307.598 188.469 302.255 188.094L302.745 181.111C307.113 181.417 316.893 181.833 325.328 181.45C323.915 176.783 323.729 171.471 324.032 166.746Z" fill="#351700"/>
<path fill-rule="evenodd" clip-rule="evenodd" d="M287.537 206.974C287.604 200.817 288.725 194.879 289.856 191.565L296.481 193.825C295.62 196.349 294.596 201.538 294.537 207.05C294.486 211.759 295.149 216.102 296.719 219.177C297.928 219.019 299.153 218.873 300.366 218.728L300.378 218.726C302.38 218.487 304.352 218.251 306.261 217.971C310.145 217.4 313.429 216.689 315.797 215.603L318.714 221.966C315.379 223.495 311.248 224.313 307.278 224.896C305.273 225.191 303.222 225.436 301.248 225.672L301.209 225.677C299.205 225.916 297.286 226.146 295.478 226.415C285.858 227.844 268.886 228.526 263.483 228.5L263.517 221.5C267.874 221.521 280.224 221.05 289.493 220.098C287.934 215.932 287.492 211.193 287.537 206.974Z" fill="#351700"/>
<path fill-rule="evenodd" clip-rule="evenodd" d="M242.565 249.993C242.767 243.839 244.018 237.927 245.22 234.639L251.794 237.043C250.878 239.547 249.742 244.713 249.562 250.222C249.408 254.929 249.976 259.285 251.477 262.394C252.689 262.263 253.918 262.143 255.134 262.024L255.145 262.023C257.153 261.828 259.129 261.635 261.044 261.396C264.939 260.911 268.238 260.272 270.63 259.238L273.406 265.664C270.038 267.119 265.891 267.847 261.909 268.343C259.898 268.593 257.842 268.794 255.864 268.986L255.824 268.99C253.815 269.186 251.892 269.374 250.078 269.603C245.086 270.233 237.258 270.259 230.214 270.129C225.31 270.038 220.562 269.865 217.276 269.745C215.834 269.692 214.674 269.65 213.906 269.629L214.094 262.632C214.971 262.655 216.206 262.7 217.708 262.755C220.97 262.875 225.491 263.04 230.343 263.13C235.181 263.219 240.133 263.227 244.195 263.046C242.76 258.875 242.429 254.173 242.565 249.993Z" fill="#351700"/>
<path fill-rule="evenodd" clip-rule="evenodd" d="M192.632 288.993C192.76 282.836 193.94 276.91 195.103 273.608L201.706 275.933C200.82 278.448 199.745 283.627 199.631 289.138C199.533 293.846 200.153 298.196 201.691 301.286C202.902 301.14 204.129 301.006 205.343 300.873L205.355 300.872C207.36 300.652 209.333 300.436 211.245 300.175C215.135 299.643 218.425 298.964 220.805 297.902L223.658 304.294C220.308 305.79 216.169 306.567 212.193 307.11C210.186 307.384 208.132 307.609 206.156 307.826L206.117 307.83C204.11 308.05 202.189 308.261 200.379 308.511C195.356 309.207 185.28 309.213 176.106 309.061C171.454 308.985 166.934 308.865 163.252 308.759C162.219 308.729 161.256 308.701 160.376 308.675C158.099 308.608 156.381 308.558 155.448 308.544L155.552 301.545C156.54 301.559 158.343 301.612 160.655 301.68C161.522 301.706 162.46 301.734 163.453 301.762C167.125 301.867 171.612 301.986 176.222 302.062C182.835 302.171 189.51 302.186 194.398 301.972C192.929 297.831 192.546 293.156 192.632 288.993Z" fill="#351700"/>
<path fill-rule="evenodd" clip-rule="evenodd" d="M140.231 447.048C135.85 442.721 132.36 437.788 130.763 434.672L136.992 431.479C138.208 433.852 141.228 438.194 145.15 442.068C148.501 445.377 152.084 447.919 155.385 448.927C156.112 447.949 156.859 446.965 157.597 445.993L157.604 445.983C158.824 444.377 160.025 442.796 161.15 441.228C163.439 438.039 165.21 435.184 166.076 432.726L172.678 435.051C171.459 438.512 169.177 442.05 166.837 445.31C165.655 446.956 164.405 448.602 163.204 450.185L163.18 450.216C161.959 451.824 160.791 453.364 159.727 454.85C156.673 459.12 150.272 464.873 144.537 469.785C142.438 471.583 140.36 473.325 138.491 474.891C137.757 475.506 137.055 476.095 136.397 476.649C133.989 478.675 132.283 480.147 131.505 480.945L126.496 476.055C127.569 474.956 129.584 473.233 131.889 471.293C132.568 470.722 133.282 470.123 134.024 469.501C135.884 467.943 137.915 466.241 139.983 464.469C143.965 461.058 147.851 457.583 150.714 454.625C146.758 452.837 143.156 449.937 140.231 447.048Z" fill="#351700"/>
<path fill-rule="evenodd" clip-rule="evenodd" d="M139.871 503.048C135.49 498.721 132 493.788 130.403 490.672L136.632 487.479C137.848 489.852 140.868 494.194 144.79 498.068C148.14 501.377 151.724 503.919 155.025 504.927C155.752 503.949 156.499 502.965 157.237 501.993L157.244 501.983C158.464 500.377 159.665 498.796 160.79 497.228C163.079 494.039 164.85 491.184 165.715 488.726L172.318 491.051C171.099 494.512 168.817 498.05 166.476 501.31C165.295 502.956 164.045 504.602 162.843 506.185L162.82 506.216C161.599 507.824 160.431 509.364 159.367 510.85C156.313 515.12 149.912 520.873 144.177 525.785C142.078 527.583 140 529.325 138.131 530.891C137.397 531.506 136.695 532.095 136.037 532.649C133.629 534.675 131.923 536.147 131.145 536.945L126.136 532.055C127.209 530.956 129.224 529.233 131.529 527.293C132.208 526.722 132.922 526.123 133.664 525.501C135.524 523.943 137.554 522.241 139.623 520.469C143.605 517.058 147.491 513.583 150.354 510.625C146.398 508.837 142.796 505.937 139.871 503.048Z" fill="#351700"/>
<path fill-rule="evenodd" clip-rule="evenodd" d="M179.871 478.048C175.49 473.721 172 468.788 170.403 465.672L176.632 462.479C177.848 464.852 180.868 469.194 184.79 473.067C188.14 476.377 191.724 478.919 195.025 479.927C195.752 478.949 196.499 477.965 197.237 476.993L197.244 476.983C198.464 475.377 199.665 473.795 200.79 472.228C203.079 469.039 204.85 466.183 205.715 463.726L212.318 466.051C211.099 469.512 208.817 473.05 206.476 476.31C205.295 477.956 204.045 479.602 202.843 481.185L202.82 481.216C201.599 482.824 200.431 484.364 199.367 485.85C196.313 490.119 189.912 495.872 184.177 500.785C182.078 502.583 180 504.325 178.131 505.891C177.397 506.506 176.695 507.095 176.037 507.649C173.629 509.675 171.923 511.147 171.145 511.945L166.136 507.055C167.209 505.956 169.224 504.233 171.529 502.293C172.208 501.722 172.922 501.123 173.664 500.501C175.524 498.943 177.554 497.241 179.623 495.469C183.605 492.058 187.491 488.583 190.354 485.625C186.398 483.837 182.796 480.937 179.871 478.048Z" fill="#351700"/>
<path fill-rule="evenodd" clip-rule="evenodd" d="M375.21 180.481C368.566 179.959 362.084 180.502 358.451 181.296L359.948 188.135C362.819 187.506 368.604 186.983 374.661 187.46C379.869 187.87 384.692 188.977 388.023 190.93C387.766 192.09 387.517 193.266 387.272 194.428L387.269 194.442C386.853 196.417 386.443 198.356 385.991 200.228C385.07 204.039 384.048 207.213 382.7 209.442L388.69 213.064C390.63 209.856 391.85 205.784 392.795 201.873C393.272 199.897 393.7 197.871 394.11 195.927L394.119 195.887C394.536 193.91 394.934 192.023 395.366 190.251C397.684 180.739 399.049 167.303 399.438 161.961L392.456 161.453C392.139 165.82 391.159 175.56 389.581 183.855C385.162 181.792 379.93 180.853 375.21 180.481Z" fill="#351700"/>
<path fill-rule="evenodd" clip-rule="evenodd" d="M423.918 209.612C423.852 203.454 422.73 197.516 421.6 194.203L414.975 196.463C415.836 198.986 416.859 204.176 416.918 209.687C416.969 214.396 416.306 218.739 414.737 221.814C413.528 221.657 412.302 221.51 411.09 221.365L411.078 221.364C409.075 221.124 407.104 220.888 405.194 220.608C401.311 220.038 398.027 219.326 395.658 218.24L392.742 224.604C396.077 226.132 400.207 226.951 404.177 227.534C406.182 227.828 408.234 228.073 410.207 228.309L410.247 228.314C412.251 228.554 414.17 228.784 415.978 229.052C425.598 230.482 442.569 231.164 447.972 231.137L447.938 224.137C443.581 224.159 431.232 223.688 421.963 222.735C423.521 218.57 423.963 213.83 423.918 209.612Z" fill="#351700"/>
<path fill-rule="evenodd" clip-rule="evenodd" d="M435.374 483.048C439.755 478.721 443.245 473.788 444.842 470.672L438.613 467.479C437.397 469.852 434.377 474.194 430.455 478.068C427.104 481.377 423.521 483.919 420.22 484.927C419.493 483.949 418.746 482.965 418.008 481.993L418.001 481.983C416.781 480.377 415.58 478.796 414.455 477.228C412.166 474.039 410.395 471.184 409.529 468.726L402.927 471.051C404.146 474.512 406.428 478.05 408.768 481.31C409.95 482.956 411.2 484.602 412.401 486.185L412.425 486.216C413.646 487.824 414.814 489.364 415.878 490.85C418.932 495.12 425.333 500.873 431.068 505.785C433.167 507.583 435.245 509.325 437.114 510.891C437.848 511.506 438.55 512.095 439.208 512.649C441.616 514.675 443.322 516.147 444.1 516.945L449.109 512.055C448.036 510.956 446.02 509.233 443.716 507.293C443.037 506.722 442.323 506.123 441.581 505.501C439.721 503.943 437.69 502.241 435.622 500.469C431.64 497.058 427.754 493.583 424.891 490.625C428.847 488.837 432.449 485.937 435.374 483.048Z" fill="#351700"/>
<path fill-rule="evenodd" clip-rule="evenodd" d="M396.374 497.048C400.755 492.721 404.245 487.788 405.842 484.672L399.613 481.479C398.397 483.852 395.377 488.194 391.455 492.068C388.104 495.377 384.521 497.919 381.22 498.927C380.493 497.949 379.746 496.965 379.008 495.993L379.001 495.983C377.781 494.377 376.58 492.796 375.455 491.228C373.166 488.039 371.395 485.184 370.529 482.726L363.927 485.051C365.146 488.512 367.428 492.05 369.768 495.31C370.95 496.956 372.2 498.602 373.401 500.185L373.425 500.216C374.646 501.824 375.814 503.364 376.878 504.85C379.932 509.12 386.333 514.873 392.068 519.785C394.167 521.583 396.245 523.325 398.114 524.891C398.848 525.506 399.55 526.095 400.208 526.649C402.616 528.675 404.322 530.147 405.1 530.945L410.109 526.055C409.036 524.956 407.02 523.233 404.716 521.293C404.037 520.722 403.323 520.123 402.581 519.501C400.721 517.943 398.69 516.241 396.622 514.469C392.64 511.058 388.754 507.583 385.891 504.625C389.847 502.837 393.449 499.937 396.374 497.048Z" fill="#351700"/>
<path fill-rule="evenodd" clip-rule="evenodd" d="M272.151 167.353C273.044 160.749 274.945 154.528 276.49 151.146L282.857 154.054C281.636 156.727 279.902 162.271 279.087 168.292C278.387 173.469 278.45 178.417 279.654 182.086C280.843 182.079 282.045 182.085 283.232 182.091L283.246 182.091C285.265 182.102 287.246 182.112 289.172 182.065C293.091 181.97 296.41 181.643 298.873 180.797L301.147 187.417C297.601 188.635 293.363 188.966 289.341 189.063C287.309 189.112 285.239 189.102 283.252 189.092L283.211 189.091C281.19 189.081 279.262 189.072 277.438 189.119C267.652 189.373 254.23 187.868 248.927 187.118L249.906 180.187C254.242 180.8 263.968 181.901 272.41 182.112C271.328 177.357 271.516 172.046 272.151 167.353Z" fill="#351700"/>
<path fill-rule="evenodd" clip-rule="evenodd" d="M307.769 124.721C308.663 118.117 310.564 111.896 312.109 108.514L318.476 111.422C317.255 114.095 315.52 119.639 314.706 125.66C314.005 130.837 314.068 135.785 315.272 139.454C316.461 139.447 317.663 139.453 318.85 139.459L318.864 139.459C320.883 139.469 322.865 139.479 324.79 139.433C328.71 139.338 332.029 139.011 334.491 138.165L336.765 144.785C333.22 146.003 328.982 146.334 324.959 146.431C322.928 146.48 320.857 146.469 318.87 146.459L318.829 146.459C316.809 146.449 314.88 146.44 313.057 146.487C303.27 146.741 289.849 145.236 284.545 144.486L285.525 137.555C289.86 138.168 299.587 139.269 308.028 139.48C306.946 134.725 307.134 129.413 307.769 124.721Z" fill="#351700"/>
<path fill-rule="evenodd" clip-rule="evenodd" d="M232.919 204.918C233.418 198.78 234.954 192.936 236.314 189.71L242.764 192.43C241.728 194.886 240.342 199.991 239.896 205.485C239.514 210.179 239.87 214.558 241.22 217.735C242.437 217.663 243.67 217.603 244.89 217.544L244.901 217.543C246.916 217.445 248.899 217.348 250.823 217.203C254.738 216.907 258.063 216.428 260.502 215.511L262.965 222.064C259.53 223.354 255.353 223.88 251.351 224.183C249.331 224.335 247.267 224.436 245.282 224.533L245.242 224.535C243.226 224.633 241.295 224.728 239.473 224.868C229.776 225.618 212.799 225.106 207.411 224.7L207.937 217.72C212.282 218.047 224.634 218.445 233.947 218.147C232.685 213.882 232.577 209.123 232.919 204.918Z" fill="#351700"/>
<path fill-rule="evenodd" clip-rule="evenodd" d="M185.035 244.67C185.668 238.545 187.331 232.736 188.762 229.54L195.151 232.4C194.061 234.834 192.564 239.907 191.998 245.39C191.513 250.074 191.774 254.46 193.053 257.666C194.272 257.621 195.506 257.587 196.726 257.555L196.738 257.554C198.754 257.5 200.739 257.447 202.666 257.344C206.586 257.133 209.921 256.727 212.38 255.864L214.698 262.469C211.236 263.684 207.048 264.119 203.041 264.334C201.018 264.442 198.952 264.498 196.965 264.551L196.926 264.552C194.908 264.606 192.976 264.658 191.151 264.759C186.127 265.037 178.317 264.513 171.299 263.888C166.414 263.453 161.689 262.946 158.419 262.595C156.985 262.442 155.831 262.318 155.067 262.243L155.746 255.276C156.619 255.362 157.848 255.493 159.342 255.654C162.587 256.002 167.085 256.485 171.92 256.915C176.739 257.345 181.678 257.7 185.743 257.805C184.605 253.543 184.605 248.83 185.035 244.67Z" fill="#351700"/>
<path fill-rule="evenodd" clip-rule="evenodd" d="M132.484 280.064C133.044 273.932 134.638 268.103 136.03 264.891L142.453 267.674C141.393 270.121 139.956 275.212 139.455 280.701C139.027 285.391 139.34 289.773 140.657 292.963C141.875 292.903 143.109 292.856 144.329 292.808L144.341 292.808C146.356 292.73 148.34 292.653 150.266 292.526C154.183 292.269 157.513 291.823 159.961 290.931L162.358 297.508C158.911 298.764 154.728 299.249 150.724 299.511C148.702 299.644 146.637 299.724 144.651 299.801L144.612 299.803C142.595 299.881 140.664 299.956 138.84 300.079C133.781 300.42 123.73 299.717 114.589 298.922C109.954 298.518 105.453 298.081 101.788 297.717C100.759 297.615 99.8006 297.519 98.925 297.431C96.6579 297.204 94.9479 297.033 94.0184 296.954L94.6139 289.979C95.5979 290.063 97.393 290.243 99.6948 290.473C100.557 290.56 101.491 290.653 102.48 290.751C106.135 291.114 110.603 291.548 115.196 291.948C121.786 292.522 128.443 293.006 133.334 293.135C132.16 288.901 132.106 284.211 132.484 280.064Z" fill="#351700"/>
<path fill-rule="evenodd" clip-rule="evenodd" d="M103.242 440.554C99.1014 435.997 95.8829 430.882 94.4565 427.685L100.849 424.833C101.935 427.268 104.717 431.768 108.423 435.847C111.59 439.333 115.031 442.064 118.273 443.25C119.052 442.312 119.851 441.37 120.641 440.439L120.648 440.43C121.953 438.892 123.237 437.377 124.445 435.873C126.904 432.812 128.826 430.057 129.823 427.649L136.29 430.328C134.886 433.718 132.416 437.127 129.903 440.256C128.634 441.836 127.298 443.412 126.012 444.928L125.986 444.958C124.681 446.497 123.431 447.971 122.289 449.398C119.12 453.357 111.809 460.29 105.045 466.489C101.614 469.632 98.25 472.653 95.5044 475.108C94.7337 475.798 94.015 476.439 93.3586 477.026C91.6591 478.543 90.3772 479.688 89.6904 480.319L84.9528 475.166C85.6798 474.497 87.0254 473.296 88.751 471.755C89.3976 471.178 90.0975 470.553 90.8383 469.891C93.5765 467.442 96.9159 464.443 100.315 461.328C105.192 456.859 110.048 452.28 113.45 448.763C109.536 446.767 106.042 443.636 103.242 440.554Z" fill="#351700"/>
<path fill-rule="evenodd" clip-rule="evenodd" d="M102.242 497.554C98.1014 492.997 94.8829 487.882 93.4565 484.685L99.8493 481.833C100.935 484.268 103.717 488.768 107.423 492.847C110.59 496.333 114.031 499.064 117.273 500.25C118.052 499.312 118.851 498.37 119.641 497.439L119.648 497.43C120.953 495.892 122.237 494.377 123.445 492.873C125.904 489.812 127.826 487.057 128.823 484.649L135.29 487.328C133.886 490.718 131.416 494.127 128.903 497.256C127.634 498.836 126.298 500.412 125.012 501.928L124.986 501.958C123.681 503.497 122.431 504.971 121.289 506.398C118.12 510.357 110.809 517.29 104.045 523.489C100.614 526.632 97.25 529.653 94.5044 532.108C93.7337 532.798 93.015 533.439 92.3586 534.026C90.6591 535.543 89.3772 536.688 88.6904 537.319L83.9528 532.166C84.6798 531.497 86.0254 530.296 87.751 528.755C88.3976 528.178 89.0975 527.553 89.8383 526.891C92.5765 524.442 95.9159 521.443 99.3153 518.328C104.192 513.859 109.048 509.28 112.45 505.763C108.536 503.767 105.042 500.636 102.242 497.554Z" fill="#351700"/>
<path fill-rule="evenodd" clip-rule="evenodd" d="M230.366 160.133C231.351 153.543 233.338 147.348 234.93 143.988L241.256 146.984C239.998 149.64 238.187 155.16 237.29 161.168C236.518 166.335 236.512 171.283 237.665 174.969C238.854 174.978 240.056 175.001 241.242 175.024L241.257 175.024C243.275 175.062 245.257 175.099 247.183 175.079C251.103 175.039 254.426 174.757 256.9 173.945L259.082 180.597C255.52 181.765 251.278 182.038 247.255 182.079C245.223 182.1 243.152 182.061 241.166 182.023L241.125 182.023C239.105 181.984 237.176 181.948 235.353 181.971C225.563 182.089 212.164 180.398 206.872 179.575L207.947 172.658C212.273 173.331 221.984 174.567 230.421 174.895C229.405 170.125 229.667 164.817 230.366 160.133Z" fill="#351700"/>
<path fill-rule="evenodd" clip-rule="evenodd" d="M266.571 117.998C267.556 111.407 269.543 105.213 271.135 101.852L277.461 104.848C276.203 107.505 274.392 113.024 273.495 119.033C272.723 124.199 272.717 129.148 273.87 132.833C275.059 132.843 276.261 132.866 277.447 132.888L277.462 132.889C279.48 132.927 281.462 132.964 283.388 132.944C287.308 132.904 290.631 132.622 293.105 131.81L295.287 138.461C291.725 139.63 287.483 139.902 283.46 139.944C281.428 139.965 279.357 139.926 277.371 139.888L277.33 139.887C275.31 139.849 273.381 139.813 271.558 139.835C261.768 139.954 248.369 138.263 243.077 137.44L244.152 130.523C248.478 131.196 258.189 132.432 266.626 132.76C265.61 127.99 265.872 122.681 266.571 117.998Z" fill="#351700"/>
<path fill-rule="evenodd" clip-rule="evenodd" d="M190.619 197.152C191.202 191.022 192.819 185.199 194.224 181.992L200.636 184.801C199.566 187.243 198.11 192.328 197.587 197.815C197.141 202.504 197.436 206.887 198.741 210.083C199.959 210.028 201.193 209.985 202.414 209.942L202.425 209.942C204.441 209.871 206.425 209.802 208.351 209.683C212.269 209.441 215.601 209.008 218.053 208.126L220.424 214.712C216.972 215.955 212.788 216.423 208.782 216.67C206.76 216.795 204.695 216.867 202.709 216.936L202.669 216.937C200.652 217.008 198.72 217.075 196.896 217.191C187.19 217.807 170.222 217.06 164.84 216.579L165.462 209.607C169.802 209.994 182.148 210.563 191.464 210.393C190.261 206.111 190.219 201.351 190.619 197.152Z" fill="#351700"/>
<path fill-rule="evenodd" clip-rule="evenodd" d="M142.189 236.237C142.907 230.122 144.651 224.336 146.125 221.16L152.474 224.109C151.351 226.527 149.784 231.579 149.141 237.053C148.592 241.731 148.792 246.119 150.027 249.343C151.246 249.315 152.48 249.299 153.701 249.283L153.713 249.283C155.73 249.256 157.715 249.231 159.643 249.154C163.566 248.998 166.906 248.638 169.377 247.809L171.603 254.446C168.125 255.613 163.931 255.989 159.922 256.148C157.897 256.229 155.831 256.256 153.843 256.281L153.804 256.282C151.786 256.308 149.853 256.334 148.027 256.409C142.999 256.618 135.197 255.985 128.188 255.263C123.31 254.761 118.593 254.189 115.328 253.793C113.897 253.619 112.744 253.48 111.981 253.395L112.756 246.438C113.628 246.535 114.855 246.684 116.347 246.865C119.587 247.258 124.078 247.803 128.906 248.3C133.719 248.796 138.653 249.22 142.715 249.381C141.636 245.104 141.702 240.391 142.189 236.237Z" fill="#351700"/>
<path fill-rule="evenodd" clip-rule="evenodd" d="M89.1539 270.901C89.7986 264.777 91.4729 258.971 92.9096 255.778L99.2931 258.651C98.1991 261.082 96.6925 266.152 96.1154 271.634C95.6223 276.318 95.8742 280.703 97.1476 283.912C98.3661 283.869 99.6004 283.838 100.821 283.808L100.833 283.808C102.849 283.757 104.834 283.708 106.761 283.608C110.681 283.405 114.018 283.005 116.478 282.147L118.784 288.756C115.319 289.965 111.131 290.391 107.123 290.599C105.099 290.703 103.034 290.755 101.047 290.804L101.007 290.805C98.9895 290.856 97.0572 290.904 95.232 291.002C85.4284 291.526 63.8101 289.447 58.6542 288.935L59.3462 281.969C63.904 282.422 79.5796 283.916 89.8469 284.074C88.7069 279.801 88.7148 275.072 89.1539 270.901Z" fill="#351700"/>
<path fill-rule="evenodd" clip-rule="evenodd" d="M62.4662 327.27C57.9643 323.069 54.336 318.237 52.6513 315.168L58.7877 311.8C60.0706 314.137 63.2125 318.392 67.2421 322.153C70.6854 325.366 74.3391 327.805 77.6679 328.72C78.367 327.721 79.0854 326.717 79.796 325.724L79.8028 325.714C80.9765 324.074 82.1318 322.459 83.2122 320.86C85.4102 317.608 87.0992 314.703 87.8947 312.222L94.5604 314.359C93.4402 317.853 91.259 321.455 89.0121 324.78C87.8776 326.458 86.6752 328.139 85.5187 329.755L85.4957 329.787C84.3212 331.429 83.1968 333.001 82.1759 334.517C76.6927 342.661 62.019 358.672 58.5063 362.481L53.3606 357.735C56.4659 354.368 67.0951 342.75 73.4026 334.647C69.3037 332.985 65.5324 330.132 62.4662 327.27Z" fill="#351700"/>
<path fill-rule="evenodd" clip-rule="evenodd" d="M58.4664 413.27C53.9645 409.069 50.3361 404.237 48.6514 401.168L54.7878 397.8C56.0707 400.137 59.2126 404.392 63.2423 408.153C66.6855 411.366 70.3392 413.805 73.668 414.72C74.3671 413.721 75.0856 412.717 75.7961 411.724L75.8029 411.714C76.9766 410.074 78.1319 408.459 79.2123 406.86C81.4103 403.608 83.0993 400.703 83.8949 398.222L90.5606 400.359C89.4403 403.853 87.2591 407.455 85.0122 410.78C83.8777 412.458 82.6753 414.139 81.5188 415.755L81.4958 415.787C80.3213 417.429 79.1969 419.001 78.1761 420.517C72.6928 428.661 58.0191 444.672 54.5064 448.481L49.3607 443.735C52.466 440.368 63.0953 428.75 69.4027 420.647C65.3038 418.985 61.5325 416.132 58.4664 413.27Z" fill="#351700"/>
<path fill-rule="evenodd" clip-rule="evenodd" d="M58.4662 478.27C53.9643 474.069 50.336 469.237 48.6513 466.168L54.7877 462.8C56.0706 465.137 59.2125 469.392 63.2421 473.153C66.6854 476.366 70.3391 478.805 73.6679 479.72C74.367 478.721 75.0854 477.717 75.796 476.724L75.8028 476.714C76.9765 475.074 78.1318 473.459 79.2122 471.86C81.4102 468.608 83.0992 465.703 83.8947 463.222L90.5604 465.359C89.4402 468.853 87.259 472.455 85.0121 475.78C83.8776 477.458 82.6752 479.139 81.5187 480.755L81.4957 480.787C80.3212 482.429 79.1968 484.001 78.1759 485.517C72.6927 493.661 58.019 509.672 54.5063 513.481L49.3606 508.735C52.4659 505.368 63.0951 493.75 69.4026 485.647C65.3037 483.985 61.5324 481.132 58.4662 478.27Z" fill="#351700"/>
<path fill-rule="evenodd" clip-rule="evenodd" d="M183.999 147.002C184.984 140.411 186.971 134.216 188.563 130.856L194.889 133.852C193.631 136.508 191.82 142.028 190.923 148.036C190.151 153.203 190.145 158.152 191.298 161.837C192.487 161.847 193.689 161.869 194.875 161.892L194.89 161.892C196.908 161.93 198.89 161.968 200.816 161.948C204.736 161.907 208.059 161.626 210.533 160.814L212.715 167.465C209.153 168.634 204.911 168.906 200.888 168.947C198.856 168.968 196.785 168.929 194.799 168.892L194.758 168.891C192.738 168.853 190.809 168.817 188.986 168.839C179.196 168.958 165.797 167.266 160.504 166.444L161.58 159.527C165.906 160.199 175.617 161.435 184.054 161.763C183.038 156.993 183.3 151.685 183.999 147.002Z" fill="#351700"/>
<path fill-rule="evenodd" clip-rule="evenodd" d="M223.732 108.947C224.717 102.356 226.704 96.1616 228.296 92.8013L234.622 95.7973C233.364 98.4536 231.553 103.973 230.656 109.982C229.884 115.148 229.878 120.097 231.031 123.782C232.22 123.792 233.422 123.815 234.608 123.837L234.623 123.837C236.641 123.876 238.623 123.913 240.549 123.893C244.469 123.853 247.792 123.571 250.266 122.759L252.448 129.41C248.886 130.579 244.644 130.851 240.621 130.893C238.589 130.914 236.518 130.875 234.532 130.837L234.491 130.836C232.471 130.798 230.542 130.762 228.719 130.784C218.929 130.903 205.53 129.212 200.238 128.389L201.313 121.472C205.639 122.145 215.35 123.381 223.787 123.709C222.771 118.939 223.033 113.63 223.732 108.947Z" fill="#351700"/>
<path fill-rule="evenodd" clip-rule="evenodd" d="M143.476 181.54C144.06 175.41 145.677 169.588 147.082 166.381L153.493 169.19C152.424 171.632 150.967 176.717 150.445 182.204C149.998 186.893 150.294 191.276 151.599 194.471C152.817 194.416 154.051 194.373 155.271 194.331L155.283 194.33C157.299 194.26 159.283 194.191 161.209 194.072C165.127 193.83 168.459 193.397 170.911 192.514L173.282 199.1C169.83 200.343 165.646 200.811 161.64 201.059C159.618 201.183 157.553 201.255 155.566 201.325L155.527 201.326C153.51 201.396 151.578 201.464 149.754 201.58C140.048 202.195 123.079 201.448 117.697 200.968L118.32 193.995C122.66 194.383 135.005 194.952 144.321 194.782C143.118 190.5 143.076 185.74 143.476 181.54Z" fill="#351700"/>
<path fill-rule="evenodd" clip-rule="evenodd" d="M99.5129 216.975C100.791 211.257 103.066 205.954 104.841 203.083L110.795 206.766C109.477 208.895 107.473 213.453 106.344 218.502C105.384 222.798 105.192 226.855 106.09 229.936C107.325 230.033 108.576 230.146 109.814 230.256L109.824 230.257C111.832 230.437 113.812 230.615 115.74 230.738C119.66 230.99 123.036 230.991 125.589 230.457L127.021 237.309C123.476 238.05 119.291 237.98 115.292 237.724C113.273 237.594 111.217 237.41 109.237 237.233L109.199 237.229C107.19 237.049 105.262 236.877 103.436 236.763C95.1213 236.243 78.8617 232.675 71.1189 230.976C69.7383 230.673 68.6285 230.43 67.8828 230.274L69.3182 223.422C70.1839 223.604 71.4166 223.874 72.9144 224.201C79.3405 225.608 90.6462 228.082 98.7875 229.225C98.1671 225.121 98.6663 220.762 99.5129 216.975Z" fill="#351700"/>
<path fill-rule="evenodd" clip-rule="evenodd" d="M40.6765 258.093C38.1129 252.494 36.5973 246.645 36.2079 243.165L43.1645 242.387C43.461 245.036 44.7464 250.167 47.041 255.179C49.0017 259.461 51.4518 263.107 54.1817 265.22C55.2085 264.563 56.2551 263.908 57.2901 263.26L57.3 263.254C59.0099 262.184 60.6929 261.13 62.3007 260.063C65.5713 257.892 68.2389 255.849 69.9191 253.858L75.2692 258.372C72.9033 261.176 69.5152 263.676 66.1717 265.895C64.4836 267.016 62.7319 268.112 61.0472 269.166L61.0137 269.187C59.3027 270.258 57.6644 271.284 56.1433 272.297C47.9727 277.74 28.3086 286.96 23.6104 289.144L20.6589 282.797C24.8121 280.866 39.0638 274.169 47.981 269.078C44.8236 265.98 42.4224 261.906 40.6765 258.093Z" fill="#351700"/>
<path fill-rule="evenodd" clip-rule="evenodd" d="M23.4661 340.27C18.9642 336.069 15.3358 331.237 13.6511 328.168L19.7875 324.8C21.0704 327.137 24.2124 331.392 28.242 335.153C31.6853 338.366 35.339 340.805 38.6678 341.72C39.3669 340.721 40.0853 339.717 40.7958 338.724L40.8026 338.714C41.9764 337.074 43.1316 335.459 44.2121 333.86C46.41 330.608 48.099 327.703 48.8946 325.222L55.5603 327.359C54.4401 330.853 52.2589 334.455 50.0119 337.78C48.8775 339.458 47.675 341.139 46.5186 342.755L46.4955 342.787C45.321 344.429 44.1967 346.001 43.1758 347.517C37.6926 355.661 23.0189 371.672 19.5061 375.481L14.3605 370.735C17.4657 367.368 28.095 355.75 34.4024 347.647C30.3035 345.985 26.5323 343.132 23.4661 340.27Z" fill="#351700"/>
<path fill-rule="evenodd" clip-rule="evenodd" d="M17.4661 404.27C12.9642 400.069 9.33584 395.237 7.65113 392.168L13.7875 388.8C15.0704 391.137 18.2124 395.392 22.242 399.153C25.6853 402.366 29.339 404.805 32.6678 405.72C33.3669 404.721 34.0853 403.717 34.7958 402.724L34.8026 402.714C35.9764 401.074 37.1316 399.459 38.2121 397.86C40.41 394.608 42.099 391.703 42.8946 389.222L49.5603 391.359C48.4401 394.853 46.2589 398.455 44.0119 401.78C42.8775 403.458 41.675 405.139 40.5186 406.755L40.4955 406.787C39.321 408.429 38.1967 410.001 37.1758 411.517C31.6926 419.661 17.0189 435.672 13.5061 439.481L8.3605 434.735C11.4657 431.368 22.095 419.75 28.4024 411.647C24.3035 409.985 20.5323 407.132 17.4661 404.27Z" fill="#351700"/>
<path fill-rule="evenodd" clip-rule="evenodd" d="M21.4661 464.27C16.9642 460.069 13.3358 455.237 11.6511 452.168L17.7875 448.8C19.0704 451.137 22.2124 455.392 26.242 459.153C29.6853 462.366 33.339 464.805 36.6678 465.72C37.3669 464.721 38.0853 463.717 38.7958 462.724L38.8026 462.714C39.9764 461.074 41.1316 459.459 42.2121 457.86C44.41 454.608 46.099 451.703 46.8946 449.222L53.5603 451.359C52.4401 454.853 50.2589 458.455 48.0119 461.78C46.8775 463.458 45.675 465.139 44.5186 466.755L44.4955 466.787C43.321 468.429 42.1967 470.001 41.1758 471.517C35.6926 479.661 21.0189 495.672 17.5061 499.481L12.3605 494.735C15.4657 491.368 26.095 479.75 32.4024 471.647C28.3035 469.985 24.5323 467.132 21.4661 464.27Z" fill="#351700"/>
<path fill-rule="evenodd" clip-rule="evenodd" d="M131.091 142.976C132.075 136.386 134.063 130.191 135.654 126.831L141.981 129.827C140.723 132.483 138.912 138.002 138.014 144.011C137.242 149.178 137.236 154.126 138.389 157.812C139.578 157.821 140.78 157.844 141.967 157.866L141.981 157.867C143.999 157.905 145.981 157.942 147.907 157.922C151.827 157.882 155.15 157.6 157.624 156.788L159.807 163.439C156.244 164.608 152.002 164.881 147.979 164.922C145.947 164.943 143.877 164.904 141.89 164.866L141.849 164.865C139.829 164.827 137.901 164.791 136.077 164.813C126.288 164.932 112.888 163.241 107.596 162.418L108.671 155.501C112.997 156.174 122.708 157.41 131.146 157.738C130.129 152.968 130.391 147.66 131.091 142.976Z" fill="#351700"/>
<path fill-rule="evenodd" clip-rule="evenodd" d="M170.824 104.922C171.808 98.3309 173.796 92.1362 175.387 88.7759L181.714 91.7718C180.456 94.4282 178.645 99.9477 177.747 105.956C176.975 111.123 176.969 116.072 178.123 119.757C179.311 119.767 180.513 119.789 181.7 119.812L181.714 119.812C183.732 119.85 185.714 119.888 187.64 119.868C191.56 119.827 194.883 119.546 197.357 118.734L199.54 125.385C195.978 126.554 191.735 126.826 187.712 126.867C185.68 126.888 183.61 126.849 181.623 126.812L181.582 126.811C179.562 126.773 177.634 126.737 175.81 126.759C166.021 126.878 152.621 125.186 147.329 124.363L148.404 117.447C152.73 118.119 162.441 119.355 170.879 119.683C169.862 114.913 170.124 109.605 170.824 104.922Z" fill="#351700"/>
<path fill-rule="evenodd" clip-rule="evenodd" d="M90.5677 177.515C91.1515 171.385 92.768 165.563 94.173 162.355L100.585 165.164C99.5148 167.607 98.0587 172.692 97.5362 178.179C97.0896 182.867 97.3851 187.25 98.6904 190.446C99.9084 190.391 101.142 190.348 102.363 190.305L102.374 190.305C104.39 190.235 106.374 190.165 108.3 190.046C112.218 189.805 115.55 189.372 118.002 188.489L120.373 195.075C116.921 196.318 112.737 196.786 108.732 197.033C106.709 197.158 104.644 197.23 102.658 197.299L102.618 197.301C100.601 197.371 98.6695 197.439 96.8453 197.554C87.1392 198.17 70.1708 197.423 64.7888 196.942L65.4115 189.97C69.7509 190.358 82.0966 190.926 91.4127 190.757C90.2096 186.475 90.1677 181.715 90.5677 177.515Z" fill="#351700"/>
</g>
</svg>
