<svg width="530" height="603" viewBox="0 0 530 603" fill="none" xmlns="http://www.w3.org/2000/svg">
<path d="M182.263 171.822C138.59 171.822 103.185 133.359 103.185 85.9111C103.185 38.4637 138.59 0 182.263 0C225.937 0 261.342 38.4637 261.342 85.9111C261.342 133.359 225.937 171.822 182.263 171.822Z" fill="#71472D"/>
<path d="M182.263 171.822C138.59 171.822 103.185 133.359 103.185 85.9111C103.185 77.9769 104.175 70.2939 106.028 63C118.698 72.5 166.931 85.8 258.499 63C260.352 70.2939 261.342 77.9769 261.342 85.9111C261.342 133.359 225.937 171.822 182.263 171.822Z" fill="#613D25"/>
<path d="M140.079 312.025C144.62 265.616 219.065 226.623 219.065 226.623C217.278 234.872 213.372 242.256 210.481 246.899C209.017 249.258 210.473 252.447 213.085 252.649C283.066 258.109 373.264 182.495 373.264 182.495C392.255 207.01 414.331 240.983 425.543 252.368C427.14 253.989 429.668 252.671 429.607 250.299C425.43 90.021 270.985 58.1876 166.397 93.4165C70.6804 125.658 -8.92386 250.712 57.4588 342C61.1254 330.333 75.0588 307.7 101.459 310.5C105.792 311.5 117.359 316.5 128.959 328.5C130.693 330.358 144.959 335.5 140.079 312.025Z" fill="#71472D"/>
<path d="M358.983 164.107C358.983 164.107 350.706 154.299 332.653 155.937C332.653 155.937 345.442 148.992 353.714 149.809C353.714 149.809 331.149 133.056 298.05 143.682C298.05 143.682 321.368 127.337 339.802 129.379C339.802 129.379 320.244 120.8 307.831 122.843C307.831 122.843 317.612 110.583 330.397 110.992C330.397 110.992 320.24 93.0127 304.443 87.2935C304.443 87.2935 336.037 96.2852 344.31 102.821C362.739 110.583 379.664 133.469 379.664 133.469C374.024 130.201 364.995 131.018 364.995 131.018C379.664 140.009 390.949 156.759 390.949 156.759C383.805 151.856 375.152 153.49 375.152 153.49C389.069 167.384 393.581 185.363 393.581 185.363C391.701 179.644 378.16 172.695 378.16 172.695C383.425 182.095 384.553 197.21 384.553 197.21L373.268 182.499C373.268 182.499 350.326 201.704 344.306 204.155C344.306 204.155 361.607 186.176 362.735 178.006C362.735 178.006 336.781 184.95 316.096 187.814C316.104 187.806 345.066 165.741 358.983 164.107Z" fill="#613D25"/>
</svg>
