<svg width="530" height="600" viewBox="0 0 530 600" fill="none" xmlns="http://www.w3.org/2000/svg">
<path d="M96.2357 287.788C96.1176 292.383 96.1796 296.989 96.4308 301.59C134.52 308.062 152.56 348.893 156.819 368.5C156.819 368.5 168.152 369.167 170.819 367C184.819 359.667 209.719 329.6 197.319 268C191.319 240 195.319 217.706 244.319 183C293.319 148.294 371.319 170 387.319 183C400.119 193.4 406.254 197.333 407.721 198C373.556 120.458 304.414 109.621 304.414 109.621C168.964 75.089 111.562 217.707 111.566 217.706C102.724 239.725 96.8575 263.438 96.2357 287.788Z" fill="#AA5A10"/>
<path d="M342.553 168C327.22 149.333 288.953 123.2 258.553 168C220.553 224 248.553 248 236.553 296C224.553 344 198.553 360 204.553 392C210.553 424 256.553 478 236.553 512C236.553 512 203.825 507.503 165.052 498.886C150.803 495.72 150.837 481.517 149.159 475.83L147.552 473.5C143.907 472.633 145.733 494.359 142.052 493.423C104.916 483.983 67.0257 471.075 49.5526 455C53.2193 447 57.1526 424.4 43.5526 398C26.5526 365 34.5526 337 49.5526 318C64.5526 299 61.5525 275 55.5525 246C49.5525 217 55.5525 174 84.5525 157C113.552 140 127.553 112 150.552 98C173.552 84 258.553 51.9998 313.552 98C318.886 94.3333 338.953 89.1999 364.553 98C396.553 109 424.631 159.712 428.552 193.5C435.052 249.5 451.052 269 455.052 288.5C457.728 301.543 460.052 314 448.552 336C438.552 326.5 431.552 322.5 425.553 318C426.553 306.667 427.553 277.8 423.553 253C418.553 222 397.052 144.5 356.052 157C351.719 158.5 349.753 161.6 342.553 168Z" fill="#D56C0C"/>
<path d="M442.052 473C444.852 466.2 443.219 452.833 442.052 447C430.052 460.2 414.386 471.167 408.052 475C417.253 476.6 434.552 474.333 442.052 473Z" fill="#D56C0C"/>
<path d="M216.552 171C239.752 131 288.886 124.333 310.552 126C193.552 114 182.552 194 182.552 225C182.552 249.8 185.552 264 177.552 278C148.552 312.5 159.219 344.667 164.552 357C159.552 331 169.552 312 191.552 287C213.552 262 187.552 221 216.552 171Z" fill="#AA5A10"/>
<path d="M182.552 443C168.152 428.6 164.552 415 164.552 410C210.952 434 201.886 471.333 191.552 487C194.552 478.333 196.952 457.4 182.552 443Z" fill="#AA5A10"/>
<path d="M112.552 278C121.352 258 119.552 234.333 117.552 225C117.552 255 98.5524 287 77.5524 325C60.7524 355.4 84.5524 391 98.5524 405C101.552 389 88.5525 377 87.5525 348C86.5525 319 101.552 303 112.552 278Z" fill="#AA5A10"/>
<path d="M443.552 332C448.753 315.6 445.052 292.5 442.552 283C442.552 299.4 439.552 319.167 438.052 327L443.552 332Z" fill="#AA5A10"/>
</svg>
