<svg width="530" height="600" viewBox="0 0 530 600" fill="none" xmlns="http://www.w3.org/2000/svg">
<mask id="mask0" style="mask-type:alpha" maskUnits="userSpaceOnUse" x="363" y="134" width="169" height="249">
<path d="M423.501 248C416.301 194.4 389.501 155.333 363.001 150.5L480.001 134.5L531.001 315L468.001 382.5C472.001 350.5 441.667 324.167 426.001 315C428.001 301.8 425.167 264.833 423.501 248Z" fill="#C4C4C4"/>
</mask>
<g mask="url(#mask0)">
<path d="M456.46 293.711C450.081 239.483 400.447 210.546 376.179 205.917C381.058 179.548 391.427 181.168 412.115 185.266C484.395 199.581 496.095 262.865 495.409 295.112C468.509 299.053 457.822 298.915 456.46 293.711Z" fill="#351700"/>
<ellipse rx="19.439" ry="10.1973" transform="matrix(-1.01789 -0.047841 -0.15752 0.970808 475.664 294.431)" fill="#451E00"/>
<path opacity="0.6" fill-rule="evenodd" clip-rule="evenodd" d="M456.261 292.131C449.115 238.921 400.21 210.501 376.179 205.917C375.447 199.446 393.398 202.365 412.912 209.582C463.08 228.135 476.913 255.984 476.227 288.231C476.149 288.243 476.071 288.254 475.993 288.266C475.818 293.77 475.295 301.056 474.058 304.331C463.13 303.817 454.99 298.969 455.877 293.501C455.953 293.038 456.081 292.581 456.261 292.131Z" fill="#240F00"/>
<path d="M432.423 311.168C427.592 256.046 379.398 225.091 355.577 219.595C361.102 193.057 371.29 195.043 391.592 199.882C462.525 216.788 472.364 281.257 470.817 313.886C444.168 316.979 433.627 316.483 432.423 311.168Z" fill="#351700"/>
<ellipse rx="19.2831" ry="10.2665" transform="matrix(-1.01118 -0.0830506 -0.180387 0.971161 451.353 312.538)" fill="#451E00"/>
<path opacity="0.6" fill-rule="evenodd" clip-rule="evenodd" d="M432.269 309.562C426.654 255.445 379.165 225.037 355.577 219.595C355.029 213.018 372.663 216.572 391.723 224.53C440.724 244.989 453.622 273.649 452.076 306.279C451.998 306.288 451.921 306.297 451.844 306.306C451.522 311.873 450.81 319.233 449.501 322.508C438.732 321.624 430.831 316.443 431.854 310.936C431.941 310.47 432.08 310.011 432.269 309.562Z" fill="#240F00"/>
<path d="M410.471 350.901C420.473 294.733 383.757 250.27 363.031 238.039C375.154 213.228 384.114 218.097 401.738 228.674C463.315 265.631 455.515 332.513 445.493 364.51C419.875 360.014 410.193 356.526 410.471 350.901Z" fill="#351700"/>
<ellipse rx="19.1084" ry="10.3428" transform="matrix(-0.927751 -0.373201 -0.420227 0.907419 427.73 357.64)" fill="#451E00"/>
<path opacity="0.6" fill-rule="evenodd" clip-rule="evenodd" d="M410.75 349.261C419.758 293.869 383.555 250.15 363.031 238.039C364.251 231.346 379.729 239.888 395.377 253.214C435.605 287.472 440.072 319.627 430.05 351.623C429.975 351.61 429.901 351.597 429.827 351.584C428.063 357.027 425.464 364.142 423.384 367.025C413.593 363.087 407.602 355.692 410.002 350.509C410.206 350.07 410.456 349.653 410.75 349.261Z" fill="#240F00"/>
<path opacity="0.5" d="M486.982 245.662C487.195 244.027 482.607 235.431 480.286 231.338L446.06 244.371L416.716 273.447C417.342 284.616 420.705 307.817 429.159 311.265C437.613 314.713 446.692 313.425 451.912 312.148C454.02 309.487 457.589 287.328 455.168 266.468C467.088 265.085 486.716 247.706 486.982 245.662Z" fill="#220F01"/>
<path d="M459.515 230.724C449.928 176.97 398.663 151.031 374.163 147.852C377.467 121.239 387.915 122.241 408.809 125.103C481.812 135.101 497.249 197.579 498.479 229.81C471.86 235.341 461.184 235.838 459.515 230.724Z" fill="#351700"/>
<ellipse rx="19.439" ry="10.1973" transform="matrix(-1.01894 0.0126816 -0.0995999 0.978448 478.728 230.302)" fill="#451E00"/>
<path opacity="0.6" fill-rule="evenodd" clip-rule="evenodd" d="M459.223 229.159C448.93 176.466 398.424 151 374.163 147.852C373.048 141.436 391.141 143.283 411.049 149.328C462.23 164.87 477.692 191.849 478.922 224.08C478.845 224.096 478.768 224.112 478.691 224.128C478.842 229.633 478.753 236.937 477.713 240.28C466.774 240.416 458.36 236.059 458.921 230.549C458.969 230.082 459.07 229.618 459.223 229.159Z" fill="#240F00"/>
<path d="M436.557 249.577C428.461 194.84 378.515 166.801 354.409 162.728C358.349 135.91 368.637 137.287 389.191 140.912C461.002 153.576 474.651 217.347 475.045 250.011C448.627 254.68 438.074 254.811 436.557 249.577Z" fill="#351700"/>
<ellipse rx="19.2831" ry="10.2665" transform="matrix(-1.01432 -0.0228645 -0.122405 0.980158 455.535 249.82)" fill="#451E00"/>
<path opacity="0.6" fill-rule="evenodd" clip-rule="evenodd" d="M436.308 247.983C427.489 194.295 378.279 166.761 354.409 162.728C353.472 156.196 371.286 158.696 390.785 165.509C440.914 183.022 455.491 210.866 455.885 243.529C455.808 243.543 455.731 243.557 455.655 243.57C455.664 249.147 455.39 256.536 454.278 259.883C443.476 259.64 435.281 254.937 435.975 249.379C436.034 248.909 436.146 248.443 436.308 247.983Z" fill="#240F00"/>
<path d="M411.003 290.543C417.652 233.881 378.361 191.676 356.945 180.697C367.574 155.21 376.807 159.538 395.029 169.051C458.691 202.286 454.876 269.514 446.771 302.049C420.932 299.082 411.06 296.175 411.003 290.543Z" fill="#351700"/>
<ellipse rx="19.1084" ry="10.3428" transform="matrix(-0.948273 -0.317456 -0.365607 0.93077 428.632 296.246)" fill="#451E00"/>
<path opacity="0.6" fill-rule="evenodd" clip-rule="evenodd" d="M411.185 288.889C416.888 233.06 378.152 191.569 356.945 180.697C357.766 173.943 373.724 181.551 390.136 193.925C432.327 225.734 438.694 257.567 430.59 290.102C430.515 290.093 430.44 290.085 430.365 290.076C428.928 295.614 426.756 302.871 424.851 305.872C414.843 302.522 408.424 295.496 410.512 290.18C410.689 289.729 410.914 289.299 411.185 288.889Z" fill="#240F00"/>
<path opacity="0.5" d="M470 155L464 149V144.5L436 153L395 209L421.5 243.5C439.5 246.7 454.333 240.5 459.5 237L447 190.5C459.5 187.5 461 175 461.5 173C461.9 171.4 459.333 165.333 458 162.5C460.8 161.3 467.167 157 470 155Z" fill="#220F01"/>
</g>
<path d="M432.786 158.849C399.224 115.78 341.779 116.759 318.626 125.379C309.131 100.299 318.839 96.3098 338.654 89.0914C407.887 63.8711 450.694 111.927 466.822 139.86C445.859 157.172 436.647 162.594 432.786 158.849Z" fill="#351700"/>
<ellipse rx="19.439" ry="10.1973" transform="matrix(-0.895293 0.486663 0.368463 0.911875 449.582 149.512)" fill="#451E00"/>
<path opacity="0.6" fill-rule="evenodd" clip-rule="evenodd" d="M431.797 157.602C398.106 115.8 341.553 116.843 318.626 125.379C314.646 120.224 331.51 113.416 351.939 109.473C404.459 99.3372 430.723 115.984 446.85 143.917C446.789 143.968 446.729 144.018 446.668 144.068C449.371 148.866 452.7 155.368 453.34 158.81C443.728 164.035 434.254 164.107 432.179 158.972C432.003 158.537 431.876 158.079 431.797 157.602Z" fill="#240F00"/>
<path d="M421.277 186.237C388.576 141.601 331.316 140.107 308.096 147.754C299.067 122.195 308.809 118.613 328.679 112.228C398.103 89.9211 439.931 139.956 455.521 168.661C434.334 185.119 425.061 190.158 421.277 186.237Z" fill="#351700"/>
<ellipse rx="19.2831" ry="10.2665" transform="matrix(-0.907801 0.453073 0.34909 0.924029 438.176 177.597)" fill="#451E00"/>
<path opacity="0.6" fill-rule="evenodd" clip-rule="evenodd" d="M420.314 184.943C387.462 141.573 331.09 140.182 308.096 147.754C304.219 142.413 321.141 136.313 341.566 133.239C394.076 125.338 419.961 143.164 435.55 171.869C435.488 171.917 435.427 171.965 435.366 172.013C437.976 176.941 441.182 183.604 441.76 187.083C432.092 191.908 422.65 191.573 420.671 186.334C420.503 185.89 420.384 185.425 420.314 184.943Z" fill="#240F00"/>
<path d="M423.098 231.594C402.539 178.375 348.095 159.381 324.03 159.664C321.538 132.162 331.725 131.681 352.279 131.592C424.094 131.282 452.089 192.523 460.102 225.08C435.863 234.513 425.776 236.548 423.098 231.594Z" fill="#351700"/>
<ellipse rx="19.1084" ry="10.3428" transform="matrix(-0.98684 0.161697 0.110943 0.993827 441.351 228.412)" fill="#451E00"/>
<path opacity="0.6" fill-rule="evenodd" clip-rule="evenodd" d="M422.487 230.047C401.48 178.007 347.86 159.383 324.03 159.664C321.604 153.307 339.269 152.59 359.558 155.876C411.717 164.323 432.203 189.506 440.216 222.064C440.145 222.092 440.075 222.119 440.005 222.147C441.318 227.716 442.782 235.147 442.498 238.691C432.084 240.397 423.128 237.178 422.494 231.502C422.44 231.021 422.439 230.535 422.487 230.047Z" fill="#240F00"/>
<path d="M74.6361 283.515C87.0435 222.839 146.352 188.575 174.449 182.428C171.387 153.249 159.415 155.477 135.45 160.886C51.7169 179.784 32.3863 250.767 30.1128 286.666C60.3975 289.958 72.5909 289.369 74.6361 283.515Z" fill="#351700"/>
<ellipse cx="52.6808" cy="285.101" rx="22.7138" ry="11" transform="rotate(-4.65537 52.6808 285.101)" fill="#451E00"/>
<path opacity="0.6" fill-rule="evenodd" clip-rule="evenodd" d="M75.0124 281.748C88.1974 222.174 146.626 188.515 174.449 182.428C175.896 175.189 155.161 179.173 132.237 188.009C73.3032 210.726 54.8999 242.318 52.6264 278.217C52.7146 278.226 52.8024 278.236 52.8899 278.246C52.5686 284.371 52.4739 292.467 53.5736 296.065C66.0767 295.047 75.8127 289.313 75.3196 283.258C75.2779 282.745 75.1744 282.241 75.0124 281.748Z" fill="#240F00"/>
<path d="M116.372 312.309C102.614 251.925 142.479 196.226 165.53 179.024C150.691 153.714 140.708 160.687 121.115 175.511C52.6606 227.302 64.3692 299.932 77.1238 333.565C106.065 324.057 116.927 318.484 116.372 312.309Z" fill="#351700"/>
<ellipse cx="97.0313" cy="322.82" rx="22.7138" ry="11" transform="rotate(-29.047 97.0313 322.82)" fill="#451E00"/>
<path opacity="0.6" fill-rule="evenodd" clip-rule="evenodd" d="M115.985 310.544C103.39 250.842 142.704 196.058 165.53 179.024C163.858 171.834 146.619 184.025 129.39 201.54C85.0983 246.567 81.384 282.939 94.1386 316.573C94.2229 316.545 94.3069 316.518 94.3905 316.49C96.6273 322.201 99.8846 329.614 102.372 332.437C113.339 326.346 119.838 317.103 116.888 311.792C116.638 311.342 116.336 310.926 115.985 310.544Z" fill="#240F00"/>
<path d="M159.136 323.436C144.329 263.301 183.217 206.916 205.965 189.316C190.687 164.268 180.827 171.414 161.495 186.576C93.9535 239.552 106.926 311.967 120.264 345.373C149.035 335.362 159.798 329.601 159.136 323.436Z" fill="#351700"/>
<ellipse cx="139.981" cy="334.283" rx="22.7138" ry="11" transform="rotate(-30.0451 139.981 334.283)" fill="#451E00"/>
<path opacity="0.6" fill-rule="evenodd" clip-rule="evenodd" d="M158.718 321.678C145.086 262.205 183.439 206.744 205.965 189.315C204.168 182.155 187.144 194.645 170.223 212.457C126.722 258.249 123.642 294.68 136.98 328.087C137.064 328.057 137.148 328.028 137.231 328C139.567 333.671 142.953 341.026 145.489 343.805C156.348 337.524 162.685 328.169 159.643 322.91C159.386 322.465 159.076 322.054 158.718 321.678Z" fill="#240F00"/>
<path d="M196.852 331.423C172.061 274.669 200.825 212.507 220.258 191.304C200.954 169.209 192.449 177.924 175.968 196.145C118.388 259.807 143.453 328.974 162.263 359.634C188.92 344.889 198.55 337.386 196.852 331.423Z" fill="#351700"/>
<ellipse cx="179.814" cy="345.361" rx="22.7138" ry="11" transform="rotate(-39.8085 179.814 345.361)" fill="#451E00"/>
<path opacity="0.6" fill-rule="evenodd" clip-rule="evenodd" d="M196.142 329.761C172.621 273.461 201.014 212.3 220.258 191.304C217.273 184.551 202.614 199.747 188.958 220.171C153.853 272.677 156.995 309.103 175.806 339.763C175.883 339.72 175.961 339.678 176.038 339.635C179.302 344.828 183.886 351.502 186.856 353.811C196.493 345.78 201.152 335.486 197.262 330.819C196.933 330.424 196.558 330.071 196.142 329.761Z" fill="#240F00"/>
<path d="M189 309C187.4 305.8 186.333 299.666 186 297C156.5 262.5 94.4 178.3 88 181.5C81.6 184.7 62.6667 203.333 58 208.5L82 224C79 234.5 80 252.5 88 256.5C94.4 259.7 109.333 260.166 116 260L118.5 276C119.333 278.666 122.7 284.4 129.5 286C136.3 287.6 147.667 285.333 152.5 284C152.1 288 156 299.666 158 305C167.2 309.4 182.5 309.5 189 309Z" fill="#220F01"/>
<path d="M97.4602 200.055C125.704 144.939 192.035 127.859 220.751 129.481C225.636 100.552 213.506 99.4832 188.968 98.2585C103.236 93.9796 65.5554 157.165 53.726 191.135C82.0145 202.438 93.9185 205.144 97.4602 200.055Z" fill="#351700"/>
<ellipse cx="75.8854" cy="195.688" rx="22.7138" ry="11" transform="rotate(10.9205 75.8854 195.688)" fill="#451E00"/>
<path opacity="0.6" fill-rule="evenodd" clip-rule="evenodd" d="M98.2975 198.453C126.995 144.608 192.315 127.874 220.751 129.481C224.089 122.897 203.046 121.167 178.591 123.523C115.721 129.581 89.511 155.071 77.6816 189.041C77.764 189.074 77.846 189.107 77.9277 189.14C75.9735 194.954 73.7084 202.727 73.8015 206.488C86.1188 208.865 97.037 205.956 98.1879 199.991C98.2853 199.486 98.3211 198.972 98.2975 198.453Z" fill="#240F00"/>
<path d="M129.932 238.998C132.894 177.137 186.25 134.189 213.073 123.808C205.575 95.4429 194.087 99.4792 171.233 108.497C91.3859 140.005 83.1623 213.112 86.4174 248.935C116.849 247.547 128.808 245.096 129.932 238.998Z" fill="#351700"/>
<ellipse cx="108.479" cy="243.93" rx="22.7138" ry="11" transform="rotate(-13.4711 108.479 243.93)" fill="#451E00"/>
<path opacity="0.6" fill-rule="evenodd" clip-rule="evenodd" d="M130.033 237.194C133.932 176.303 186.512 134.087 213.073 123.808C213.394 116.432 193.514 123.547 172.215 135.793C117.459 167.273 104.115 201.312 107.37 237.135C107.459 237.131 107.547 237.127 107.635 237.123C108.256 243.225 109.403 251.24 111.042 254.627C123.241 251.705 131.983 244.547 130.568 238.639C130.448 238.139 130.268 237.656 130.033 237.194Z" fill="#240F00"/>
<path d="M168.138 261.199C170.021 199.296 222.622 155.425 249.26 144.579C241.269 116.348 229.852 120.584 207.159 129.999C127.873 162.893 120.924 236.132 124.803 271.893C155.206 269.975 167.12 267.316 168.138 261.199Z" fill="#351700"/>
<ellipse cx="146.774" cy="266.505" rx="22.7138" ry="11" transform="rotate(-14.4692 146.774 266.505)" fill="#451E00"/>
<path opacity="0.6" fill-rule="evenodd" clip-rule="evenodd" d="M168.207 259.393C171.045 198.444 222.882 155.319 249.26 144.578C249.452 137.198 229.7 144.658 208.617 157.273C154.418 189.703 141.668 223.969 145.547 259.73C145.636 259.724 145.724 259.719 145.812 259.714C146.539 265.804 147.826 273.797 149.523 277.156C161.669 274.021 170.285 266.712 168.767 260.829C168.639 260.331 168.451 259.852 168.207 259.393Z" fill="#240F00"/>
<path d="M202.324 279.02C193.683 217.694 238.082 165.538 262.494 150.332C249.832 123.866 239.299 129.976 218.531 143.103C145.972 188.966 151.543 262.322 161.43 296.908C191.067 289.862 202.358 285.22 202.324 279.02Z" fill="#351700"/>
<ellipse cx="182.169" cy="287.871" rx="22.7138" ry="11" transform="rotate(-24.2326 182.169 287.871)" fill="#451E00"/>
<path opacity="0.6" fill-rule="evenodd" clip-rule="evenodd" d="M202.086 277.229C194.547 216.681 238.32 165.39 262.494 150.332C261.432 143.026 243.231 153.727 224.593 169.735C176.678 210.886 169.924 246.818 179.811 281.403C179.897 281.383 179.983 281.362 180.069 281.342C181.819 287.221 184.442 294.88 186.684 297.902C198.123 292.753 205.375 284.088 202.881 278.549C202.67 278.08 202.404 277.639 202.086 277.229Z" fill="#240F00"/>
<path d="M130.5 111C133.3 109.4 142.667 106.666 147 105.5L209.5 212C204.3 218.4 201.667 239 201 248.5C186 247 170.5 237.5 168 232.5C166 228.5 179.5 200.333 186.5 190C165 192 154.5 179.5 152 173.5C150 168.7 155.667 159.166 160 152C134 142.8 129.5 120.833 130.5 111Z" fill="#220F01"/>
<path d="M176.661 139.909C224.468 100.539 292.128 111.2 317.839 124.092C333.81 99.4804 323.101 93.6833 301.067 82.8161C224.081 44.8475 164.41 87.8767 140.064 114.357C161.539 135.963 171.39 143.174 176.661 139.909Z" fill="#351700"/>
<ellipse cx="158.594" cy="127.334" rx="22.7138" ry="11" transform="rotate(34.3155 158.594 127.334)" fill="#451E00"/>
<path opacity="0.6" fill-rule="evenodd" clip-rule="evenodd" d="M178.066 138.771C225.784 100.747 292.379 111.326 317.839 124.092C323.517 119.374 304.891 109.431 281.51 101.883C221.404 82.4799 187.227 95.4671 162.882 121.947C162.945 122.01 163.007 122.073 163.069 122.135C158.967 126.695 153.801 132.93 152.393 136.419C162.754 143.491 173.93 145.157 177.355 140.139C177.645 139.714 177.882 139.257 178.066 138.771Z" fill="#240F00"/>
<path d="M194.177 179.693C237.436 135.373 305.852 138.639 332.808 148.668C346.018 122.471 334.744 117.869 311.662 109.453C231.015 80.0517 176.358 129.295 155.026 158.257C178.716 177.409 189.29 183.509 194.177 179.693Z" fill="#351700"/>
<ellipse cx="174.853" cy="169.15" rx="22.7138" ry="11" transform="rotate(28.0938 174.853 169.15)" fill="#451E00"/>
<path opacity="0.6" fill-rule="evenodd" clip-rule="evenodd" d="M195.45 178.41C238.766 135.438 306.115 138.737 332.809 148.668C337.942 143.363 318.348 135.497 294.287 130.528C232.432 117.753 199.864 134.367 178.532 163.33C178.601 163.386 178.67 163.441 178.738 163.497C175.154 168.474 170.695 175.232 169.673 178.854C180.74 184.761 192.03 185.205 194.891 179.846C195.133 179.392 195.319 178.912 195.45 178.41Z" fill="#240F00"/>
<path d="M211 228.5C240.6 174.1 307.333 158.667 336 161C341.6 132.2 329.5 130.832 305 129C219.4 122.6 180.166 184.833 167.5 218.5C195.5 230.5 207.333 233.5 211 228.5Z" fill="#351700"/>
<ellipse cx="189.539" cy="223.6" rx="22.7138" ry="11" transform="rotate(12.3391 189.539 223.6)" fill="#451E00"/>
<path opacity="0.6" fill-rule="evenodd" clip-rule="evenodd" d="M211.876 226.919C241.898 173.801 307.613 158.689 336 161C339.5 154.5 318.506 152.249 294 154C231 158.5 204.166 183.333 191.5 217C191.581 217.035 191.663 217.07 191.743 217.105C189.646 222.868 187.189 230.583 187.189 234.346C199.444 237.026 210.43 234.388 211.729 228.454C211.839 227.951 211.887 227.438 211.876 226.919Z" fill="#240F00"/>
</svg>
