<svg width="530" height="600" viewBox="0 0 530 600" fill="none" xmlns="http://www.w3.org/2000/svg">
<path d="M274 100C362.8 102.4 406.5 165.5 415 198.5C360 189.833 223.454 164.041 205 214C164 325 190 457 205 511C149.8 515 81.3334 495.333 54 485C48.4999 478.5 52.2764 503.963 44 381C30 173 146 130.5 184 113.5C214.4 99.9 257 97.3333 274 100Z" fill="#220F00"/>
<path d="M438.5 482.5C435.7 477.3 435.667 459 436 450.5C411.2 472.9 385.333 483.167 375.5 485.5C394.7 487.9 425.5 484.5 438.5 482.5Z" fill="#220F00"/>
<mask id="mask0" style="mask-type:alpha" maskUnits="userSpaceOnUse" x="42" y="99" width="397" height="413">
<path d="M274 100C362.8 102.4 399 157 406 184C351 175.333 223.454 164.041 205 214C164 325 190 457 205 511C149.8 515 81.3334 495.333 54 485C48.4999 478.5 52.2764 503.963 44 381C30 173 146 130.5 184 113.5C214.4 99.9 257 97.3333 274 100Z" fill="#2A1200"/>
<path d="M438.5 482.5C435.7 477.3 435.667 459 436 450.5C411.2 472.9 385.333 483.167 375.5 485.5C394.7 487.9 425.5 484.5 438.5 482.5Z" fill="#2A1200"/>
</mask>
<g mask="url(#mask0)">
<path d="M303.032 142.226C303.032 142.226 290.737 138.545 276.522 149.794C276.522 149.794 283.427 136.984 290.799 133.141C290.799 133.141 262.744 131.465 240.853 158.469C240.853 158.469 251.428 132.03 267.974 123.653C267.974 123.653 246.91 127.174 237.638 135.675C237.638 135.675 239.117 120.062 250.041 113.408C250.041 113.408 231.702 103.917 215.351 107.773C215.351 107.773 246.716 98.0123 257.216 98.9569C276.889 95.3698 303.578 105.265 303.578 105.265C297.069 105.616 289.959 111.24 289.959 111.24C307.157 110.74 325.767 118.584 325.767 118.584C317.105 118.39 310.756 124.492 310.756 124.492C330.008 128.507 343.622 141.087 343.622 141.087C338.919 137.329 323.782 138.921 323.782 138.921C333.332 143.909 342.547 155.943 342.547 155.943L325.052 149.805C325.052 149.805 316.357 178.432 312.659 183.778C312.659 183.778 317.303 159.262 313.777 151.806C313.777 151.806 295.853 171.82 280.106 185.536C280.108 185.524 292.277 151.209 303.032 142.226Z" fill="#1B0C01"/>
</g>
<path d="M286.759 266.913C360.907 268.087 413.148 257.125 430 251.498C427.593 213.327 402.148 139.349 315 137C227.852 134.651 181.636 211.37 170 251.498C195.037 265.004 250.448 266.179 275.324 266.913L282.546 234.615L286.759 266.913Z" fill="#220F00"/>
<path d="M193 168C173 226.333 141.6 372 176 488C148.333 423.667 113 269.6 193 168Z" fill="#150901"/>
<path d="M108 298C108 240.4 148 176.667 168 152C63.2001 200 71.6667 328.667 89 387C73.8001 298.2 99.3334 240.667 114 223C106 247.8 106.667 283.333 108 298Z" fill="#150901"/>
<path d="M347 160C364.333 168.667 399.4 197.2 401 242C404.333 217.333 398.2 166.4 347 160Z" fill="#150901"/>
<path d="M284 168C278 178.333 266.2 204.8 267 228C261.667 216.667 257.6 188.8 284 168Z" fill="#150901"/>
</svg>
