<svg width="530" height="600" viewBox="0 0 530 600" fill="none" xmlns="http://www.w3.org/2000/svg">
<path fill-rule="evenodd" clip-rule="evenodd" d="M72.0053 40.1357C72.0018 39.9242 72 39.7123 72 39.5C72 18.7893 88.7893 2 109.5 2C123.77 2 136.179 9.97097 142.516 21.7034C149.394 13.3364 159.824 8 171.5 8C192.211 8 209 24.7893 209 45.5C209 47.4441 208.852 49.3536 208.567 51.218C227.365 53.2452 242 69.1634 242 88.5C242 107.654 227.639 123.454 209.097 125.721C205.902 169.985 171.828 204.822 130.263 204.822C104.679 204.822 81.932 191.623 67.4781 171.15C64.9071 171.707 62.2378 172 59.5 172C38.7893 172 22 155.211 22 134.5C22 122.528 27.6105 111.866 36.3457 105C27.6105 98.1343 22 87.4723 22 75.5C22 54.7893 38.7893 38 59.5 38C63.8849 38 68.0941 38.7526 72.0053 40.1357Z" fill="#451E00"/>
<mask id="mask0" style="mask-type:alpha" maskUnits="userSpaceOnUse" x="22" y="2" width="220" height="203">
<path fill-rule="evenodd" clip-rule="evenodd" d="M72.0053 40.1357C72.0018 39.9242 72 39.7123 72 39.5C72 18.7893 88.7893 2 109.5 2C123.77 2 136.179 9.97097 142.516 21.7034C149.394 13.3364 159.824 8 171.5 8C192.211 8 209 24.7893 209 45.5C209 47.4441 208.852 49.3536 208.567 51.218C227.365 53.2452 242 69.1634 242 88.5C242 107.654 227.639 123.454 209.097 125.721C205.902 169.985 171.828 204.822 130.263 204.822C104.679 204.822 81.932 191.623 67.4781 171.15C64.9071 171.707 62.2378 172 59.5 172C38.7893 172 22 155.211 22 134.5C22 122.528 27.6105 111.866 36.3457 105C27.6105 98.1343 22 87.4723 22 75.5C22 54.7893 38.7893 38 59.5 38C63.8849 38 68.0941 38.7526 72.0053 40.1357Z" fill="#451E00"/>
</mask>
<g mask="url(#mask0)">
<g style="mix-blend-mode:multiply" opacity="0.5">
<path d="M78 95.5C47.2 95.1 30.5 68 26 54.5L15 63L-4 99.5L0.5 174L51 192.5C101 178.333 206.7 146.6 229.5 133C252.3 119.4 244.667 75.6667 240 63C236 93.5 191 133.5 169 133C147 132.5 78 130 72.5 119C68.1 110.2 74.3333 99.6667 78 95.5Z" fill="#351700"/>
<path d="M94 54.5C88.8 45.7 77.5 41.5 72.5 40.5C68.5715 26.5718 79.4966 9.21589 87.3399 -0.037904C88.0931 -1.13753 88.9756 -2.1308 90 -3C89.1784 -2.14266 88.2813 -1.14864 87.3399 -0.037904C78.3878 13.0316 87.697 41.1253 94 54.5Z" fill="#351700"/>
<path d="M145.5 35C145.1 24.6 142.667 19.3333 141.5 18C152.3 -4 179 2.83333 191 9C172.2 8.6 152.833 26.1667 145.5 35Z" fill="#351700"/>
<path d="M212.5 40.5C208.5 54.1 199.167 67.1667 195 72C215.4 70.4 223.167 56.3333 224.5 49.5L212.5 40.5Z" fill="#351700"/>
</g>
</g>
<g style="mix-blend-mode:multiply" opacity="0.3">
<path d="M318.417 153.974C324.616 145.573 326.682 141.472 333.398 141.472C340.114 141.472 347.243 152.374 355.095 153.974C364.91 155.974 373.175 150.973 380.924 151.974C388.673 152.974 385.573 157.975 390.739 169.476C395.905 180.978 404.687 184.479 407.27 187.979C409.853 191.48 407.27 198.481 409.336 203.482C411.403 208.483 417.602 210.483 419.152 214.984C420.701 219.484 417.602 220.985 420.701 227.486C423.181 232.687 427.934 237.321 430 238.988L417.602 192.98C399.831 144.172 354.062 127.97 333.398 125.969C225.948 95.9646 135.028 209.149 103 269.493L126 314C132.027 312.166 140.401 308.499 147.427 300.497C156.209 290.496 153.109 266.492 156.209 256.49C159.308 246.489 164.474 241.488 182.038 233.987C199.602 226.486 198.569 212.483 207.351 201.482C216.133 190.48 235.246 196.481 243.512 189.48C251.777 182.479 244.545 172.477 255.91 163.475C267.275 154.474 284.322 158.975 293.621 163.475C302.919 167.976 310.668 164.476 318.417 153.974Z" fill="#351700"/>
</g>
<path d="M166.397 82.4165C70.6804 114.658 26.5 222.5 59.4587 331C63.1254 319.333 75.0587 296.7 101.459 299.5C105.792 300.5 117.359 305.5 128.959 317.5C166.397 122.5 322.529 125.048 368 143.5C412.358 161.5 423 231.5 425.543 241.368C427.14 242.989 429.667 241.671 429.607 239.299C425.43 79.021 270.985 47.1876 166.397 82.4165Z" fill="#351700"/>
<path d="M237 77C258.333 86 304.8 108.4 320 126C312.333 109.667 285 77 237 77Z" fill="#2A1000"/>
<path d="M213 87C217.333 102.333 228.2 135.4 237 145C237.667 134.833 233.8 109 213 87Z" fill="#2A1000"/>
<path d="M179.5 91C178 107.667 178.8 146.5 194 168.5C179.667 158.833 156.7 129.8 179.5 91Z" fill="#2A1000"/>
<path d="M142 229.5C119.6 174.7 140.333 122.667 153.5 103.5C99.9001 170.3 116.833 231.667 132 254C124 241.2 123.667 216 124.5 205C124.9 216.6 136.333 226.167 142 229.5Z" fill="#2A1000"/>
<path d="M120.5 126C103.333 154.833 75.9 224.9 103.5 274.5C85.6667 254.5 64.1 196.8 120.5 126Z" fill="#2A1000"/>
<path d="M295 83C315.167 89 360.1 108.3 378.5 137.5C370 121.333 341.4 87.8 295 83Z" fill="#2A1000"/>
</svg>
