<svg width="530" height="600" viewBox="0 0 530 600" fill="none" xmlns="http://www.w3.org/2000/svg">
<path d="M354 163C321.5 208 248 300.5 147 333.5C140.167 321.833 128 309.6 106 310C78.5 310.5 68.5 330.5 68.5 330.5C68.5 330.5 36.5 384 110.5 418C131 422 137.5 422 154 415C165.167 423.667 200.6 453.2 213 458C209.833 474.833 204.242 516.8 211.842 536C197.342 537.333 162 544.7 134 529.5C131.181 512.377 128.701 489.954 133.115 481.405C127.846 490.015 118.342 509.669 118.342 521C102.342 515.5 66.7423 500.2 52.3423 483C30.009 378 21.9998 123.5 248 102C267.833 99.6667 318.4 101.7 352 124.5C394 153 415 191 423 229C405.833 221 368 196.6 354 163Z" fill="#E2BA87"/>
<path d="M436.5 521C429.7 511.4 433.667 467.833 436.5 453C408.5 476.5 392 488 334.5 489.5C344.5 504.5 383.5 510 388 512L396 506.5V514.5C406.8 518.1 427.5 520.333 436.5 521Z" fill="#E2BA87"/>
<mask id="mask0" style="mask-type:alpha" maskUnits="userSpaceOnUse" x="248" y="101" width="176" height="128">
<path d="M349.501 123.5C315.901 100.7 267.834 99.6667 248 102C253.477 131.667 270.372 194.8 317 210C330.672 192.282 346.992 175.791 354 163C368 196.6 405.834 221 423 229C415 191 391.501 152 349.501 123.5Z" fill="#E2BA87"/>
</mask>
<g mask="url(#mask0)">
<path d="M341.932 157.814C341.932 157.814 333.656 148.005 315.602 149.644C315.602 149.644 328.391 142.699 336.664 143.516C336.664 143.516 314.098 126.762 281 137.388C281 137.388 304.318 121.043 322.751 123.086C322.751 123.086 303.194 114.507 290.781 116.55C290.781 116.55 300.561 104.29 313.346 104.698C313.346 104.698 303.19 86.7192 287.392 81C287.392 81 318.987 89.9917 327.259 96.528C345.689 104.29 362.614 127.175 362.614 127.175C356.973 123.907 347.945 124.724 347.945 124.724C362.614 133.716 373.899 150.465 373.899 150.465C366.754 145.563 358.101 147.197 358.101 147.197C372.018 161.091 376.531 179.07 376.531 179.07C374.651 173.351 361.11 166.402 361.11 166.402C366.374 175.802 367.502 190.917 367.502 190.917L356.217 176.206C356.217 176.206 333.276 195.411 327.255 197.862C327.255 197.862 344.556 179.883 345.685 171.712C345.685 171.712 319.731 178.657 299.045 181.521C299.053 181.512 328.015 159.448 341.932 157.814Z" fill="#D9AC74"/>
</g>
<path d="M284 207C270 224.667 224.4 267.6 154 298C176.333 284 233.6 246.2 284 207Z" fill="#D9AC74"/>
<path d="M98 298C138.8 211.6 221.667 162.667 258 149C164.4 165 102 257.333 82.5 301.5C86.1 299.9 94.3333 298.5 98 298Z" fill="#D9AC74"/>
<path d="M77 402.5C79 405 84.8 408.9 88 410.5C86.7103 432.425 84.7552 474.975 85.7579 493.848C86.0227 496.514 86.2738 498.923 86.5 501C86.1635 499.374 85.9214 496.926 85.7579 493.848C83.8762 474.909 81.2987 443.032 82 425.5C78.3333 438.833 72.1 443.3 76.5 498.5C71.8334 462.833 64.6001 424.1 77 402.5Z" fill="#D9AC74"/>
<path d="M411.5 472.5C414.3 471.3 419 468 421 466.5C417.4 472.5 418.833 502.667 420 517C417.6 515 416 507.5 415.5 504C413.9 509.2 410.833 509.5 411.5 517C407.1 507 411 488.5 411.5 472.5Z" fill="#D9AC74"/>
<path d="M186.5 464.5C181.7 508.1 184 520 188 538.5H178H168C160.8 503.3 179.167 486.5 186.5 464.5Z" fill="#D9AC74"/>
</svg>
