<svg width="530" height="600" viewBox="0 0 530 600" fill="none" xmlns="http://www.w3.org/2000/svg">
<path d="M333.618 91.4696C360.784 119.48 371.858 153.609 374 167.173C353.485 186.122 327.024 228.654 293.047 253.285C263.458 274.734 229.306 285.275 203.242 289.641C181.637 311.886 181.268 335.613 167.5 336.5C158.934 315.997 119.817 292.083 91.7412 305.5C68.6875 316.517 61.1828 342.311 80.8478 376.163C92.4728 396.175 120.777 403.762 163.907 410.745L192.337 436.119C189.583 441.481 184.387 449.167 167.5 456.737C146.391 466.2 48.1881 457.684 39.0103 396.175C16.0659 375.672 -19.9111 318.39 19.737 253.285C31.8825 233.341 48.9776 219.054 69.2176 209.858C68.971 201.707 68.9618 192.255 69.2971 181.367C71.1326 121.751 125.282 73.4901 167.5 63.0809C209.717 52.6717 299.66 56.4569 333.618 91.4696Z" fill="#3A1A00"/>
<path d="M417.5 222C404.5 199 384.325 172.461 373.5 167C369.297 137.611 344.257 103.125 332 89.5555C447.569 44.3797 477.019 190.167 472.88 245.437C494.274 289.123 479.566 351.344 471.925 376C468.104 342.639 440.598 321.461 428.5 316C433.849 285.817 429 243.5 417.5 222Z" fill="#3A1A00"/>
</svg>
