<svg width="530" height="600" viewBox="0 0 530 600" fill="none" xmlns="http://www.w3.org/2000/svg">
<path d="M101.917 288.624C101.799 293.22 101.861 297.826 102.112 302.427C140.202 308.899 158.241 349.73 162.5 369.337C162.5 369.337 173.833 370.003 176.5 367.837C190.5 360.503 215.4 330.437 203 268.837C197 240.837 201 218.543 250 183.837C299 149.13 377 170.837 393 183.837C405.8 194.237 411.935 198.17 413.403 198.837C379.237 121.294 310.095 110.457 310.095 110.457C174.645 75.9256 115.923 214.457 114.5 218C105.658 240.018 102.539 264.275 101.917 288.624Z" fill="#CDCCFF"/>
<path d="M446 102.837C415.6 114.037 395 160.837 389 180.837C360.5 166.837 342 165.837 312 164.837C315.333 154.17 273.5 121.837 231 126.837C176.879 133.204 144.5 171.837 142 176.837L112 142.837C201.6 -10.7635 372 52.1699 446 102.837Z" fill="#7D7AFF"/>
<path d="M446 102.837C415.6 114.037 395 160.837 389 180.837C360.5 166.837 342 165.837 312 164.837C315.333 154.17 273.5 121.837 231 126.837C176.879 133.204 144.5 171.837 142 176.837L112 142.837C137 114.67 208.6 64.0365 295 86.8365L446 102.837Z" fill="#605DE4"/>
<path d="M446 102.837C415.6 114.037 395 160.837 389 180.837C360.5 166.837 342 165.837 312 164.837C316 132.037 294.333 97.0032 287 84.3366C330.5 62.3366 425.919 89.0872 446 102.837Z" fill="#5754D2"/>
</svg>
