<svg width="530" height="600" viewBox="0 0 530 600" fill="none" xmlns="http://www.w3.org/2000/svg">
<path d="M426 222.5C401 118.5 310.5 99.5 273.5 101C109.1 103 72.6667 236.167 75 308.5C76 306.5 78 305 78 305C91 298 98.5 300 101 300C144.5 302 159.833 353.5 157 375.5C164.9 382.907 175.727 375.684 180.329 372.614L180.5 372.5C184.1 370.1 180.5 359 180.5 352.5C171.5 310.5 173.5 250.5 176 250.5C178 250.5 205.5 248.167 216.5 246.5C215.7 236.1 212.833 206.167 216.5 201C213.3 206.2 226.667 237.833 228 244C277.5 249 378.5 231 381.5 229.5C383.9 228.3 380.5 201.667 378.5 188.5C386.1 195.7 392.333 220.167 393.5 229.5C403.1 228.7 419.167 224.5 426 222.5Z" fill="#71472D"/>
<path d="M286 117C309.333 118.667 363.4 133.2 393 178C381.333 153.667 343.6 107.4 286 117Z" fill="#613D25"/>
<path d="M334 165C341 174 355.2 198.6 356 225C361 214.333 363.6 187.4 334 165Z" fill="#613D25"/>
<path d="M135 249C139.8 195.4 175 156 192 143C128 163.8 114 232.333 115 264C115.8 224 138.667 190 150 178C139.6 196.4 135.667 233 135 249Z" fill="#613D25"/>
</svg>
