<svg width="530" height="600" viewBox="0 0 530 600" fill="none" xmlns="http://www.w3.org/2000/svg">
<mask id="mask0" style="mask-type:alpha" maskUnits="userSpaceOnUse" x="397" y="174" width="67" height="113">
<path d="M424.108 286.5C423.587 237.368 412.655 201.147 397.531 174.5C415.71 174.5 454.069 183.6 462.069 220C470.069 256.4 440.095 279.5 424.108 286.5Z" fill="#C4C4C4"/>
</mask>
<g mask="url(#mask0)">
<circle cx="405.5" cy="233.583" r="44.5" fill="#2B1200"/>
</g>
<path fill-rule="evenodd" clip-rule="evenodd" d="M409.997 214.535C397.498 214.535 386.164 209.413 377.873 201.099C369.489 209.413 358.026 214.535 345.387 214.535C329.465 214.535 315.411 206.406 307.025 194.009C297.676 206.484 282.914 214.535 266.304 214.535C258.987 214.535 252.028 212.973 245.733 210.158C239.901 225.288 227.307 236.966 211.735 241.343C213.271 246.293 214.099 251.562 214.099 257.029C214.099 271.804 208.047 285.142 198.328 294.617C197.48 333.245 179.578 353.281 168.5 359.083C165.833 361.25 154.5 360.583 154.5 360.583C151.101 344.935 138.924 315.767 114.782 301.337C112.939 301.542 111.067 301.647 109.171 301.647C80.9102 301.647 58 278.341 58 249.592C58 234.731 64.1222 221.324 73.9411 211.839C65.9513 202.656 61.1013 190.581 61.1013 177.353C61.1013 149.839 82.086 127.311 108.663 125.426C109.148 97.1086 131.637 74.3065 159.309 74.3065C166.735 74.3065 173.788 75.9487 180.143 78.8989C188.057 60.558 206.068 47.748 227.021 47.748C238.553 47.748 249.194 51.6284 257.75 58.1757C266.834 44.2026 282.322 35 299.901 35C321.121 35 339.294 48.4088 346.833 67.4312C353.307 64.344 360.523 62.6208 368.13 62.6208C396.106 62.6208 418.784 85.9264 418.784 114.675C418.784 116.741 418.667 118.779 418.44 120.781C439.814 124.855 456 144.116 456 167.261C456 193.37 435.404 214.535 409.997 214.535Z" fill="#2B1200"/>
</svg>
