<svg width="530" height="600" viewBox="0 0 530 600" fill="none" xmlns="http://www.w3.org/2000/svg">
<path d="M99.1569 284.598C99.0261 289.196 99.0775 293.804 99.3203 298.407C137.827 304.79 155.972 345.598 160.231 365.204C160.231 365.204 171.691 365.844 174.393 363.669C188.571 356.298 213.827 326.154 201.437 264.552C195.438 236.552 199.538 214.237 249.179 179.392C298.821 144.547 377.655 166.074 393.805 179.042C406.725 189.416 408.097 191 412 193.5C377.636 116 310.138 105.827 310.138 105.827C173.232 71.6089 114.829 214.443 114.833 214.442C105.837 236.494 99.8453 260.234 99.1569 284.598Z" fill="#D0BA9E"/>
</svg>
