<svg width="530" height="600" viewBox="0 0 530 600" fill="none" xmlns="http://www.w3.org/2000/svg">
<path d="M100.917 284.788C100.799 289.383 100.861 293.989 101.112 298.59C139.202 305.062 157.241 345.893 161.5 365.5C161.5 365.5 172.833 366.167 175.5 364C189.5 356.667 214.4 326.6 202 265C196 237 200 214.706 249 180C298 145.294 376 167 392 180C404.8 190.4 410.935 194.333 412.403 195C378.237 117.458 309.095 106.621 309.095 106.621C164.5 70 115.984 213.294 115.5 214.5C106.658 236.518 101.539 260.438 100.917 284.788Z" fill="#21625A"/>
<path d="M249 102C311 105.6 343.5 145.5 352 165C360 201.8 401.667 219.333 421.5 223.5C428.3 247.1 430 295.333 430 316C448.8 326 460.167 340.833 463.5 347.5C459 329.5 464.5 324.5 468 303.5C471.5 282.5 446.5 254.5 438 243.5C429.5 232.5 444 195 435.5 175C427 155 399.5 137.5 385 136C370.5 134.5 371 114.5 328.5 97.5C294.5 83.9 261.333 94.8333 249 102Z" fill="#238D81"/>
<path d="M472 386.5C470.8 401.7 462 420.667 458 428C441.024 453.6 415.927 471 406 476C436.4 496 472.833 487.167 486.5 481C484.5 479.333 480 473.9 478 465.5C475.5 455 492.5 440 490.5 421C488.9 405.8 477.5 391.667 472 386.5Z" fill="#238D81"/>
<mask id="mask0" style="mask-type:alpha" maskUnits="userSpaceOnUse" x="249" y="91" width="242" height="398">
<path d="M249 102C311 105.6 343.5 145.5 352 165C360 201.8 401.667 219.333 421.5 223.5C428.3 247.1 430 295.333 430 316C448.8 326 460.167 340.833 463.5 347.5C459 329.5 464.5 324.5 468 303.5C471.5 282.5 446.5 254.5 438 243.5C429.5 232.5 444 195 435.5 175C427 155 399.5 137.5 385 136C370.5 134.5 371 114.5 328.5 97.5C294.5 83.9 261.333 94.8334 249 102Z" fill="#238D81"/>
<path d="M472 386.5C470.8 401.7 462 420.667 458 428C441.024 453.6 415.927 471 406 476C436.4 496 472.833 487.167 486.5 481C484.5 479.333 480 473.9 478 465.5C475.5 455 492.5 440 490.5 421C488.9 405.8 477.5 391.667 472 386.5Z" fill="#238D81"/>
</mask>
<g mask="url(#mask0)">
<path d="M382 190.5C369.6 180.9 361.5 164.5 359 157.5C362.5 164.027 375 179.766 397 190.5C419 201.234 427.167 213.306 428.5 218C420.5 203.5 397.5 202.5 382 190.5Z" fill="#DCDCDC" style="mix-blend-mode:multiply"/>
<path d="M454 309.5C454.8 300.7 452 289.5 450.5 285C450.5 289.833 450 301.5 448 309.5C446 317.5 440.833 323.833 438.5 326L454 336C447.5 327 453 320.5 454 309.5Z" fill="#DCDCDC" style="mix-blend-mode:multiply"/>
<path d="M477 434.5C481.4 424.9 478.833 415.833 477 412.5C477 432 469 431.5 461 447.5C453 463.5 459 479.5 454 477C450 475 448.333 470.167 448 468C446 480.4 448.833 490.5 450.5 494C464.5 495.6 474 487.333 477 483C464.5 464.5 471.5 446.5 477 434.5Z" fill="#DCDCDC" style="mix-blend-mode:multiply"/>
</g>
</svg>
