<svg width="530" height="600" viewBox="0 0 530 600" fill="none" xmlns="http://www.w3.org/2000/svg">
<rect width="530" height="600" fill="#E5E5E5"/>
<rect x="-1240" y="-838" width="2500" height="1592" rx="45" fill="white"/>
<path d="M305.778 106.621C305.778 106.621 437.166 127.213 427.202 314.748C427.166 315.443 442.394 325.57 443.586 326.652C454.205 336.272 463.114 348.592 467.009 363.003C480.881 414.322 431.285 467.199 391.179 481.234C376.198 486.476 360.364 489.021 344.498 489.483C241.359 492.492 104.808 426.828 97.7949 298.59C97.5437 293.989 97.4817 289.383 97.5999 284.788C98.2216 260.439 104.088 236.725 112.93 214.706C112.927 214.707 170.328 72.0891 305.778 106.621Z" fill="#EBE4E4"/>
<path opacity="0.3" d="M364.803 325.889C364.803 325.889 385.645 306.025 401.78 324.701L364.803 325.889Z" fill="#C9BABA"/>
<path d="M170.522 422.66C98.3253 458.929 36.136 374.104 58.2178 324.985C72.3035 293.654 110.881 290.275 132.393 318.028C145.088 334.407 155.139 355.499 160.61 375.781" fill="#EBE4E4"/>
<path opacity="0.3" d="M113.887 346.833C122.773 355.594 129.744 368.745 138.565 375.957C137.248 363.551 134.96 350.326 129.024 339.266C122.997 328.033 111.714 318.938 99.9331 320.008C85.3331 321.334 72.8696 338.044 70.9054 352.959C72.0799 344.034 90.7742 337.542 97.8207 338.208C108.321 358.102 111.481 397.755 111.481 397.755C121.342 375.014 118.109 357.404 113.887 346.833Z" fill="#C9BABA"/>
<path d="M336.876 287.122C321.256 299.103 302.172 296.747 293.776 293.826C293.58 293.758 293.431 294.012 293.568 294.168C315.146 318.651 331.391 300.309 337.189 287.35C337.273 287.16 337.041 286.995 336.876 287.122Z" fill="#2A1200"/>
<path d="M391.969 294.092C399.671 302.67 409.207 300.868 413.717 298.569C413.897 298.477 414.096 298.724 413.99 298.899C402.532 317.775 394.484 304.212 391.627 294.26C391.567 294.052 391.823 293.93 391.969 294.092Z" fill="#2A1200"/>
<path d="M332.947 242.202C320.524 236.05 305.006 236.622 292.548 243.637C288.532 245.898 285.938 251.304 287.997 255.888C289.898 260.127 294.91 262.788 299.21 260.362C300.499 259.635 301.815 258.975 303.17 258.405C303.592 258.227 304.676 258.015 305.096 257.691C305.293 257.633 305.485 257.575 305.684 257.522C306.911 257.191 308.149 256.924 309.396 256.72C310.111 256.604 310.823 256.512 311.54 256.437C311.766 256.414 311.991 256.396 312.219 256.378C312.805 256.452 313.536 256.348 314.085 256.365C314.802 256.388 315.514 256.434 316.229 256.501C317.475 256.617 318.714 256.798 319.938 257.044C320.11 257.079 320.278 257.116 320.449 257.154C321.089 257.355 321.732 257.54 322.366 257.763C323.715 258.241 325.027 258.811 326.314 259.446C330.328 261.435 335.991 258.624 337.524 254.094C339.204 249.105 337.247 244.333 332.947 242.202Z" fill="#71472D"/>
<path d="M419.529 246.526C412.101 242.494 403.58 241.588 395.91 243.803C393.84 244.401 391.951 246.204 391.065 248.198C390.191 250.162 390.014 252.975 390.874 255.111C391.769 257.329 393.297 259.438 395.45 260.49C397.633 261.557 399.865 261.832 402.113 261.186C402.482 261.079 402.859 261.017 403.234 260.929C404.401 260.796 405.573 260.761 406.757 260.812C408.179 261.027 409.579 261.373 410.962 261.849C411.443 262.07 411.936 262.267 412.408 262.521C414.442 263.624 416.988 263.887 419.071 263.217C421.065 262.575 423.111 260.861 423.914 258.818C424.747 256.703 425.026 254.189 424.105 251.905C423.187 249.627 421.681 247.693 419.529 246.526Z" fill="#71472D"/>
</svg>
