<svg width="530" height="600" viewBox="0 0 530 600" fill="none" xmlns="http://www.w3.org/2000/svg">
<rect width="530" height="600" fill="#E5E5E5"/>
<rect x="-684" y="-153" width="2500" height="1592" rx="45" fill="white"/>
<path d="M305.778 106.621C305.778 106.621 437.166 127.213 427.202 314.748C427.166 315.443 442.394 325.57 443.586 326.652C454.205 336.272 463.114 348.592 467.009 363.003C480.881 414.322 431.285 467.199 391.179 481.234C376.198 486.476 360.364 489.021 344.498 489.483C241.359 492.492 104.808 426.828 97.7949 298.59C97.5437 293.989 97.4817 289.383 97.5999 284.788C98.2216 260.439 104.088 236.725 112.93 214.706C112.927 214.707 170.328 72.0891 305.778 106.621Z" fill="#EBE4E4"/>
<path opacity="0.3" d="M364.803 325.889C364.803 325.889 385.645 306.025 401.78 324.701L364.803 325.889Z" fill="#C9BABA"/>
<path d="M170.522 422.66C98.3253 458.929 36.136 374.104 58.2178 324.985C72.3035 293.654 110.881 290.275 132.393 318.028C145.088 334.407 155.139 355.499 160.61 375.781" fill="#EBE4E4"/>
<path opacity="0.3" d="M113.887 346.833C122.773 355.594 129.744 368.745 138.565 375.957C137.248 363.551 134.96 350.326 129.024 339.266C122.997 328.033 111.714 318.938 99.9331 320.008C85.3331 321.334 72.8696 338.044 70.9054 352.959C72.0799 344.034 90.7742 337.542 97.8207 338.208C108.321 358.102 111.481 397.755 111.481 397.755C121.342 375.014 118.109 357.404 113.887 346.833Z" fill="#C9BABA"/>
<path d="M331.178 300.479C331.155 312.355 324.95 321.994 312.066 320.018C302.792 317.535 296.618 310.999 296.642 298.544C296.668 285.495 304.269 277.027 312.15 277.012C322.684 276.992 331.201 288.603 331.178 300.479Z" fill="#2A1200"/>
<path d="M419.013 295.265C418.998 303.225 415.394 311.774 406.171 310.791C398.432 309.967 396.456 299.808 396.466 294.807C396.483 286.06 400.866 277.796 407.261 277.784C414.138 277.771 419.029 287.304 419.013 295.265Z" fill="#2A1200"/>
<path d="M336.947 244.202C324.524 238.05 309.006 238.622 296.548 245.637C292.532 247.898 289.938 253.304 291.997 257.888C293.898 262.127 298.91 264.788 303.21 262.362C304.499 261.635 305.815 260.975 307.17 260.405C307.592 260.227 308.676 260.015 309.096 259.691C309.293 259.633 309.485 259.575 309.684 259.522C310.911 259.191 312.149 258.924 313.396 258.72C314.111 258.604 314.823 258.512 315.54 258.437C315.766 258.414 315.991 258.396 316.219 258.378C316.805 258.452 317.536 258.348 318.085 258.365C318.802 258.388 319.514 258.434 320.229 258.501C321.475 258.617 322.714 258.798 323.938 259.044C324.11 259.079 324.278 259.116 324.449 259.154C325.089 259.355 325.732 259.54 326.366 259.763C327.715 260.241 329.027 260.811 330.314 261.446C334.328 263.435 339.991 260.624 341.524 256.094C343.204 251.105 341.247 246.333 336.947 244.202Z" fill="#71472D"/>
<path d="M420.529 244.526C413.101 240.494 404.58 239.588 396.91 241.803C394.84 242.401 392.951 244.204 392.065 246.198C391.191 248.162 391.014 250.975 391.874 253.111C392.769 255.329 394.297 257.438 396.45 258.49C398.633 259.557 400.865 259.832 403.114 259.186C403.482 259.079 403.859 259.017 404.234 258.929C405.401 258.796 406.573 258.761 407.757 258.812C409.179 259.027 410.579 259.373 411.962 259.849C412.444 260.07 412.936 260.267 413.408 260.521C415.442 261.624 417.988 261.887 420.071 261.217C422.065 260.575 424.111 258.861 424.914 256.818C425.747 254.703 426.026 252.189 425.105 249.905C424.188 247.627 422.681 245.693 420.529 244.526Z" fill="#71472D"/>
</svg>
