<svg width="530" height="600" viewBox="0 0 530 600" fill="none" xmlns="http://www.w3.org/2000/svg">
<rect width="530" height="600" fill="#E5E5E5"/>
<rect x="-1794" y="-840" width="2500" height="1592" rx="45" fill="white"/>
<path d="M304.778 106.621C304.778 106.621 436.166 127.213 426.202 314.748C426.166 315.443 441.394 325.57 442.586 326.652C453.205 336.272 462.114 348.592 466.009 363.003C479.881 414.322 430.285 467.199 390.179 481.234C375.198 486.476 359.364 489.021 343.498 489.483C240.359 492.492 103.808 426.828 96.7949 298.59C96.5437 293.989 96.4817 289.383 96.5999 284.788C97.2216 260.439 103.088 236.725 111.93 214.706C111.927 214.707 169.328 72.0891 304.778 106.621Z" fill="#EBE4E4"/>
<path opacity="0.3" d="M363.803 325.889C363.803 325.889 384.645 306.025 400.78 324.701L363.803 325.889Z" fill="#C9BABA"/>
<path d="M169.522 422.66C97.3253 458.929 35.136 374.104 57.2178 324.985C71.3035 293.654 109.881 290.275 131.393 318.028C144.088 334.407 154.139 355.499 159.61 375.781" fill="#EBE4E4"/>
<path opacity="0.3" d="M112.887 346.833C121.773 355.594 128.744 368.745 137.565 375.957C136.248 363.551 133.96 350.326 128.024 339.266C121.997 328.033 110.714 318.938 98.9331 320.008C84.3331 321.334 71.8696 338.044 69.9054 352.959C71.0799 344.034 89.7742 337.542 96.8207 338.208C107.321 358.102 110.481 397.755 110.481 397.755C120.342 375.014 117.109 357.404 112.887 346.833Z" fill="#C9BABA"/>
<path d="M333.539 301.163C334.303 313.014 328.748 323.044 315.756 321.927C306.333 320.065 299.738 313.952 298.937 301.523C298.098 288.501 305.124 279.547 312.99 279.009C323.504 278.29 332.775 289.311 333.539 301.163Z" fill="#2A1200"/>
<path fill-rule="evenodd" clip-rule="evenodd" d="M396.658 284.3C402.326 284.257 410.064 283.15 415.044 279.187C417.131 282.344 418.487 286.371 418.729 290.121C419.241 298.065 416.21 306.835 406.939 306.466C399.159 306.157 396.513 296.151 396.192 291.161C396.04 288.808 396.208 286.47 396.658 284.3Z" fill="#2A1200"/>
<path d="M329.916 242.336C316.068 242.998 302.786 251.042 295.309 263.228C292.898 267.157 293.26 273.142 297.287 276.146C301.008 278.927 306.682 278.816 309.261 274.606C310.034 273.344 310.863 272.127 311.77 270.97C312.052 270.61 312.896 269.898 313.106 269.41C313.25 269.264 313.39 269.119 313.538 268.976C314.449 268.091 315.402 267.256 316.392 266.471C316.96 266.023 317.538 265.596 318.128 265.182C318.314 265.052 318.502 264.927 318.693 264.8C319.241 264.58 319.828 264.134 320.317 263.882C320.955 263.553 321.599 263.247 322.256 262.958C323.402 262.455 324.573 262.01 325.762 261.63C325.929 261.576 326.094 261.528 326.262 261.478C326.918 261.342 327.57 261.191 328.234 261.078C329.644 260.84 331.069 260.7 332.502 260.629C336.976 260.417 340.559 255.207 339.696 250.503C338.739 245.327 334.709 242.108 329.916 242.336Z" fill="#71472D"/>
<path d="M417.758 259.442C411.147 264.708 402.915 267.087 394.976 266.244C392.834 266.016 390.659 264.57 389.439 262.761C388.236 260.979 387.57 258.24 388.045 255.987C388.54 253.647 389.676 251.304 391.613 249.892C393.576 248.46 395.726 247.801 398.052 248.045C398.434 248.086 398.816 248.081 399.2 248.102C400.373 248.029 401.533 247.859 402.69 247.603C404.052 247.143 405.371 246.558 406.65 245.849C407.085 245.547 407.536 245.267 407.956 244.934C409.767 243.493 412.227 242.79 414.395 243.086C416.471 243.37 418.785 244.702 419.932 246.573C421.121 248.51 421.834 250.937 421.325 253.347C420.82 255.75 419.674 257.917 417.758 259.442Z" fill="#71472D"/>
</svg>
