<svg width="530" height="600" viewBox="0 0 530 600" fill="none" xmlns="http://www.w3.org/2000/svg">
<rect width="530" height="600" fill="#E5E5E5"/>
<rect x="-154" y="-153" width="2500" height="1592" rx="45" fill="white"/>
<path d="M305.778 106.621C305.778 106.621 437.166 127.213 427.202 314.748C427.166 315.443 442.394 325.57 443.586 326.652C454.205 336.272 463.114 348.592 467.009 363.003C480.881 414.322 431.285 467.199 391.179 481.234C376.198 486.476 360.364 489.021 344.498 489.483C241.359 492.492 104.808 426.828 97.7949 298.59C97.5437 293.989 97.4817 289.383 97.5999 284.788C98.2216 260.439 104.088 236.725 112.93 214.706C112.927 214.707 170.328 72.0891 305.778 106.621Z" fill="#EBE4E4"/>
<path opacity="0.3" d="M364.803 325.889C364.803 325.889 385.645 306.025 401.78 324.701L364.803 325.889Z" fill="#C9BABA"/>
<path d="M170.522 422.66C98.3253 458.929 36.136 374.104 58.2178 324.985C72.3035 293.654 110.881 290.275 132.393 318.028C145.088 334.407 155.139 355.499 160.61 375.781" fill="#EBE4E4"/>
<path opacity="0.3" d="M113.887 346.833C122.773 355.594 129.744 368.745 138.565 375.957C137.248 363.551 134.96 350.326 129.024 339.266C122.997 328.033 111.714 318.938 99.9331 320.008C85.3331 321.334 72.8696 338.044 70.9054 352.959C72.0799 344.034 90.7742 337.542 97.8207 338.208C108.321 358.102 111.481 397.755 111.481 397.755C121.342 375.014 118.109 357.404 113.887 346.833Z" fill="#C9BABA"/>
<path d="M300.349 309.163C309.181 309.003 318.023 312.185 325.845 316.937C330.536 312.143 332.791 303.953 331.028 295.398C328.556 283.391 319.204 275.34 310.141 277.418C301.077 279.496 295.739 290.916 298.215 302.923C298.676 305.176 299.447 307.233 300.349 309.163Z" fill="#2A1200"/>
<path d="M418.11 306.627C419.412 303.75 420.177 300.235 420.103 296.397C419.923 286.858 414.814 279.163 408.692 279.215C402.568 279.264 397.751 287.04 397.931 296.583C398.031 301.829 399.654 306.463 402.081 309.611C407.192 307.629 412.62 306.683 418.11 306.627Z" fill="#2A1200"/>
<path d="M333.495 238.676C319.812 236.451 305.149 241.563 295.306 251.932C292.133 255.275 291.245 261.205 294.561 264.98C297.624 268.473 303.197 269.541 306.594 265.958C307.612 264.883 308.675 263.865 309.802 262.922C310.153 262.628 311.127 262.106 311.433 261.673C311.604 261.56 311.771 261.447 311.946 261.338C313.021 260.661 314.126 260.042 315.257 259.48C315.906 259.159 316.56 258.861 317.223 258.578C317.432 258.491 317.642 258.407 317.855 258.322C318.437 258.221 319.104 257.906 319.635 257.761C320.327 257.572 321.021 257.407 321.723 257.26C322.948 257.005 324.186 256.813 325.428 256.688C325.603 256.671 325.774 256.657 325.949 256.644C326.619 256.647 327.288 256.634 327.961 256.661C329.39 256.721 330.812 256.88 332.229 257.108C336.65 257.828 341.236 253.476 341.367 248.695C341.506 243.433 338.232 239.448 333.495 238.676Z" fill="#71472D"/>
<path d="M422.358 248.39C417.39 241.554 410.088 237.067 402.212 235.765C400.086 235.414 397.605 236.229 395.947 237.647C394.313 239.044 392.942 241.506 392.799 243.805C392.652 246.192 393.123 248.753 394.614 250.63C396.125 252.533 398.021 253.741 400.329 254.126C400.707 254.188 401.074 254.294 401.451 254.376C402.561 254.759 403.634 255.232 404.681 255.787C405.872 256.593 406.987 257.508 408.03 258.533C408.37 258.94 408.73 259.33 409.046 259.762C410.408 261.633 412.592 262.967 414.761 263.259C416.837 263.538 419.421 262.871 421.025 261.373C422.688 259.822 424.021 257.673 424.173 255.215C424.326 252.764 423.799 250.37 422.358 248.39Z" fill="#71472D"/>
</svg>
