<svg width="530" height="600" viewBox="0 0 530 600" fill="none" xmlns="http://www.w3.org/2000/svg">
<rect width="530" height="600" fill="#E5E5E5"/>
<rect x="-684" y="-840" width="2500" height="1592" rx="45" fill="white"/>
<path d="M305.778 106.621C305.778 106.621 437.166 127.213 427.202 314.748C427.166 315.443 442.394 325.57 443.586 326.652C454.205 336.272 463.114 348.592 467.009 363.003C480.881 414.322 431.285 467.199 391.179 481.234C376.198 486.476 360.364 489.021 344.498 489.483C241.359 492.492 104.808 426.828 97.7949 298.59C97.5437 293.989 97.4817 289.383 97.5999 284.788C98.2216 260.439 104.088 236.725 112.93 214.706C112.927 214.707 170.328 72.0891 305.778 106.621Z" fill="#EBE4E4"/>
<path opacity="0.3" d="M364.803 325.889C364.803 325.889 385.645 306.025 401.78 324.701L364.803 325.889Z" fill="#C9BABA"/>
<path d="M170.522 422.66C98.3253 458.929 36.136 374.104 58.2178 324.985C72.3035 293.654 110.881 290.275 132.393 318.028C145.088 334.407 155.139 355.499 160.61 375.781" fill="#EBE4E4"/>
<path opacity="0.3" d="M113.887 346.833C122.773 355.594 129.744 368.745 138.565 375.957C137.248 363.551 134.96 350.326 129.024 339.266C122.997 328.033 111.714 318.938 99.9331 320.008C85.3331 321.334 72.8696 338.044 70.9054 352.959C72.0799 344.034 90.7742 337.542 97.8207 338.208C108.321 358.102 111.481 397.755 111.481 397.755C121.342 375.014 118.109 357.404 113.887 346.833Z" fill="#C9BABA"/>
<path d="M342.942 294.416C342.914 309.181 333.612 321.169 314.286 318.718C300.374 315.636 293.018 309.894 293.048 294.41C293.08 278.185 300.775 267.421 314.39 265.247C335.276 261.913 342.971 279.65 342.942 294.416Z" fill="#2A1200"/>
<path d="M419.173 284.886C419.154 296.659 414.339 309.303 402.013 307.852C391.669 306.634 389.027 291.611 389.039 284.215C389.06 271.278 394.916 259.056 403.462 259.036C412.653 259.015 419.192 273.113 419.173 284.886Z" fill="#2A1200"/>
<path d="M402.178 267.964C402.435 266.969 403.809 266.888 404.093 267.851L406.72 276.738C406.856 277.198 407.302 277.479 407.78 277.406L412.804 276.636C413.624 276.51 414.188 277.385 413.759 278.116L409.575 285.231C409.428 285.479 409.39 285.774 409.47 286.043L412.053 294.786C412.348 295.784 411.101 296.569 410.381 295.839L406.73 292.138C406.322 291.724 405.635 291.775 405.253 292.247L399.644 299.175C399.022 299.943 397.825 299.502 397.894 298.53L398.63 288.221C398.65 287.937 398.551 287.663 398.358 287.466L392.81 281.843C392.241 281.266 392.603 280.248 393.423 280.123L398.592 279.33C399.002 279.267 399.342 278.957 399.447 278.549L402.178 267.964Z" fill="white"/>
<path d="M318.019 272.679C318.358 271.851 319.53 271.85 319.87 272.677L324.606 284.196C324.778 284.615 325.209 284.866 325.658 284.808L335.317 283.571C336.232 283.454 336.804 284.533 336.194 285.224L328.989 293.391C328.737 293.676 328.669 294.08 328.814 294.432L333.276 305.284C333.652 306.2 332.613 307.047 331.792 306.494L323.409 300.843C323.039 300.594 322.55 300.62 322.208 300.906L310.679 310.565C309.978 311.152 308.922 310.569 309.046 309.663L310.725 297.324C310.777 296.947 310.609 296.573 310.293 296.36L301.263 290.273C300.498 289.758 300.78 288.569 301.695 288.452L311.537 287.192C311.894 287.146 312.199 286.912 312.335 286.578L318.019 272.679Z" fill="white"/>
<path d="M331.172 233.547C317.883 229.598 302.689 232.801 291.606 241.833C288.033 244.745 286.397 250.513 289.205 254.68C291.799 258.534 297.191 260.303 301.016 257.181C302.163 256.245 303.347 255.371 304.585 254.579C304.97 254.332 306.003 253.938 306.362 253.547C306.546 253.457 306.726 253.367 306.913 253.281C308.065 252.746 309.24 252.273 310.434 251.859C311.118 251.623 311.805 251.411 312.498 251.215C312.717 251.155 312.936 251.098 313.158 251.042C313.748 251.015 314.45 250.788 314.995 250.712C315.705 250.612 316.414 250.537 317.13 250.481C318.378 250.384 319.629 250.351 320.878 250.385C321.053 250.39 321.224 250.398 321.399 250.407C322.064 250.496 322.729 250.569 323.393 250.681C324.803 250.922 326.193 251.261 327.569 251.667C331.863 252.945 336.965 249.211 337.705 244.487C338.512 239.285 335.772 234.915 331.172 233.547Z" fill="#71472D"/>
<path d="M418.688 238.735C412.226 233.288 404.063 230.681 396.104 231.303C393.956 231.472 391.742 232.857 390.472 234.631C389.22 236.379 388.479 239.098 388.891 241.364C389.32 243.716 390.391 246.09 392.288 247.555C394.211 249.041 396.341 249.76 398.674 249.58C399.056 249.55 399.438 249.565 399.823 249.555C400.993 249.661 402.148 249.863 403.297 250.151C404.647 250.648 405.949 251.27 407.207 252.014C407.634 252.328 408.077 252.62 408.487 252.965C410.257 254.455 412.697 255.226 414.873 254.99C416.956 254.764 419.305 253.497 420.504 251.659C421.746 249.755 422.526 247.349 422.085 244.926C421.646 242.51 420.561 240.312 418.688 238.735Z" fill="#71472D"/>
</svg>
