<svg width="530" height="600" viewBox="0 0 530 600" fill="none" xmlns="http://www.w3.org/2000/svg">
<rect width="530" height="600" fill="#E5E5E5"/>
<rect x="-1794" y="-154" width="2500" height="1592" rx="45" fill="white"/>
<path d="M304.778 106.621C304.778 106.621 436.166 127.213 426.202 314.748C426.166 315.443 441.394 325.57 442.586 326.652C453.205 336.272 462.114 348.592 466.009 363.003C479.881 414.322 430.285 467.199 390.179 481.234C375.198 486.476 359.364 489.021 343.498 489.483C240.359 492.492 103.808 426.828 96.7949 298.59C96.5437 293.989 96.4817 289.383 96.5999 284.788C97.2216 260.439 103.088 236.725 111.93 214.706C111.927 214.707 169.328 72.0891 304.778 106.621Z" fill="#EBE4E4"/>
<path opacity="0.3" d="M363.803 325.889C363.803 325.889 384.645 306.025 400.78 324.701L363.803 325.889Z" fill="#C9BABA"/>
<path d="M169.522 422.66C97.3253 458.929 35.136 374.104 57.2178 324.985C71.3035 293.654 109.881 290.275 131.393 318.028C144.088 334.407 154.139 355.499 159.61 375.781" fill="#EBE4E4"/>
<path opacity="0.3" d="M112.887 346.833C121.773 355.594 128.744 368.745 137.565 375.957C136.248 363.551 133.96 350.326 128.024 339.266C121.997 328.033 110.714 318.938 98.9331 320.008C84.3331 321.334 71.8696 338.044 69.9054 352.959C71.0799 344.034 89.7742 337.542 96.8207 338.208C107.321 358.102 110.481 397.755 110.481 397.755C120.342 375.014 117.109 357.404 112.887 346.833Z" fill="#C9BABA"/>
<path fill-rule="evenodd" clip-rule="evenodd" d="M397.994 289.273C402.343 287.769 409.304 284.899 414.9 281.189C418.025 284.677 419.941 290.283 419.931 295.271C419.916 303.232 416.314 311.78 407.095 310.798C399.358 309.973 397.382 299.814 397.392 294.813C397.396 292.918 397.604 291.045 397.994 289.273Z" fill="#2A1200"/>
<path fill-rule="evenodd" clip-rule="evenodd" d="M301.243 283.111C298.448 286.85 296.615 292.148 296.603 298.547C296.579 311.002 302.75 317.539 312.022 320.022C324.901 321.998 331.104 312.359 331.126 300.483C331.131 298.33 330.854 296.186 330.336 294.119C323.754 294.178 312.772 291.916 301.243 283.111Z" fill="#2A1200"/>
<path d="M332.092 270.313C318.45 272.776 303.701 267.92 293.678 257.724C290.447 254.437 289.456 248.524 292.705 244.692C295.707 241.146 301.261 239.981 304.72 243.504C305.756 244.561 306.837 245.56 307.981 246.484C308.336 246.771 309.319 247.276 309.633 247.704C309.806 247.814 309.975 247.924 310.151 248.03C311.238 248.688 312.354 249.288 313.495 249.83C314.149 250.14 314.808 250.426 315.476 250.697C315.687 250.781 315.898 250.862 316.112 250.942C316.695 251.033 317.368 251.336 317.902 251.472C318.597 251.649 319.293 251.803 319.998 251.937C321.228 252.17 322.468 252.341 323.713 252.444C323.888 252.459 324.059 252.469 324.234 252.479C324.904 252.464 325.574 252.465 326.245 252.427C327.673 252.342 329.093 252.158 330.505 251.906C334.913 251.108 339.574 255.38 339.789 260.158C340.019 265.417 336.815 269.459 332.092 270.313Z" fill="#71472D"/>
<path d="M419.666 257.428C413.779 263.492 405.916 266.899 397.935 267.073C395.781 267.12 393.44 265.962 391.999 264.323C390.58 262.709 389.571 260.077 389.755 257.781C389.948 255.398 390.777 252.929 392.518 251.282C394.283 249.613 396.331 248.685 398.67 248.631C399.054 248.623 399.432 248.569 399.816 248.542C400.969 248.32 402.099 248.004 403.214 247.603C404.507 246.973 405.74 246.225 406.918 245.358C407.312 245.003 407.723 244.669 408.097 244.285C409.71 242.626 412.061 241.615 414.25 241.633C416.344 241.651 418.808 242.677 420.184 244.387C421.61 246.157 422.626 248.473 422.429 250.929C422.233 253.376 421.372 255.671 419.666 257.428Z" fill="#71472D"/>
</svg>
